<svg width="94" height="94" viewBox="0 0 94 94" fill="none" xmlns="http://www.w3.org/2000/svg">
<circle cx="47" cy="47" r="47" fill="#3971FF" fill-opacity="0.05"/>
<path d="M32.392 31.237L47 28L61.608 31.237C62.0028 31.3245 62.3558 31.5436 62.6089 31.8582C62.862 32.1727 62.9999 32.5639 63 32.9672V50.6714C62.9999 52.4224 62.5662 54.1463 61.7376 55.69C60.9089 57.2338 59.7109 58.5497 58.2498 59.5209L47 67L35.7502 59.5209C34.2894 58.5498 33.0915 57.2342 32.2628 55.6908C31.4342 54.1474 31.0004 52.4239 31 50.6732V32.9672C31.0001 32.5639 31.138 32.1727 31.3911 31.8582C31.6442 31.5436 31.9972 31.3245 32.392 31.237ZM47 45.7273C48.1787 45.7273 49.3092 45.2603 50.1427 44.4292C50.9762 43.5981 51.4444 42.4708 51.4444 41.2955C51.4444 40.1201 50.9762 38.9928 50.1427 38.1617C49.3092 37.3306 48.1787 36.8636 47 36.8636C45.8213 36.8636 44.6908 37.3306 43.8573 38.1617C43.0238 38.9928 42.5556 40.1201 42.5556 41.2955C42.5556 42.4708 43.0238 43.5981 43.8573 44.4292C44.6908 45.2603 45.8213 45.7273 47 45.7273ZM39.048 54.5909H54.952C54.7365 52.6381 53.8059 50.8332 52.3385 49.5222C50.8712 48.2112 48.9702 47.4862 47 47.4862C45.0298 47.4862 43.1288 48.2112 41.6615 49.5222C40.1941 50.8332 39.2635 52.6381 39.048 54.5909Z" fill="url(#paint0_linear)"/>
<defs>
<linearGradient id="paint0_linear" x1="47" y1="28" x2="47" y2="67" gradientUnits="userSpaceOnUse">
<stop stop-color="#6D96FF"/>
<stop offset="1" stop-color="#3971FF"/>
</linearGradient>
</defs>
</svg>
