<svg width="94" height="94" viewBox="0 0 94 94" fill="none" xmlns="http://www.w3.org/2000/svg">
<circle cx="47" cy="47" r="47" fill="#3971FF" fill-opacity="0.05"/>
<path fill-rule="evenodd" clip-rule="evenodd" d="M45.9743 24.6432C45.9743 23.7367 46.7092 23 47.6156 23C48.5221 23 49.2569 23.7367 49.2569 24.6432C49.2569 25.5496 48.5221 26.2863 47.6156 26.2863C46.7092 26.2863 45.9743 25.5496 45.9743 24.6432ZM39.4092 30.6682C39.4092 29.4595 40.389 28.4773 41.5976 28.4773C42.8062 28.4773 43.786 29.4595 43.786 30.6682C43.786 31.8768 42.8062 32.859 41.5976 32.859C40.389 32.859 39.4092 31.8768 39.4092 30.6682ZM51.0521 45.908L60.3591 60.5962C61.0496 61.6957 61.1823 62.6373 60.7565 63.421C60.3311 64.2052 59.4647 64.5973 58.1576 64.5973H36.8428C35.5355 64.5973 34.6689 64.2052 34.2433 63.421C33.8178 62.6373 33.9504 61.6955 34.641 60.596L43.9475 45.9078V38.7342H42.8911C42.1419 38.7342 41.5346 38.1269 41.5346 37.3778C41.5346 36.6287 42.1419 36.0214 42.8911 36.0214H52.1148C52.8639 36.0214 53.4712 36.6287 53.4712 37.3778C53.4712 38.1269 52.8639 38.7342 52.1148 38.7342H51.0521V45.908ZM48.6838 38.7342V45.9072V46.5924L49.0537 47.1668L53.4712 53.6557H41.5346L45.9458 47.1668L46.3158 46.5924V45.9072V38.7342H48.6838ZM52.5403 28.4773C51.3317 28.4773 50.3519 29.4595 50.3519 30.6682C50.3519 31.8768 51.3317 32.859 52.5403 32.859C53.7489 32.859 54.7287 31.8768 54.7287 30.6682C54.7287 29.4595 53.7489 28.4773 52.5403 28.4773Z" fill="url(#paint0_linear)"/>
<defs>
<linearGradient id="paint0_linear" x1="47.5" y1="23" x2="47.5" y2="64.5973" gradientUnits="userSpaceOnUse">
<stop stop-color="#6D96FF"/>
<stop offset="1" stop-color="#3971FF"/>
</linearGradient>
</defs>
</svg>
