<svg width="24" height="24" viewBox="0 0 24 24" fill="none" xmlns="http://www.w3.org/2000/svg">
<path d="M12.7143 11H14.8571V12.4545H12.7143V11ZM22 5.90909V18.2727C22 18.4656 21.9247 18.6506 21.7908 18.787C21.6568 18.9234 21.4752 19 21.2857 19H4.85714C4.09938 19 3.37266 18.6935 2.83684 18.1479C2.30102 17.6024 2 16.8624 2 16.0909V5.90909C2 5.13755 2.30102 4.39761 2.83684 3.85205C3.37266 3.30649 4.09938 3 4.85714 3H6.28571C6.47515 3 6.65684 3.07662 6.79079 3.21301C6.92475 3.3494 7 3.53439 7 3.72727V5.18182H21.2857C21.4752 5.18182 21.6568 5.25844 21.7908 5.39483C21.9247 5.53122 22 5.71621 22 5.90909ZM5.57143 4.45455H4.85714C4.47826 4.45455 4.1149 4.60779 3.84699 4.88057C3.57908 5.15335 3.42857 5.52332 3.42857 5.90909V13.5718C3.86256 13.3156 4.35548 13.181 4.85714 13.1818H5.57143V4.45455ZM16.2857 12.4545V11H17.7143C17.9037 11 18.0854 10.9234 18.2194 10.787C18.3533 10.6506 18.4286 10.4656 18.4286 10.2727C18.4286 10.0798 18.3533 9.89486 18.2194 9.75847C18.0854 9.62208 17.9037 9.54545 17.7143 9.54545H16.2857V8.81818C16.2857 8.6253 16.2105 8.44031 16.0765 8.30392C15.9426 8.16753 15.7609 8.09091 15.5714 8.09091C15.382 8.09091 15.2003 8.16753 15.0664 8.30392C14.9324 8.44031 14.8571 8.6253 14.8571 8.81818V9.54545H12.7143V8.81818C12.7143 8.6253 12.639 8.44031 12.5051 8.30392C12.3711 8.16753 12.1894 8.09091 12 8.09091C11.8106 8.09091 11.6289 8.16753 11.4949 8.30392C11.361 8.44031 11.2857 8.6253 11.2857 8.81818V9.54545H9.85714C9.6677 9.54545 9.48602 9.62208 9.35207 9.75847C9.21811 9.89486 9.14286 10.0798 9.14286 10.2727C9.14286 10.4656 9.21811 10.6506 9.35207 10.787C9.48602 10.9234 9.6677 11 9.85714 11H11.2857V12.4545H9.85714C9.6677 12.4545 9.48602 12.5312 9.35207 12.6676C9.21811 12.8039 9.14286 12.9889 9.14286 13.1818C9.14286 13.3747 9.21811 13.5597 9.35207 13.6961C9.48602 13.8325 9.6677 13.9091 9.85714 13.9091H11.2857V14.6364C11.2857 14.8292 11.361 15.0142 11.4949 15.1506C11.6289 15.287 11.8106 15.3636 12 15.3636C12.1894 15.3636 12.3711 15.287 12.5051 15.1506C12.639 15.0142 12.7143 14.8292 12.7143 14.6364V13.9091H14.8571V14.6364C14.8571 14.8292 14.9324 15.0142 15.0664 15.1506C15.2003 15.287 15.382 15.3636 15.5714 15.3636C15.7609 15.3636 15.9426 15.287 16.0765 15.1506C16.2105 15.0142 16.2857 14.8292 16.2857 14.6364V13.9091H17.7143C17.9037 13.9091 18.0854 13.8325 18.2194 13.6961C18.3533 13.5597 18.4286 13.3747 18.4286 13.1818C18.4286 12.9889 18.3533 12.8039 18.2194 12.6676C18.0854 12.5312 17.9037 12.4545 17.7143 12.4545H16.2857Z" fill="#3971FF"/>
</svg>
