<svg width="28" height="28" viewBox="0 0 28 28" fill="none" xmlns="http://www.w3.org/2000/svg">
<path fill-rule="evenodd" clip-rule="evenodd" d="M16.2526 0.184602C23.8828 1.4285 29.0596 8.62191 27.8154 16.2522C26.5713 23.8829 19.3777 29.0594 11.7474 27.8155C4.11717 26.5711 -1.05956 19.3782 0.184585 11.7473C1.42873 4.1167 8.62206 -1.05956 16.2526 0.184602Z" fill="#3E43E8"/>
<path fill-rule="evenodd" clip-rule="evenodd" d="M15.7766 14.3081L20.0211 21.0067C20.336 21.5082 20.3965 21.9376 20.2023 22.295C20.0083 22.6526 19.6132 22.8314 19.0171 22.8314H9.29648C8.70026 22.8314 8.30506 22.6526 8.11098 22.295C7.9169 21.9376 7.97739 21.508 8.29232 21.0067L12.5366 14.308V10.9375L12.5497 9.92349H15.7664L15.7766 10.9374V14.3081ZM13.4502 14.8841L11.4384 17.8434H16.8821L14.8675 14.8841L14.6988 14.6222V14.3097V10.9391H13.6189V14.3097V14.6222L13.4502 14.8841Z" fill="#FFF6CD"/>
<path d="M12.5 15L11 18.5L18 19L15 14.5V10.5H13V11.5L12.5 15Z" fill="#FFF6CD"/>
<rect x="11.4341" y="9.79941" width="5.4437" height="1.2372" rx="0.618602" fill="#FFF6CD"/>
<rect x="10.833" y="5.52875" width="1.98316" height="1.98543" rx="0.991578" fill="#FFF6CD"/>
<rect x="15.7626" y="5.52875" width="1.98316" height="1.98543" rx="0.991578" fill="#FFF6CD"/>
<rect x="13.5529" y="3" width="1.52986" height="1.53161" rx="0.764932" fill="#FFF6CD"/>
</svg>
