<svg width="14" height="14" viewBox="0 0 14 14" fill="none" xmlns="http://www.w3.org/2000/svg">
<path d="M8.04583 0.585784L8.04584 0.585786C11.5884 1.1633 13.9919 4.50304 13.4142 8.04566C12.8366 11.5884 9.49675 13.9918 5.95416 13.4143C2.41156 12.8365 0.00814409 9.49697 0.585776 5.95411C1.16341 2.41136 4.5031 0.00814094 8.04583 0.585784Z" stroke="#E8B504"/>
<path fill-rule="evenodd" clip-rule="evenodd" d="M7.88832 7.1513L10.0106 10.5006C10.168 10.7513 10.1983 10.966 10.1012 11.1447C10.0042 11.3235 9.80661 11.413 9.50855 11.413H4.64824C4.35013 11.413 4.15253 11.3235 4.05549 11.1447C3.95845 10.966 3.9887 10.7513 4.14616 10.5006L6.26829 7.15125V5.46596L6.27484 4.95898H7.8832L7.88832 5.46595V7.1513ZM6.72462 7.4393L5.71875 8.91893H8.4406L7.43329 7.4393L7.34895 7.30833V7.15209V5.4668H6.80898V7.15209V7.30833L6.72462 7.4393Z" fill="#E8B504"/>
<path d="M6.25 7.49805L5.5 9.24806L9 9.49805L7.5 7.24805V5.24805H6.5V5.74805L6.25 7.49805Z" fill="#E8B504"/>
<rect x="5.7168" y="4.89844" width="2.72185" height="0.618602" rx="0.309301" fill="#E8B504"/>
<rect x="5.41602" y="2.76367" width="0.991579" height="0.992713" rx="0.495789" fill="#E8B504"/>
<rect x="7.88086" y="2.76367" width="0.991579" height="0.992713" rx="0.49579" fill="#E8B504"/>
<rect x="6.77539" y="1.5" width="0.764932" height="0.765807" rx="0.382466" fill="#E8B504"/>
</svg>
