<svg width="24" height="24" viewBox="0 0 24 24" fill="none" xmlns="http://www.w3.org/2000/svg">
<path d="M16.757 3.00156L14.757 5.00156H5V19.0016H19V9.24456L21 7.24456V20.0016C21 20.2668 20.8946 20.5211 20.7071 20.7087C20.5196 20.8962 20.2652 21.0016 20 21.0016H4C3.73478 21.0016 3.48043 20.8962 3.29289 20.7087C3.10536 20.5211 3 20.2668 3 20.0016V4.00156C3 3.73635 3.10536 3.48199 3.29289 3.29446C3.48043 3.10692 3.73478 3.00156 4 3.00156H16.757V3.00156ZM20.485 2.10156L21.9 3.51756L12.708 12.7096L11.296 12.7126L11.294 11.2956L20.485 2.10156V2.10156Z" fill="#4E53FF"/>
</svg>
