<svg width="25" height="22" viewBox="0 0 25 22" fill="none" xmlns="http://www.w3.org/2000/svg">
<path d="M12.5086 1.65003C14.4034 1.64632 16.2647 2.09007 17.8991 2.93516C19.5334 3.78026 20.8811 4.99583 21.8021 6.45551C22.723 7.91519 23.1836 9.56568 23.1359 11.2354C23.0882 12.9051 22.534 14.5331 21.5308 15.95C21.289 16.3972 21.1708 16.8886 21.186 17.3838C21.2012 17.879 21.3493 18.364 21.6182 18.799C21.0003 18.6998 20.3743 18.6446 19.7464 18.634C19.1667 18.6125 18.5918 18.7344 18.0867 18.986C16.6903 19.7355 15.1164 20.1902 13.4877 20.3149C11.859 20.4395 10.2197 20.2305 8.6977 19.7044C7.17575 19.1782 5.81237 18.3491 4.71402 17.2817C3.61567 16.2143 2.81207 14.9376 2.36599 13.5512C1.9199 12.1648 1.8434 10.7063 2.14245 9.2895C2.4415 7.87274 3.10802 6.53609 4.08995 5.38392C5.07188 4.23175 6.34264 3.29524 7.80302 2.64753C9.2634 1.99982 10.8739 1.65843 12.5086 1.65003ZM12.5086 3.13764e-05C10.5758 -0.00403762 8.6684 0.387708 6.93668 1.14438C5.20496 1.90106 3.69631 3.00198 2.52966 4.36035C1.36301 5.71872 0.570269 7.29741 0.213922 8.97195C-0.142425 10.6465 -0.0526304 12.3711 0.476226 14.0098C1.00508 15.6486 1.95854 17.1566 3.26144 18.4151C4.56433 19.6735 6.18104 20.648 7.98411 21.2617C9.78718 21.8753 11.7273 22.1114 13.6516 21.9513C15.5758 21.7912 17.4316 21.2393 19.0725 20.339C19.2842 20.257 19.5159 20.2229 19.7464 20.24C20.4767 20.2659 21.2031 20.3468 21.9177 20.482C23.4401 20.746 24.975 21.12 24.975 21.12C24.4596 20.3346 23.9889 19.5269 23.5649 18.7C23.1781 17.886 22.9035 17.116 23.1032 16.83C24.2843 15.1641 24.9378 13.2498 24.9958 11.286C25.0537 9.32218 24.514 7.38051 23.4327 5.66276C22.3513 3.94501 20.7679 2.51386 18.8468 1.51804C16.9258 0.522221 14.7372 -0.00193836 12.5086 3.13764e-05Z" fill="#AFADB7"/>
<path d="M8.32804 12.2821C9.07566 12.2821 9.68172 11.676 9.68172 10.9284C9.68172 10.1808 9.07566 9.57471 8.32804 9.57471C7.58043 9.57471 6.97437 10.1808 6.97437 10.9284C6.97437 11.676 7.58043 12.2821 8.32804 12.2821Z" fill="#AFADB7"/>
<path d="M12.6862 12.2821C13.4338 12.2821 14.0399 11.676 14.0399 10.9284C14.0399 10.1808 13.4338 9.57471 12.6862 9.57471C11.9386 9.57471 11.3325 10.1808 11.3325 10.9284C11.3325 11.676 11.9386 12.2821 12.6862 12.2821Z" fill="#AFADB7"/>
<path d="M17.5727 12.2821C18.3203 12.2821 18.9263 11.676 18.9263 10.9284C18.9263 10.1808 18.3203 9.57471 17.5727 9.57471C16.8251 9.57471 16.219 10.1808 16.219 10.9284C16.219 11.676 16.8251 12.2821 17.5727 12.2821Z" fill="#AFADB7"/>
</svg>
