<svg width="25" height="22" viewBox="0 0 25 22" fill="none" xmlns="http://www.w3.org/2000/svg">
<g clip-path="url(#clip0)">
<path d="M1.65081 11.0055C1.62387 8.84331 2.19166 6.71535 3.29215 4.85403C4.39263 2.99271 5.98349 1.46963 7.89093 0.451172C5.72404 1.09616 3.80837 2.39285 2.4044 4.16493C1.00042 5.937 0.17627 8.09848 0.0440023 10.3554C-0.0882655 12.6124 0.47777 14.8554 1.66514 16.7793C2.85252 18.7032 4.60361 20.2148 6.68033 21.1085C5.10007 19.9448 3.81966 18.4214 2.94505 16.6646C2.07045 14.9077 1.6268 12.9678 1.65081 11.0055Z" fill="#AFADB7"/>
<path d="M13.8891 1.65083C15.7361 1.653 17.5411 2.20257 19.076 3.2301C20.6108 4.25764 21.8067 5.71703 22.5126 7.42391C23.2184 9.13079 23.4025 11.0086 23.0416 12.8201C22.6808 14.6315 21.7911 16.2954 20.485 17.6015C19.1789 18.9075 17.5151 19.7972 15.7036 20.1581C13.8921 20.519 12.0143 20.3349 10.3075 19.629C8.60058 18.9232 7.14118 17.7273 6.11365 16.1924C5.08612 14.6576 4.53655 12.8526 4.53438 11.0055C4.53438 8.52449 5.51995 6.14509 7.2743 4.39075C9.02864 2.6364 11.408 1.65083 13.8891 1.65083ZM13.8891 0C11.7124 0 9.58457 0.645461 7.77472 1.85476C5.96488 3.06406 4.55427 4.78289 3.72129 6.79388C2.88831 8.80487 2.67037 11.0177 3.09502 13.1526C3.51967 15.2874 4.56784 17.2484 6.10699 18.7876C7.64613 20.3267 9.60713 21.3749 11.742 21.7995C13.8768 22.2242 16.0897 22.0062 18.1007 21.1733C20.1117 20.3403 21.8305 18.9297 23.0398 17.1198C24.2491 15.31 24.8946 13.1822 24.8946 11.0055C24.8946 9.56024 24.6099 8.12913 24.0568 6.79388C23.5037 5.45863 22.6931 4.24539 21.6711 3.22344C20.6492 2.20148 19.4359 1.39082 18.1007 0.837744C16.7654 0.284666 15.3343 0 13.8891 0V0Z" fill="#AFADB7"/>
<path d="M17.2235 16.1453H11.1925C10.8961 16.1468 10.6043 16.0711 10.3461 15.9255C10.0878 15.78 9.87195 15.5696 9.71975 15.3152C9.56756 15.0608 9.48429 14.7711 9.47815 14.4748C9.47201 14.1784 9.54322 13.8855 9.68476 13.625L11.6217 10.0482C11.8845 9.56149 12.0207 9.01654 12.0179 8.46343V7.56098H11.1925C10.9736 7.56098 10.7637 7.47402 10.6089 7.31922C10.4541 7.16443 10.3671 6.95448 10.3671 6.73557C10.3671 6.51666 10.4541 6.30671 10.6089 6.15191C10.7637 5.99712 10.9736 5.91016 11.1925 5.91016H17.2125C17.4314 5.91016 17.6414 5.99712 17.7962 6.15191C17.951 6.30671 18.0379 6.51666 18.0379 6.73557C18.0379 6.95448 17.951 7.16443 17.7962 7.31922C17.6414 7.47402 17.4314 7.56098 17.2125 7.56098H16.4311V8.51846C16.4284 9.07157 16.5646 9.61652 16.8273 10.1033L18.7093 13.625C18.8504 13.8847 18.9216 14.1765 18.9159 14.472C18.9103 14.7675 18.828 15.0564 18.6771 15.3105C18.5262 15.5646 18.3119 15.7751 18.0551 15.9214C17.7984 16.0678 17.508 16.1449 17.2125 16.1453H17.2235ZM15.9909 14.4944H17.2235L15.3306 10.8296C14.9391 10.1024 14.7349 9.28926 14.7363 8.46343V7.56098H13.6357V8.46343C13.6371 9.28926 13.4329 10.1024 13.0414 10.8296L11.1045 14.4064L15.9909 14.4944Z" fill="#AFADB7"/>
<path d="M16.3652 10.1802H12.051V11.831H16.3652V10.1802Z" fill="#AFADB7"/>
</g>
<defs>
<clipPath id="clip0">
<rect width="24.8834" height="22" fill="white"/>
</clipPath>
</defs>
</svg>
