<svg width="32" height="32" viewBox="0 0 32 32" fill="none" xmlns="http://www.w3.org/2000/svg">
<path d="M29 22V29H22M10 29H3V22M22 3H28.992V10M10 3H3V10" stroke="#AAA8B4" stroke-width="1.6" stroke-linecap="round" stroke-linejoin="round"/>
<g clip-path="url(#clip0_21900_96340)">
<g clip-path="url(#clip1_21900_96340)">
<path d="M21.1583 14.3894C21.1583 14.3894 22.0694 10.5615 21.1583 9.26377C20.2472 7.96819 19.8849 7.10447 17.8815 6.48613C15.8781 5.86779 16.6081 5.99102 15.1514 6.05427C13.6936 6.11752 12.4802 6.91908 12.4802 7.35203C12.4802 7.35203 11.5691 7.4131 11.2068 7.78389C10.8423 8.15467 10.2356 9.88211 10.2356 10.314C10.2356 10.7458 10.539 13.6511 10.8423 14.2672L10.4811 14.3915C10.1767 17.9718 11.6923 18.4048 11.6923 18.4048C12.239 21.7397 12.7857 20.3198 12.7857 21.1835C12.7857 22.0472 12.239 21.7397 12.239 21.7397C12.239 21.7397 11.7545 23.0974 10.5411 23.5914C9.32773 24.0844 2.59192 26.7388 2.04418 27.2949C1.49537 27.8511 1.55754 30.4445 1.55754 30.4445H30.442C30.442 30.4445 30.5063 27.8522 29.9575 27.2949C29.4108 26.7388 22.6739 24.0844 21.4606 23.5914C20.2472 23.0974 19.7627 21.7397 19.7627 21.7397C19.7627 21.7397 19.216 22.0472 19.216 21.1835C19.216 20.3198 19.7627 21.7397 20.3093 18.4048C20.3093 18.4048 21.8239 17.9718 21.5206 14.3915H21.1561L21.1583 14.3894Z" fill="#AAA8B4"/>
</g>
</g>
<defs>
<clipPath id="clip0_21900_96340">
<rect width="20" height="20" fill="white" transform="translate(6 6)"/>
</clipPath>
<clipPath id="clip1_21900_96340">
<rect width="28.3333" height="28.3333" fill="white" transform="translate(1.83325 4.33334)"/>
</clipPath>
</defs>
</svg>
