<svg width="400" height="134" viewBox="0 0 400 134" fill="none" xmlns="http://www.w3.org/2000/svg">
<path d="M400 0H0V134H200H400V0Z" fill="#B31B1B"/>
<path d="M94.494 97.643C89.4924 102.548 84.1358 105 78.4244 105C73.5579 105 69.6039 103.491 66.5623 100.473C63.5208 97.454 62 93.544 62 88.743C62 82.501 64.4501 77.699 69.3504 74.338C74.2845 70.942 81.3308 69.244 90.4893 69.244H94.494V64.1C94.494 58.235 91.199 55.302 84.609 55.302C78.7624 55.302 72.8482 56.983 66.8665 60.344V49.849C73.6593 47.242 80.3846 45.939 87.0422 45.939C101.608 45.939 108.891 51.821 108.891 63.585V88.588C108.891 93.013 110.293 95.225 113.098 95.225C113.605 95.225 114.264 95.156 115.075 95.019L115.43 103.559C112.253 104.52 109.448 105 107.015 105C100.864 105 96.9104 102.548 95.153 97.643H94.494ZM94.494 89.463V77.99H90.9456C81.2463 77.99 76.3967 81.077 76.3967 87.251C76.3967 89.343 77.0895 91.109 78.4751 92.55C79.8945 93.956 81.635 94.659 83.6965 94.659C87.2112 94.659 90.8104 92.927 94.494 89.463Z" fill="white"/>
<path d="M130.332 103.714V47.225H145.337V57.875C149.223 49.917 155.137 45.939 163.079 45.939C164.026 45.939 164.955 46.042 165.867 46.248V59.83C163.738 59.041 161.761 58.646 159.936 58.646C153.955 58.646 149.088 61.716 145.337 67.855V103.714H130.332Z" fill="white"/>
<path d="M172.76 103.714L196.788 66.209L173.824 27.572H192.023L207.281 53.193L223.807 27.572H236.43L213.415 63.482L237.241 103.714H219.093L202.82 76.498L185.382 103.714H172.76Z" fill="white"/>
<path d="M250.976 103.714V47.225H265.981V103.714H250.976ZM250.976 37.707V25H265.981V37.707H250.976Z" fill="white"/>
<path d="M300.552 103.714L279.312 47.2251H295.128L310.69 87.9711L326.152 47.2251H337L315.557 103.714H300.552Z" fill="white"/>
</svg>
