<svg data-name="Ebene 1" xmlns="http://www.w3.org/2000/svg" viewBox="0 0 150 19.23"><path d="M10.25 17.49a39.65 39.65 0 01-4-6.1H4.19v4.45c0 1.65.38 2 1.1 2.1l1.38.19v.77c-.66 0-2.21-.08-3.41-.08s-2.5.05-3.22.08v-.77l1-.19c.69-.13 1.09-.45 1.09-2.1V5.3C2.1 3.61 1.7 3.32 1 3.19l-1-.18v-.78h2.8c1.07 0 2.42-.08 4-.08 3 0 5.35 1.38 5.35 4.37a4.89 4.89 0 01-3.75 4.55 32 32 0 004 5.65 3.91 3.91 0 002.61 1.41v.69a3.35 3.35 0 01-1.23.21 4.52 4.52 0 01-3.53-1.54zM9.88 6.68c0-2.13-1.33-3.3-3.57-3.3H4.15v6.69c.62.05 1 .08 1.92.08 2.37.05 3.81-1.37 3.81-3.47zm5.57 5.93c0-4.05 2.42-7 5.88-7a4.73 4.73 0 014.9 5 6.05 6.05 0 01-.05.95h-8.6a7 7 0 000 .78C17.55 15.2 19 17.61 22 17.61a7.71 7.71 0 003.52-.75l.08.67c-.51.83-2.19 1.65-4.1 1.65-3.95-.01-6.05-2.57-6.05-6.57zm8-2.08c.45 0 .61-.21.61-.59a2.92 2.92 0 00-2.83-3.23c-2.24 0-3.36 2-3.57 3.78zm4.91 8.08a31.27 31.27 0 00-.07-3.49h1c.24 1.89.8 2.93 3.06 2.93 1.68 0 2.85-.93 2.85-2.42 0-3.33-6.68-1.71-6.68-6.53 0-2.13 1.92-3.51 4.5-3.51a10.27 10.27 0 013.54.69 22.8 22.8 0 00.05 3h-1a2.42 2.42 0 00-2.72-2.67c-1.6 0-2.63.69-2.63 2.05 0 3.09 6.71 1.81 6.71 6.58 0 2.13-1.95 3.91-4.61 3.91a12.84 12.84 0 01-4-.54zm10.98-6c0-4.05 2.42-7 5.88-7a4.73 4.73 0 014.9 5 6.05 6.05 0 010 .95h-8.6a7 7 0 000 .78c0 2.87 1.44 5.27 4.42 5.27a7.71 7.71 0 003.52-.75l.08.67c-.51.83-2.19 1.65-4.1 1.65-4-.01-6.1-2.57-6.1-6.57zm8-2.08c.45 0 .61-.21.61-.59a2.92 2.92 0 00-2.83-3.23c-2.24 0-3.36 2-3.57 3.78zm4.25 5.34c0-2.5 2.21-4.1 5.62-4.1h1.44v-1.52c0-2.05-.91-3.14-3-3.14a6.06 6.06 0 00-3 .72l-.14-.78a5.36 5.36 0 013.65-1.51c3 0 4.5 1.65 4.5 4.23 0 2.08-.1 4.1-.1 6.5 0 1.3.48 1.68 2.1 1.68v.74a4.07 4.07 0 01-2 .48 1.75 1.75 0 01-1.95-1.81h-.05a4.45 4.45 0 01-3.54 1.81 3.26 3.26 0 01-3.53-3.3zm6.95.58c0-.95.05-2.95.08-3.51h-1c-2.74 0-4 1-4 2.61a2 2 0 002.18 2.06 3.65 3.65 0 002.74-1.16zm6.1 1.66l.88-.14c.61-.1.88-.26.88-2.13v-6.5c0-1.35 0-1.67-1.73-2v-.66a26.12 26.12 0 003.7-1.28v2a5 5 0 013.35-1.86 4.46 4.46 0 011.15.15l-.21 1.84a4 4 0 00-1.47-.24 4.66 4.66 0 00-2.82 1v7.54c0 1.87.29 2.05.88 2.13l1.22.14v.74c-.66 0-2.1-.1-3.11-.1s-2 .07-2.72.1zm9.27-5.5c0-4 2.9-7 6.39-7a10.54 10.54 0 013.54.63c-.08.88-.1 2.16-.1 3h-1c-.08-1.52-.69-2.53-2.58-2.53C77.88 6.68 76 8.76 76 12.3s1.93 5.31 4.7 5.31a5.56 5.56 0 003.09-.83l.13.7A4.74 4.74 0 0180 19.17c-3.83 0-6.09-2.56-6.09-6.56zM86 18.11l.88-.14c.61-.1.88-.26.88-2.13V4.1c0-1.36 0-1.68-1.73-2v-.67A20.18 20.18 0 0089.73 0v7.27a6.17 6.17 0 013.81-1.73c3.14 0 4 1.86 4 4.55v5.75c0 1.87.29 2 .87 2.13l.88.14v.74c-.66 0-1.75-.08-2.77-.08s-2 .05-2.71.08v-.74l.88-.14c.61-.1.87-.26.87-2.13v-5.46c0-2-.53-3.27-2.79-3.27a6 6 0 00-3.09 1v7.69c0 1.87.29 2 .88 2.13l.88.14v.74c-.67 0-1.76-.08-2.77-.08s-2 .05-2.72.08zm15.15-7.35c0-5 3.39-8.85 8.26-8.85a13.67 13.67 0 014.71.8c0 1.23.06 2.4.16 3.81h-1a3.53 3.53 0 00-3.89-3.46c-3.6 0-5.89 3.09-5.89 7.51s2.27 7.51 5.86 7.51a6.74 6.74 0 003.17-.61v-3c0-1.65-.4-2-1.09-2.11l-1-.18v-.78c.66 0 1.73.08 3.22.08 1.2 0 2.08 0 2.74-.08v.78l-.82.16c-.75.16-1 .58-1 2.1v3.89a17.11 17.11 0 01-5.51.9c-4.93-.01-7.92-3.41-7.92-8.47zM118 15.87c0-2.5 2.21-4.1 5.62-4.1h1.43v-1.52c0-2.05-.9-3.14-3-3.14a6.06 6.06 0 00-3 .72l-.14-.78a5.36 5.36 0 013.65-1.51c3 0 4.5 1.65 4.5 4.23 0 2.08-.1 4.1-.1 6.5 0 1.3.48 1.68 2.1 1.68v.74a4.07 4.07 0 01-2 .48 1.75 1.75 0 01-2-1.81 4.45 4.45 0 01-3.54 1.81 3.26 3.26 0 01-3.52-3.3zm7 .58c0-.95 0-2.95.08-3.51h-1c-2.74 0-4 1-4 2.61a2 2 0 002.11 2.06 3.66 3.66 0 002.75-1.16zm7.08-.42V7.11h-1.63v-.86a4.94 4.94 0 002.74-3.51h.86v3.11h3.86v1.26h-3.86v8.5c0 1.59.48 2.26 1.78 2.26a6.83 6.83 0 001.95-.32l.1.53a3.74 3.74 0 01-2.9 1.12c-2.16-.03-2.9-.99-2.9-3.17zm7.13-3.42c0-4.05 2.43-7 5.89-7a4.74 4.74 0 014.9 5 6.05 6.05 0 01-.05.95h-8.61v.78c0 2.87 1.44 5.27 4.42 5.27a7.66 7.66 0 003.51-.75l.08.67c-.5.83-2.18 1.65-4.1 1.65-3.93-.01-6.04-2.57-6.04-6.57zm8-2.08c.45 0 .61-.21.61-.59A2.92 2.92 0 00145 6.71c-2.23 0-3.35 2-3.57 3.78z" fill="#40ba9b"/></svg>