<svg width="1010" height="279" viewBox="0 0 1010 279" fill="none" xmlns="http://www.w3.org/2000/svg">
<path fill-rule="evenodd" clip-rule="evenodd" d="M25.8901 257.616L14.4451 275.556H2.28514L0.140137 185.856H8.72314C23.7431 226.759 45.9161 265.509 90.2631 265.509C121.733 265.509 137.469 246.134 137.469 217.431C137.469 193.75 126.025 176.528 102.422 166.481C82.3951 157.871 68.8051 152.847 48.7771 143.519C22.3131 131.319 6.57714 109.792 6.57714 76.065C6.57714 35.162 38.0491 5.02302 80.2491 5.02302C98.1301 5.02302 121.019 12.917 133.893 23.681L144.622 6.45802H157.497L159.642 94.005H151.059C136.754 50.231 119.588 17.222 73.0961 17.222C63.0831 17.222 37.3331 26.551 37.3331 56.69C37.3331 80.37 47.3471 93.287 68.8051 106.204C85.9711 116.25 103.852 121.274 119.588 129.167C148.198 143.519 169.656 159.306 169.656 198.773C169.656 245.417 134.608 278.426 87.4011 278.426C57.3611 276.273 36.6181 266.944 25.8891 257.616H25.8901ZM178.24 183.704C178.24 136.343 208.28 92.569 256.202 92.569C291.965 92.569 309.846 113.379 309.846 137.06C309.846 149.977 302.694 158.588 290.534 158.588C283.382 158.588 269.792 154.282 269.792 139.213C269.792 123.426 274.084 122.708 274.084 115.533C271.938 104.051 266.931 101.898 255.487 101.898C234.744 101.898 215.432 121.991 215.432 180.116C215.432 226.759 231.883 259.051 261.924 259.051C285.528 259.051 299.833 246.851 310.562 224.606L318.43 230.347C305.555 255.463 281.236 276.273 254.056 276.273C203.273 276.273 178.239 236.806 178.239 183.703L178.24 183.704ZM339.172 25.116C339.172 12.199 349.186 0.718018 362.06 0.718018C376.365 0.718018 385.664 10.764 385.664 23.681C385.664 37.315 375.65 48.796 362.06 48.796C349.186 48.796 339.172 38.032 339.172 25.116ZM322.722 263.356C328.443 262.639 333.45 261.921 338.457 260.486C344.894 258.333 347.755 251.157 347.755 243.264V132.754C347.04 124.861 344.179 117.685 338.457 113.38C334.165 110.51 323.437 106.204 317.714 106.204V99.028L379.942 94.722L382.087 97.592V241.112C382.087 249.005 385.664 255.463 391.386 259.051C396.393 261.921 402.83 263.356 407.121 263.356V271.25H323.436V263.356H322.721H322.722ZM507.973 160.74C507.973 132.755 502.966 101.898 478.647 101.898C457.905 101.898 442.884 125.578 442.169 162.176L507.973 160.741V160.74ZM404.976 182.986C404.976 137.06 432.156 92.569 478.647 92.569C526.569 92.569 544.451 127.014 544.451 166.481V170.069H442.169V174.375C442.169 223.889 456.474 259.051 492.237 259.051C517.987 259.051 527.285 248.287 540.159 224.606L547.312 228.912C535.152 256.181 511.549 275.556 482.939 275.556C430.009 276.273 404.976 233.936 404.976 182.986V182.986Z" fill="black"/>
<path fill-rule="evenodd" clip-rule="evenodd" d="M546.597 263.356C552.319 262.639 557.326 261.921 562.332 260.486C568.77 258.333 571.631 251.875 571.631 243.264V132.754C570.915 124.861 568.054 116.968 562.332 112.662C558.756 109.792 550.888 106.922 545.166 106.204V99.0281L603.102 94.7221L605.963 97.5921V123.426H606.678C620.268 109.074 633.143 91.8521 661.753 91.8521C693.224 91.8521 708.245 116.25 708.245 152.847V241.829C708.245 250.439 711.105 256.181 716.828 259.051C721.835 261.204 726.126 262.639 732.564 263.356V271.25H648.164V263.356C653.885 262.639 659.607 261.921 663.899 260.486C670.336 258.333 673.197 251.875 673.197 243.264V152.13C673.197 125.579 660.323 111.227 646.017 111.227C622.414 111.227 608.824 127.014 605.247 136.343V241.11C605.247 249.721 608.109 255.462 613.831 258.332C618.122 261.202 624.56 262.638 629.567 262.638V270.531H545.88V263.355H546.596L546.597 263.356ZM726.126 183.704C726.126 136.343 756.167 92.5691 804.089 92.5691C839.852 92.5691 857.734 113.379 857.734 137.06C857.734 149.977 850.581 158.588 838.422 158.588C831.269 158.588 817.679 154.282 817.679 139.213C817.679 123.426 821.971 122.708 821.971 115.533C819.825 104.051 814.818 101.898 803.374 101.898C782.632 101.898 763.32 121.991 763.32 180.116C763.32 226.759 779.77 259.051 809.811 259.051C833.415 259.051 847.721 246.851 858.449 224.606L866.317 230.347C853.442 255.463 829.123 276.273 801.944 276.273C751.16 276.273 726.126 236.806 726.126 183.703V183.704ZM970.03 160.74C970.03 132.755 965.022 101.898 940.704 101.898C919.961 101.898 904.941 125.578 904.225 162.176L970.029 160.741L970.03 160.74ZM867.032 182.986C867.032 137.06 894.212 92.5691 940.704 92.5691C988.626 92.5691 1006.51 127.014 1006.51 166.481V170.069H904.225V174.375C904.225 223.889 918.531 259.051 954.293 259.051C980.043 259.051 989.341 248.287 1002.22 224.606L1009.37 228.912C997.208 256.181 973.605 275.556 944.995 275.556C891.351 276.273 867.032 233.936 867.032 182.986V182.986Z" fill="black"/>
</svg>
