<?xml version="1.0" encoding="utf-8"?>
<!-- Generator: Adobe Illustrator 15.0.0, SVG Export Plug-In . SVG Version: 6.00 Build 0)  -->
<!DOCTYPE svg PUBLIC "-//W3C//DTD SVG 1.1//EN" "http://www.w3.org/Graphics/SVG/1.1/DTD/svg11.dtd">
<svg version="1.1" id="Layer_1" xmlns="http://www.w3.org/2000/svg" xmlns:xlink="http://www.w3.org/1999/xlink" x="0px" y="0px"
	 width="255.93px" height="28px" viewBox="0 0 520.143 56.628" enable-background="new 0 0 520.143 56.628"
	 xml:space="preserve">
<g>
	<path fill="#231F20" d="M69.486,28.432v20.956c0,2.687,1.302,4.763,2.798,6.271H58.358c1.456-1.508,2.724-3.584,2.724-6.271V7.785
		c0-2.689-1.19-4.914-2.724-6.512h13.926c-1.574,1.598-2.798,4.024-2.798,6.512v17.18h28.658V7.785c0-2.778-1.022-4.914-2.647-6.512
		h13.709c-1.629,1.598-2.654,3.879-2.654,6.512v41.603c0,2.535,1.133,4.763,2.693,6.271H95.417c1.627-1.508,2.728-3.735,2.728-6.423
		V28.432H69.486z"/>
	<path fill="#231F20" d="M158.19,55.658h-36.109c1.561-1.508,2.723-3.636,2.723-6.271V7.785c0-2.487-1.141-4.914-2.617-6.512h37.266
		l-2.177,5.65c-1.812-1.656-3.613-2.189-6.522-2.189h-17.547v20.209c5.083,0,10.473-0.008,16.383-0.008
		c2.014,0,4.071-0.275,6.332-1.031l-2.561,6.175c-1.655-1.506-3.357-1.686-6.338-1.686h-13.816v23.7
		c3.486,0,4.756,0.029,8.307,0.029c1.68,0,14.556-0.042,19.824-3.807L158.19,55.658z"/>
	<path fill="#231F20" d="M460.025,55.658h-36.111c1.555-1.508,2.723-3.636,2.723-6.271V7.785c0-2.487-1.129-4.914-2.613-6.512h37.26
		l-2.178,5.65c-1.801-1.656-3.602-2.189-6.52-2.189h-17.543v20.209c5.078,0,10.469-0.008,16.377-0.008
		c2.014,0,4.078-0.275,6.33-1.031l-2.557,6.175c-1.656-1.506-3.355-1.686-6.338-1.686h-13.812v23.7c3.488,0,4.754,0.029,8.309,0.029
		c1.67,0,14.553-0.042,19.82-3.807L460.025,55.658z"/>
	<path fill="#231F20" d="M204.575,7.721v17.223v3.45v23.7c3.576,0,5.715,0.029,9.268,0.029c1.678,0,13.923-0.19,19.491-4.261
		l-3.313,7.796h-36.58c1.56-1.508,2.725-3.689,2.725-6.32V7.785c0-2.487-1.133-4.914-2.609-6.512c0.513,0,13.541,0,13.857,0
		C205.879,2.934,204.575,5.344,204.575,7.721z"/>
	<path fill="#231F20" d="M254.114,37.386c-0.945,2.269-4.566,12.084-4.566,12.084c-0.877,2.271-0.863,3.968,0.023,6.188h-9.406
		c2.189-2.269,3.881-4.611,4.67-6.423l17.187-41.776c1.354-3.119-0.381-5.658-1.529-6.186h11.256l20.357,48.114
		c0.777,1.79,2,4.05,4.512,6.271H283.43c0.934-2.167,1.021-3.923,0.049-6.188c0,0-4.607-10.621-5.191-12.084H254.114z
		 M276.943,33.909L265.877,7.948l-10.38,25.961H276.943z"/>
	<path fill="#231F20" d="M352.947,7.785v47.873h-2.408l-38.877-45.237v38.967c0,2.535,1.164,4.763,2.799,6.271h-9.393
		c1.566-1.508,2.654-3.735,2.654-6.271V8.125c0-2.353-0.531-3.26-2.053-4.956c-0.77-0.855-1.656-1.508-2.191-1.896h10.918
		l34.648,40.6V7.785c0-2.689-1.064-4.914-2.584-6.512h9.102C353.971,2.721,352.988,5.096,352.947,7.785z"/>
	<path fill="#231F20" d="M403.531,55.986c-3.16,0.44-4.266,0.642-8.211,0.642c-18.209,0-30.229-12.562-30.229-27.86
		c0-17.027,13.078-28.372,30.357-28.372c2.672,0,4.803,0.135,6.691,0.344c2.465,0.278,4.432,0.63,6.758,1.119l2.443,7.076
		c-2.729-2.611-8.146-5.413-15.904-5.413c-14.176,0-20.873,11.832-20.873,25.203c0,13.807,7.201,24.741,21.412,24.741
		c5.631,0,12.271-1.996,16.201-6.25c-1.688,4.269-2.479,6.439-2.9,7.595C407.67,55.238,406.273,55.605,403.531,55.986z"/>
	<path fill="#231F20" d="M46.053,4.734L28.091,4.712l0.038,45.981c0,2.409,1.698,4.163,2.8,4.965H17.051
		c1.313-0.946,2.649-2.477,2.649-4.965L19.688,4.728H6.924C4.653,4.728,2.028,5.344,0,6.398l2.293-5.125h39.038
		c3.012,0,5.148-0.344,7.051-1.273L46.053,4.734z"/>
	<path fill="#231F20" d="M517.809,4.734l-17.963-0.022l0.037,45.981c0,2.409,1.754,4.163,2.848,4.965h-13.828
		c1.318-0.946,2.555-2.477,2.555-4.965l-0.016-45.966h-12.768c-2.268,0-4.895,0.616-6.924,1.671l2.301-5.125h39.031
		c3.01,0,5.143-0.344,7.061-1.273L517.809,4.734z"/>
</g>
</svg>
