<svg width="734" height="570" viewBox="0 0 734 570" fill="none" xmlns="http://www.w3.org/2000/svg">
<ellipse opacity="0.1" cx="267.5" cy="555.5" rx="102.5" ry="9.5" fill="#191E56"/>
<ellipse opacity="0.1" cx="463.5" cy="541.5" rx="103.5" ry="9.5" fill="#191E56"/>
<ellipse opacity="0.1" cx="626.5" cy="497.5" rx="107.5" ry="9.5" fill="#191E56"/>
<ellipse opacity="0.1" cx="84.4689" cy="481.446" rx="81.4689" ry="9.44567" fill="#191E56"/>
<path d="M472.573 380.871C472.573 385.29 468.991 388.871 464.573 388.871H185.418C181 388.871 177.418 385.29 177.418 380.871V87.9064C177.418 83.4881 181 79.9064 185.418 79.9064H464.573C468.991 79.9064 472.573 83.4881 472.573 87.9064V380.871ZM181.779 376.306C181.779 380.725 185.361 384.306 189.779 384.306H460.212C464.63 384.306 468.212 380.725 468.212 376.306V92.4713C468.212 88.053 464.63 84.4713 460.212 84.4713H189.779C185.361 84.4713 181.779 88.053 181.779 92.4713V376.306Z" fill="#E8EDF5"/>
<path d="M471.073 380.871C471.073 384.461 468.163 387.371 464.573 387.371H185.418C181.828 387.371 178.918 384.461 178.918 380.871V87.9064C178.918 84.3165 181.828 81.4064 185.418 81.4064H464.573C468.163 81.4064 471.073 84.3165 471.073 87.9064V380.871Z" fill="white" stroke="#F1F5FF" stroke-width="3"/>
<path d="M427.57 212.721H238.277V219.716H427.57V212.721Z" fill="#8ABAFA"/>
<path d="M427.57 230.907H238.277V237.902H427.57V230.907Z" fill="#8ABAFA"/>
<path d="M427.57 249.104H238.277V256.099H427.57V249.104Z" fill="#8ABAFA"/>
<path d="M226.778 221.801C229.186 221.801 231.138 219.757 231.138 217.237C231.138 214.716 229.186 212.673 226.778 212.673C224.37 212.673 222.418 214.716 222.418 217.237C222.418 219.757 224.37 221.801 226.778 221.801Z" fill="#8ABAFA"/>
<path d="M427.57 134.363H238.277V141.358H427.57V134.363Z" fill="#E8EDF5"/>
<path d="M427.57 152.549H238.277V159.544H427.57V152.549Z" fill="#E8EDF5"/>
<path d="M427.57 170.734H238.277V177.729H427.57V170.734Z" fill="#E8EDF5"/>
<path d="M226.778 142.686C229.186 142.686 231.138 140.643 231.138 138.122C231.138 135.602 229.186 133.558 226.778 133.558C224.37 133.558 222.418 135.602 222.418 138.122C222.418 140.643 224.37 142.686 226.778 142.686Z" fill="#E8EDF5"/>
<path d="M427.57 291.838H238.277V298.832H427.57V291.838Z" fill="#E8EDF5"/>
<path d="M427.57 310.035H238.277V317.029H427.57V310.035Z" fill="#E8EDF5"/>
<path d="M427.57 328.219H238.277V335.214H427.57V328.219Z" fill="#E8EDF5"/>
<path d="M226.778 300.184C229.186 300.184 231.138 298.14 231.138 295.62C231.138 293.099 229.186 291.056 226.778 291.056C224.37 291.056 222.418 293.099 222.418 295.62C222.418 298.14 224.37 300.184 226.778 300.184Z" fill="#E5E5E5"/>
<path d="M614.327 266.822H442.591C440.018 266.815 437.933 262.35 437.93 256.838V123.097C437.93 117.586 440.018 113.123 442.591 113.113H614.327C616.9 113.12 618.986 117.585 618.989 123.097V256.837C618.986 262.348 616.897 266.815 614.327 266.822Z" fill="white"/>
<path d="M614.327 266.822H442.591C440.018 266.815 437.933 262.35 437.93 256.838V123.097C437.93 117.586 440.018 113.123 442.591 113.113H614.327C616.9 113.12 618.986 117.585 618.989 123.097V256.837C618.986 262.348 616.897 266.815 614.327 266.822ZM442.591 117.107C441.047 117.107 439.796 119.791 439.794 123.097V256.837C439.794 260.143 441.047 262.824 442.591 262.827H614.327C615.872 262.827 617.123 260.144 617.125 256.837V123.097C617.125 119.791 615.872 117.11 614.327 117.107L442.591 117.107Z" fill="#E8EDF5"/>
<path d="M551.712 222.162H505.484V225.799H551.712V222.162Z" fill="#8ABAFA"/>
<path d="M557.478 231.616H499.301V235.253H557.478V231.616Z" fill="#8ABAFA"/>
<path d="M558.641 176.28C558.639 181.746 557.283 187.119 554.704 191.873C552.126 196.627 548.415 200.599 543.932 203.403C539.448 206.206 534.347 207.745 529.127 207.868C523.906 207.991 518.744 206.695 514.145 204.106L514.139 204.1C509.441 201.451 505.498 197.545 502.711 192.781C499.925 188.017 498.395 182.565 498.277 176.98C498.159 171.396 499.457 165.878 502.04 160.99C504.622 156.102 508.397 152.017 512.978 149.153C517.56 146.289 522.785 144.748 528.121 144.686C533.457 144.624 538.713 146.044 543.354 148.801C547.995 151.558 551.855 155.554 554.54 160.381C557.225 165.208 558.64 170.694 558.641 176.28Z" fill="#E8EDF5"/>
<path fill-rule="evenodd" clip-rule="evenodd" d="M530.891 174.582L538.539 187.217C539.106 188.162 539.215 188.972 538.866 189.646C538.516 190.321 537.804 190.658 536.73 190.658H519.215C518.141 190.658 517.429 190.321 517.079 189.646C516.729 188.972 516.838 188.162 517.406 187.216L525.053 174.582V168.224L525.077 166.312H530.873L530.891 168.224V174.582ZM526.698 175.68L523.074 181.26H532.88L529.251 175.68L528.947 175.186V174.597V168.241H527.002V174.597V175.186L526.698 175.68Z" fill="white"/>
<rect x="521.324" y="159.608" width="3.59563" height="3.76817" rx="0.803543" fill="white"/>
<rect x="530.32" y="159.608" width="3.59563" height="3.76817" rx="0.803543" fill="white"/>
<rect x="526.711" y="154.881" width="2.69672" height="2.82613" rx="0.602657" fill="white"/>
<rect x="523.074" y="166.08" width="9.80623" height="2.33297" rx="0.48561" fill="white"/>
<path d="M713.911 497.11C713.64 496.322 705.2 472.698 705.2 472.698H683.465C683.465 472.698 675.869 483.202 666.406 485.692C657.224 488.097 650.109 497.141 650.109 497.141L713.911 497.11Z" fill="#428DFC"/>
<path d="M631.138 495.936C630.867 495.148 622.448 471.513 622.448 471.513L591.34 468.362C591.34 468.362 588.47 481.23 578.967 483.709C569.786 486.104 567.297 495.925 567.297 495.925L631.138 495.936Z" fill="#428DFC"/>
<path d="M587.832 476.806C587.832 474.159 590.351 349.777 590.351 349.777L607.801 272.759L650.058 355.334L629.446 362.519C629.446 362.519 630.45 385.691 630.45 392.75C630.45 399.809 621.418 423.454 621.418 423.454C621.418 423.454 626.255 447.152 626.255 455.146C626.255 463.139 623.576 475.377 623.576 475.377L587.832 476.806Z" fill="#191E56"/>
<path d="M544.761 213.235C544.55 212.398 541.638 208.277 536.575 208.277C531.512 208.276 523.228 199.991 521.5 202.72C520.988 203.529 522.343 203.77 522.865 204.569C524.982 205.619 526.983 210.655 528.137 211.81C531.659 215.245 530.973 214.117 535.158 216.575C539.854 219.327 557.906 236.176 557.967 235.536C558.368 233.76 567.73 225.725 566.356 224.107C564.901 222.279 545.523 215.871 544.761 213.235Z" fill="#A0616A"/>
<path d="M612.383 195.204C613.133 197.377 613.625 199.638 613.848 201.937C614.019 207.389 615.093 214.752 611.47 218.66C615.544 217.389 614.711 216.885 618.555 214.983C620.266 213.963 621.918 212.837 623.502 211.611C626.512 209.668 629.934 208.723 633.025 207C636.115 205.277 629.482 209.416 629.653 205.75C628.308 204.269 632.413 198.723 630.656 197.83C628.9 196.937 630.596 193.355 629.262 191.653C627.679 189.772 626.293 187.719 625.127 185.529C623.962 183.321 623.492 180.785 623.783 178.281C620.351 178.933 617.862 182.063 614.611 183.407C613.346 183.933 611.982 184.164 610.758 184.762C609.001 185.603 605.449 184.311 605.379 186.559C605.429 189.038 611.5 193.04 612.383 195.204Z" fill="#A0616A"/>
<path d="M607.805 283.059C609.38 285.065 633.464 371.851 633.464 371.851L676.934 476.79L705.614 475.214C705.614 475.214 706.527 444.121 698.509 429.457C690.491 414.793 681.952 402.146 681.952 402.146C681.952 402.146 679.614 379.436 675.108 368.322C670.602 357.208 663.116 347.639 660.558 336.809C657.999 325.979 659.554 291.588 651.024 274.329C642.495 257.071 607.805 283.059 607.805 283.059Z" fill="#23286B"/>
<path d="M597.12 286.65C601.877 290.536 659.015 286.292 665.819 274.391C672.622 262.49 632.634 188.508 626.281 188.907C619.929 189.306 612.413 195.209 612.413 195.209C612.413 195.209 592.364 282.773 597.12 286.65Z" fill="url(#paint0_linear_2816_29650)"/>
<path d="M567.572 222.091L539.555 261.471C539.555 261.471 577.416 282.186 590.351 283.1C603.286 284.014 632.336 278.026 639.441 258.719C643.694 247.26 646.422 235.242 647.549 223.005L623.626 203.257C623.626 203.257 613.27 228.877 600.727 233.593C588.183 238.309 567.572 222.091 567.572 222.091Z" fill="#A1C3FC"/>
<path d="M587.938 173.715C587.938 175.522 587.014 179.629 587.938 181.068C588.138 181.383 591.079 181.373 591.299 181.667C595.664 187.549 603.833 190.333 612.011 188.064C622.518 185.154 629.07 175.007 626.642 165.406C624.213 155.805 613.727 150.375 603.221 153.284C592.714 156.194 587.938 163.347 587.938 173.715Z" fill="#A0616A"/>
<path d="M576.246 145.576C578.855 138.927 628.317 146.878 628.317 146.878C628.317 146.878 631.568 148.149 632.331 149.851C639.355 166.595 628.246 180.482 623.942 182.982C622.805 183.689 621.451 183.911 620.162 183.602C618.873 183.293 617.747 182.477 617.017 181.322C617.017 181.322 623.038 175.744 621.332 172.54C619.627 169.337 612.482 173.843 607.836 172.782C603.189 171.721 598.533 166.479 598.533 166.479C598.533 166.479 580.109 175.734 576.246 145.576Z" fill="#23286B"/>
<path d="M203.3 532.296C203.3 532.296 205.932 548.924 219.279 551.384C232.626 553.844 277.179 553.352 277.179 553.352C277.179 553.352 302.651 549.514 311.863 526.983C321.074 504.451 326.995 495.498 319.1 495.104C311.205 494.711 268.626 510.158 266.182 510.355C263.738 510.552 200.95 476.115 203.3 532.296Z" fill="#65617D"/>
<path opacity="0.7" d="M203.3 532.296C203.3 532.296 205.932 548.924 219.279 551.384C232.626 553.844 277.179 553.352 277.179 553.352C277.179 553.352 302.651 549.514 311.863 526.983C321.074 504.451 326.995 495.498 319.1 495.104C311.205 494.711 268.626 510.158 266.182 510.355C263.738 510.552 200.95 476.115 203.3 532.296Z" fill="url(#paint1_linear_2816_29650)"/>
<path d="M322.796 550.828C322.796 550.828 321.468 554.494 317.808 554.757C317.271 554.796 316.731 554.766 316.201 554.666C311.314 553.78 299.846 551.714 295.805 552.502C293.375 552.974 288.877 552.275 285.674 551.64C283.545 551.221 281.988 550.828 281.988 550.828C281.988 550.828 285.747 537.743 286.218 537.348C286.686 536.955 303.137 526.624 303.137 526.624L316.161 525.644L316.201 525.641C317.953 525.916 319.535 526.889 320.617 528.357C321.993 530.098 323.171 532.958 323.25 537.643C323.439 549.155 322.796 550.828 322.796 550.828Z" fill="#191E56"/>
<path opacity="0.05" d="M322.796 550.828C322.796 550.828 321.468 554.494 317.808 554.757C319.087 553.029 320.269 551.224 321.347 549.352L321.277 539.809C321.542 537.194 321.217 534.55 320.329 532.09C319.441 529.63 318.013 527.422 316.161 525.644L316.201 525.641C316.201 525.641 323.062 526.131 323.25 537.643C323.439 549.155 322.796 550.828 322.796 550.828Z" fill="black"/>
<path opacity="0.1" d="M266.283 529.963L254.158 520.028L235.076 500.349C235.076 500.349 237.138 500.245 240.248 500.104C241.02 500.62 243.189 502.244 243.268 504.215C243.361 506.621 248.425 504.384 251.056 505.759C253.687 507.138 266.565 524.387 268.821 524.275C271.077 524.16 272.862 523.077 273.803 524.751C273.823 524.789 273.849 524.824 273.871 524.86L266.283 529.963Z" fill="black"/>
<path opacity="0.1" d="M320.586 528.357C320.155 528.575 319.717 528.785 319.272 528.985C310.06 533.118 298.687 541.775 297.841 543.352C297.325 544.308 290.733 548.499 285.643 551.64C283.514 551.221 281.957 550.828 281.957 550.828C281.957 550.828 285.716 537.743 286.187 537.348C286.655 536.955 303.106 526.624 303.106 526.624L316.131 525.644L316.17 525.641C317.922 525.916 319.504 526.889 320.586 528.357Z" fill="black"/>
<path d="M346.159 500.129C344.938 503.279 334.694 515.381 334.694 515.381C334.694 515.381 328.208 524.236 318.996 528.369C309.783 532.501 298.411 541.159 297.565 542.735C297.021 543.747 289.681 548.375 284.507 551.555C284.106 551.8 283.72 552.039 283.348 552.263C282.335 552.88 281.453 553.417 280.782 553.822C279.936 554.335 279.425 554.639 279.425 554.639C279.425 554.639 276.279 551.994 273.143 549.332C270.05 546.705 266.97 544.063 266.922 543.916C266.829 543.62 265.608 540.273 265.89 540.078C266.037 539.975 266.683 538.614 267.87 537.035C269.131 535.278 270.772 533.859 272.658 532.894C276.981 530.827 278.861 526.122 278.861 526.122C278.861 526.122 279.273 525.81 279.896 525.396C281.177 524.471 282.61 523.802 284.123 523.425C286.193 523.153 290.045 518.725 290.045 518.725C290.045 518.725 292.679 516.954 293.711 514.693C294.698 512.536 309.276 502.054 310.627 501.086L275.286 524.844L266.829 530.532L254.704 520.597L235.623 500.918C235.623 500.918 238.189 500.788 241.919 500.619C251.194 500.2 267.664 499.542 269.742 500.032C271.436 500.446 273.183 500.566 274.914 500.386C274.914 500.386 279.606 500.608 282.711 498.893C285.815 497.178 290.705 496.378 291.269 495.106C291.833 493.833 308.469 487.732 308.469 487.732C308.469 487.732 331.121 475.14 339.205 482.617C347.287 490.094 347.383 496.983 346.159 500.129Z" fill="url(#paint2_linear_2816_29650)"/>
<path d="M273.137 427.925L270.224 438.058L266.465 460.884L252.648 461.87L248.647 454.924L244.657 447.997C244.657 447.997 242.17 438.772 240.382 429.849C238.8 421.953 237.768 414.294 239.488 413.461C241.014 412.723 242.017 410.064 242.669 407.207C242.751 406.852 242.827 406.492 242.894 406.135C243.355 403.714 243.661 401.264 243.811 398.8C243.811 398.8 272.762 397.227 268.721 409.721C267.999 411.855 267.629 414.102 267.63 416.366C267.633 416.931 267.666 417.496 267.728 418.057C267.929 420.004 268.514 421.886 269.445 423.584C270.376 425.283 271.633 426.761 273.137 427.925Z" fill="#EE8E9E"/>
<path d="M279.168 426.239L278.133 443.456L275.784 458.118L273.151 464.906L270.802 502.051C270.802 502.051 248.139 504.793 242.626 502.001C242.23 501.827 241.885 501.546 241.628 501.186C234.97 490.663 237.153 460.184 237.153 460.184L234.615 440.504L236.307 430.291L240.396 429.837L243.543 429.486C243.543 429.486 244.253 430.401 245.28 431.82C248.066 435.673 253.192 443.247 252.848 446.408C252.38 450.738 253.412 455.166 255.011 455.853C256.61 456.544 257.924 457.725 258.206 456.544C258.488 455.364 258.77 455.068 258.488 453.395C258.206 451.721 259.711 446.606 259.711 446.606C259.711 446.606 262.249 440.605 262.06 438.046C261.871 435.487 262.342 432.535 263.095 431.847C263.845 431.159 264.88 430.469 264.034 427.322C263.188 424.172 267.742 418.045 267.742 418.045L279.168 426.239Z" fill="#E3E8F4"/>
<path opacity="0.1" d="M249.205 469.267L248.263 498.687C248.263 498.687 246.129 499.924 242.835 501.837C242.439 501.663 242.094 501.382 241.837 501.022C235.179 490.499 237.362 460.019 237.362 460.019L234.824 440.34L236.516 430.127L240.605 429.673C239.023 421.777 237.991 414.117 239.711 413.285C241.236 412.547 242.24 409.887 242.892 407.03L245.821 427.845C245.821 427.845 245.576 429.72 245.489 431.656C245.369 432.883 245.449 434.123 245.725 435.322C246.385 437.093 245.914 440.243 245.914 440.243C247.609 443.369 248.455 449.157 248.869 454.748C249.419 462.183 249.205 469.267 249.205 469.267Z" fill="black"/>
<path d="M242.827 406.566C242.827 406.566 238.092 407.182 236.588 409.248C235.084 411.314 231.136 411.61 231.136 411.61C231.136 411.61 226.624 413.184 226.718 413.577C226.812 413.971 225.402 414.561 222.583 415.348C219.763 416.136 215.063 418.989 215.063 419.678C215.063 420.366 207.638 428.041 207.638 428.828C207.638 429.615 205.382 432.567 205.664 437.782C205.946 442.996 206.228 449.589 205.1 450.671C203.972 451.753 205.1 455.984 205.1 455.984C205.403 456.444 205.573 456.985 205.59 457.544C205.606 458.102 205.469 458.654 205.194 459.133C204.254 460.904 205.382 468.283 205.382 468.283L205.288 475.958C205.288 475.958 206.322 480.779 205.1 480.975C203.878 481.172 205.288 483.337 205.288 483.337C205.288 483.337 206.322 487.273 205.006 489.044C203.69 490.815 203.314 498.391 203.314 498.391L183.199 528.99C183.199 528.99 182.917 534.599 189.309 534.5C195.701 534.402 195.607 535.779 195.419 537.058C195.231 538.338 197.204 539.715 197.204 539.715C197.204 539.715 199.742 541.093 198.238 542.765C196.734 544.438 192.411 548.275 199.554 550.833C200.398 549.617 201.093 548.295 201.622 546.898C202.229 545.161 202.731 543.387 203.126 541.584C203.126 541.584 203.784 534.107 205.1 533.123C206.416 532.139 206.228 527.416 206.228 527.416C206.228 527.416 204.348 523.579 206.98 522.005C209.612 520.43 247.773 498.292 247.773 498.292L248.713 468.873C248.713 468.873 249.371 447.129 245.423 439.848C245.423 439.848 245.893 436.699 245.235 434.928C244.577 433.157 245.329 427.451 245.329 427.451L242.827 406.566Z" fill="#191E56"/>
<path opacity="0.1" d="M267.455 418.366C267.455 418.366 276.905 416.328 279.443 417.705C281.98 419.083 286.962 420.165 287.714 420.952C288.466 421.739 290.346 421.149 292.038 425.773C293.73 430.398 293.918 435.12 296.079 437.285C298.241 439.45 299.369 440.926 299.463 442.5C299.557 444.074 299.181 444.468 300.027 444.96C300.873 445.452 302.095 447.518 301.719 448.305C301.343 449.092 282.168 466.409 282.168 466.409C282.168 466.409 281.228 473.001 280.383 474.674C279.537 476.346 281.323 499.37 283.202 500.944C285.082 502.518 270.513 502.373 270.513 502.373C270.513 502.373 269.855 487.268 269.291 486.481C268.727 485.694 269.667 469.557 269.667 469.557C269.667 469.557 269.761 455.783 268.539 452.142C267.318 448.502 267.455 436.4 267.455 436.4C267.455 436.4 266.375 429.137 265.062 427.446C263.749 425.755 267.455 418.366 267.455 418.366Z" fill="black"/>
<path d="M267.736 418.061C267.736 418.061 277.186 416.023 279.724 417.4C282.262 418.778 287.243 419.86 287.995 420.647C288.747 421.434 290.627 420.844 292.319 425.468C294.011 430.093 294.199 434.815 296.361 436.98C298.523 439.145 299.651 440.62 299.745 442.195C299.838 443.769 299.463 444.163 300.308 444.654C301.154 445.146 302.376 447.213 302 448C301.624 448.787 282.45 466.104 282.45 466.104C282.45 466.104 281.51 472.696 280.664 474.369C279.818 476.041 281.604 499.065 283.484 500.639C285.364 502.213 270.795 502.068 270.795 502.068C270.795 502.068 270.137 486.963 269.573 486.176C269.009 485.388 269.949 469.252 269.949 469.252C269.949 469.252 270.043 455.477 268.821 451.837C267.599 448.197 267.736 436.094 267.736 436.094C267.736 436.094 266.656 428.832 265.343 427.141C264.03 425.45 267.736 418.061 267.736 418.061Z" fill="#191E56"/>
<path d="M281.828 395.602C281.825 401.982 279.858 408.116 276.333 412.742C272.807 417.367 267.991 420.129 262.879 420.46C257.767 420.791 252.748 418.664 248.857 414.518C244.966 410.373 242.5 404.525 241.967 398.18C241.434 391.835 242.876 385.478 245.994 380.418C249.112 375.359 253.67 371.984 258.726 370.989C263.783 369.994 268.953 371.455 273.17 375.071C277.388 378.686 280.331 384.181 281.393 390.421C281.683 392.125 281.829 393.861 281.828 395.602Z" fill="#EE8E9E"/>
<path d="M296.83 446.343L302 448.015C302 448.015 301.53 449.983 303.034 450.967C303.479 451.297 303.834 451.743 304.065 452.261C304.295 452.778 304.394 453.35 304.35 453.919C304.35 453.919 304.913 456.084 306.229 456.575C307.545 457.067 308.391 460.314 308.391 460.314L312.715 465.529C312.715 465.529 314.313 466.907 314.031 467.595C313.749 468.284 315.723 468.481 315.723 468.481L314.689 485.994L305.759 487.766L300.214 487.175L295.702 485.404L291.754 482.944L289.968 478.123L282.073 465.529L296.83 446.343Z" fill="#23286B"/>
<path d="M314.415 469.843C314.415 469.843 325.882 452.526 334.435 461.873C342.989 471.22 330.957 486.373 328.138 485.881C325.318 485.389 311.877 484.602 311.877 484.602L314.415 469.843Z" fill="#EE8E9E"/>
<path d="M286.954 462.564L338.398 435.083C338.955 434.786 339.637 435.017 339.921 435.6L360.075 476.941C360.359 477.524 360.138 478.238 359.581 478.535L308.137 506.016C307.58 506.314 306.898 506.082 306.614 505.499L286.46 464.159C286.176 463.576 286.397 462.862 286.954 462.564Z" fill="#14194A"/>
<path d="M292.08 464.765L337.016 440.761L354.295 476.207L309.36 500.211L292.08 464.765Z" fill="#3D71F4"/>
<path d="M347.389 458.404C346.932 458.404 346.562 458.017 346.562 457.539C346.562 457.062 346.932 456.674 347.389 456.674C347.845 456.674 348.215 457.062 348.215 457.539C348.215 458.017 347.845 458.404 347.389 458.404Z" fill="#E6E8EC"/>
<path d="M298.771 485.051C298.018 485.051 297.408 484.413 297.408 483.625C297.408 482.838 298.018 482.199 298.771 482.199C299.523 482.199 300.133 482.838 300.133 483.625C300.133 484.413 299.523 485.051 298.771 485.051Z" fill="#E6E8EC"/>
<path d="M321.82 473.485C321.913 486.473 296.253 489.227 296.253 489.227L289.697 490.316L286.762 490.803L285.538 478.11C285.538 478.11 286.883 477.901 288.563 477.49C291.048 476.885 294.265 475.838 294.939 474.371C296.067 471.912 321.727 460.497 321.82 473.485Z" fill="#EE8E9E"/>
<path d="M280.973 389.639C282.635 389.689 284.28 389.191 285.678 388.251C286.59 387.637 286.94 386.44 287.196 385.337C287.693 383.199 288.091 380.955 287.612 378.812C286.794 375.152 283.671 372.643 281.676 369.518C279.816 366.605 278.772 362.917 275.977 360.989C273.232 359.095 269.596 359.498 266.443 360.476C264.989 361.014 263.496 361.424 261.977 361.703C259.436 362.03 256.886 361.308 254.327 361.214C250.713 361.094 247.162 362.224 244.224 364.429C243.562 364.881 243 365.477 242.576 366.176C240.689 370.578 239.515 374.816 237.363 379.133C236.566 380.535 236.324 382.207 236.688 383.793C236.93 384.606 237.404 385.335 237.585 386.165C238.003 388.087 236.794 389.922 235.969 391.694C235.17 393.311 234.791 395.119 234.87 396.937C234.916 397.843 235.14 398.73 235.528 399.542C235.915 400.354 236.458 401.073 237.123 401.656C238.52 402.672 240.187 403.2 241.888 403.168C255.305 396.458 264.065 389.125 280.973 389.639Z" fill="#23286B"/>
<path opacity="0.1" d="M266.829 530.53L254.703 520.595L235.622 500.915C235.622 500.915 238.188 500.785 241.918 500.617C242.658 501.316 243.131 502.271 243.249 503.306C243.342 505.712 248.407 503.474 251.038 504.85C253.669 506.228 266.547 523.478 268.802 523.366C271.058 523.251 272.843 522.168 273.785 523.842C273.805 523.88 273.83 523.915 273.853 523.951C274.227 524.4 274.729 524.712 275.285 524.842L266.829 530.53Z" fill="black"/>
<path d="M266.602 539.033L279.345 527.079L279.52 526.172L279.342 526.116C279.342 526.116 278.795 526.152 278.039 526.128C276.655 526.087 274.562 525.854 273.866 524.85C273.843 524.815 273.818 524.779 273.798 524.741C272.856 523.067 271.071 524.151 268.816 524.266C266.56 524.378 253.682 507.128 251.051 505.749C248.42 504.374 243.356 506.611 243.263 504.206C243.184 502.234 241.015 500.61 240.243 500.094C240.073 499.979 239.972 499.92 239.972 499.92C239.972 499.92 239.019 489.22 219.094 496.206C199.167 503.193 207.062 527.592 207.062 527.592C210.537 534.313 214.724 536.014 218.49 535.645C224.644 535.12 230.807 536.527 236.193 539.685C239.373 541.406 263.027 538.867 266.602 539.033Z" fill="url(#paint3_linear_2816_29650)"/>
<path opacity="0.1" d="M289.719 490.295L286.784 490.782L285.561 478.092C285.561 478.092 286.905 477.883 288.585 477.473C288.14 479.243 289.149 486.087 289.719 490.295Z" fill="black"/>
<path opacity="0.1" d="M212.859 431C212.859 431 204.118 428.343 206.279 454.319C208.441 480.294 224.608 496.725 224.608 496.725C224.608 496.725 243.219 505.285 251.584 503.908C259.95 502.53 266.059 502.235 266.059 502.235C268.692 500.842 271.573 500.038 274.519 499.874C279.218 499.677 289.088 496.627 289.275 495.643C289.463 494.659 286.832 480.196 287.96 479.113C287.96 479.113 274.8 479.678 273.485 480.675C272.169 481.671 270.289 480.957 268.879 480.675C267.469 480.392 263.145 476.457 254.592 479.9C254.592 479.9 251.678 480.196 250.55 479.408C249.422 478.621 247.61 479.212 247.61 479.212C246.885 478.952 246.198 478.587 245.569 478.129C245.287 477.736 243.031 478.129 243.031 478.129C242.897 478.198 242.75 478.234 242.601 478.236C242.451 478.237 242.304 478.204 242.169 478.138C242.033 478.072 241.914 477.975 241.819 477.854C241.724 477.734 241.657 477.592 241.621 477.441C241.325 476.634 240.878 475.898 240.305 475.276C240.305 475.276 237.767 460.321 232.973 454.712C232.973 454.712 231.564 453.433 231.94 451.859C232.315 450.285 224.138 427.851 212.859 431Z" fill="black"/>
<path d="M213.054 429.021C213.054 429.021 204.313 426.365 206.475 452.34C208.637 478.315 224.803 494.747 224.803 494.747C224.803 494.747 243.414 503.307 251.779 501.929C260.145 500.552 266.254 500.256 266.254 500.256C268.887 498.863 271.768 498.059 274.714 497.895C279.414 497.698 289.283 494.648 289.471 493.664C289.659 492.68 287.027 478.217 288.155 477.135C288.155 477.135 274.996 477.699 273.68 478.696C272.364 479.693 270.484 478.978 269.074 478.696C267.664 478.414 263.341 474.478 254.787 477.922C254.787 477.922 251.874 478.217 250.746 477.43C249.618 476.643 247.806 477.233 247.806 477.233C247.081 476.973 246.393 476.609 245.764 476.151C245.482 475.757 243.226 476.151 243.226 476.151C243.092 476.219 242.945 476.256 242.796 476.257C242.647 476.259 242.499 476.225 242.364 476.159C242.229 476.093 242.109 475.996 242.015 475.875C241.92 475.755 241.852 475.613 241.816 475.462C241.521 474.655 241.073 473.919 240.5 473.297C240.5 473.297 237.962 458.342 233.169 452.734C233.169 452.734 231.759 451.454 232.135 449.88C232.511 448.306 224.333 425.873 213.054 429.021Z" fill="#23286B"/>
<path opacity="0.1" d="M280.953 526.617L268.538 542.341C268.507 542.315 268.48 542.284 268.459 542.25C268.365 541.955 267.145 538.607 267.427 538.413C267.708 538.215 269.868 533.294 274.194 531.228C276.389 530.104 278.231 528.348 279.507 526.166L280.953 526.617Z" fill="black"/>
<path opacity="0.1" d="M280.792 553.833C279.946 554.347 279.435 554.651 279.435 554.651C279.435 554.651 276.289 552.006 273.153 549.344C270.06 546.717 266.98 544.075 266.932 543.927C266.839 543.632 265.618 540.285 265.9 540.09C266.047 539.987 266.693 538.626 267.88 537.047C276.297 534.579 270.937 540.695 270.223 540.975C270.223 540.975 280.467 538.514 281.031 550.197C281.106 551.415 281.026 552.638 280.792 553.833Z" fill="black"/>
<path d="M270.411 558.784L268.624 559.867L250.484 560.357C248.449 561.652 246.299 562.736 244.063 563.592C243.765 563.688 243.461 563.758 243.152 563.802C241.47 563.943 239.782 563.976 238.096 563.902C236.706 563.864 235.632 563.802 235.632 563.802C235.632 563.802 236.489 539.854 237.138 537.334C237.448 536.129 238.968 536.395 240.468 536.997C241.594 537.476 242.681 538.052 243.716 538.718C243.716 538.718 251.423 539.5 252.647 540.194C253.868 540.887 257.344 539.795 259.507 540.194C261.67 540.592 265.522 537.531 265.522 537.531C276.051 533.892 270.129 540.681 269.376 540.976C269.376 540.976 279.621 538.514 280.185 550.197C280.749 561.877 270.411 558.784 270.411 558.784Z" fill="#191E56"/>
<path d="M244.183 549.547C243.985 554.503 240.294 560.658 238.092 563.913C236.702 563.875 235.628 563.813 235.628 563.813C235.628 563.813 236.485 539.866 237.133 537.345C237.444 536.14 238.963 536.406 240.464 537.008C242.285 540.58 244.341 545.551 244.183 549.547Z" fill="#565387"/>
<path opacity="0.1" d="M244.183 549.547C243.985 554.503 240.294 560.658 238.092 563.913C236.702 563.875 235.628 563.813 235.628 563.813C235.628 563.813 236.485 539.866 237.133 537.345C237.444 536.14 238.963 536.406 240.464 537.008C242.285 540.58 244.341 545.551 244.183 549.547Z" fill="black"/>
<path opacity="0.05" d="M247.28 550.205C246.031 554.99 246.045 560.356 244.054 563.603C243.757 563.699 243.452 563.769 243.143 563.813C241.462 563.954 239.773 563.987 238.088 563.913C236.697 563.875 235.623 563.813 235.623 563.813C235.623 563.813 236.48 539.865 237.129 537.345C237.439 536.14 238.959 536.406 240.459 537.008C241.585 537.487 242.672 538.063 243.707 538.729C243.707 538.729 248.876 544.078 247.28 550.205Z" fill="black"/>
<path opacity="0.1" d="M309.875 501.643C309.875 501.643 300.865 504.709 293.229 515.583L309.875 501.643Z" fill="black"/>
<g opacity="0.1">
<g opacity="0.1" filter="url(#filter0_d_2816_29650)">
<path d="M236.684 383.556C236.701 383.626 236.718 383.696 236.738 383.765C236.826 384.046 236.93 384.32 237.051 384.586C236.959 384.232 236.836 383.887 236.684 383.556Z" fill="black"/>
</g>
</g>
<g opacity="0.1" filter="url(#filter1_d_2816_29650)">
<path d="M235.215 457.545C236.936 459.979 238.902 462.229 240.426 464.803C241.95 467.377 243.026 470.383 242.71 473.393C241.134 471.699 240.411 469.359 239.417 467.236C237.734 463.64 235.216 460.591 233.094 457.286C232.688 456.652 230.092 453.005 231.406 452.831C232.491 452.687 234.628 456.715 235.215 457.545Z" fill="black"/>
</g>
<path d="M519.588 489.376C519.588 489.376 508.692 492.136 504.379 497.295C502.765 499.044 500.777 500.366 498.579 501.153V493.351C501.07 488.97 503.585 484.097 503.585 484.097C503.698 483.857 504.606 480.497 504.606 480.497C506.649 478.818 504.493 472.938 504.493 472.938C504.493 472.938 505.741 469.219 505.06 468.499C504.379 467.779 504.947 465.859 505.514 465.019C505.928 464.211 506.086 463.287 505.968 462.379C505.968 461.659 505.06 460.58 503.585 459.98C502.109 459.38 503.698 458.42 504.606 458.18C505.514 457.94 505.741 455.66 504.72 454.46C503.698 453.26 504.833 452.54 505.401 451.221C505.968 449.901 503.585 450.141 503.585 450.141V438.024L503.586 438.023C503.586 438.023 502.905 434.064 502.224 427.102C501.543 420.144 498.931 419.424 498.931 419.424C497.532 418.97 496.166 418.408 494.846 417.743C493.454 417.061 492.011 416.5 490.532 416.066C488.653 416.045 486.784 415.774 484.971 415.259C483.741 414.822 482.467 414.534 481.175 414.399C481.035 414.331 480.902 414.259 480.766 414.187C477.694 412.554 475.259 409.854 473.878 406.548C473.808 406.384 473.744 406.221 473.681 406.059C474.359 405.28 474.967 404.436 475.495 403.539L475.507 403.519C475.508 403.641 475.512 403.764 475.512 403.886C475.512 403.938 475.511 403.989 475.51 404.04C475.509 404.336 475.507 404.632 475.499 404.927L475.5 404.924L475.5 404.951C477.312 401.602 482.562 400.838 483.062 397.017C483.084 396.843 483.095 396.668 483.095 396.493L483.096 396.469C483.096 396.34 483.09 396.211 483.081 396.082C483.013 395.016 482.665 393.953 482.597 392.874C482.58 392.566 482.584 392.256 482.611 391.949L482.613 391.966C482.848 388.997 484.986 386.417 485.965 383.534C486.226 382.758 486.398 381.953 486.476 381.134L486.479 381.113C486.503 380.865 486.519 380.617 486.527 380.368C486.529 380.306 486.529 380.245 486.53 380.183C486.533 380.01 486.532 379.837 486.527 379.665C486.497 378.132 486.167 376.621 485.557 375.227C484.948 373.832 484.072 372.583 482.984 371.557C481.175 369.91 478.783 368.876 477.531 366.727C476.947 365.725 476.659 364.547 476.022 363.581C474.823 361.761 472.616 361.02 470.533 360.756C468.45 360.493 466.302 360.582 464.307 359.895C462.893 359.409 461.61 358.55 460.181 358.116C458.624 357.68 456.977 357.753 455.461 358.326C453.945 358.898 452.633 359.942 451.7 361.318C450.947 362.468 450.454 363.845 449.439 364.743C447.359 366.582 443.831 365.784 442.008 367.906C441.007 369.072 440.893 370.66 441.014 372.285L441.018 372.342C441.028 372.468 441.039 372.594 441.051 372.72C441.057 372.778 441.063 372.837 441.069 372.896C441.075 372.958 441.082 373.021 441.089 373.083C441.153 373.665 441.234 374.245 441.304 374.803C441.314 374.888 441.322 374.974 441.332 375.059C441.352 375.232 441.371 375.406 441.388 375.579C441.399 375.706 441.41 375.833 441.42 375.96C441.432 376.117 441.443 376.275 441.452 376.432C441.46 376.556 441.468 376.679 441.474 376.802C441.679 381.232 440.782 385.642 438.871 389.6C437.154 393.129 434.6 396.377 434.155 400.317C434.086 400.963 434.069 401.613 434.106 402.261C434.11 402.337 434.111 402.414 434.116 402.49C434.124 402.607 434.136 402.723 434.147 402.84C434.159 402.974 434.171 403.107 434.186 403.241C434.195 403.317 434.206 403.394 434.217 403.47C434.24 403.647 434.264 403.825 434.293 404.002C434.299 404.04 434.306 404.077 434.313 404.115C434.764 406.801 435.785 409.451 436.329 412.146C436.531 413.147 436.666 414.161 436.735 415.181L436.736 415.202C436.757 415.526 436.772 415.85 436.78 416.175C436.791 416.615 436.785 417.054 436.771 417.494C435.91 417.842 435.026 418.126 434.126 418.344C432.536 418.585 427.881 422.905 428.222 423.985C428.559 425.05 426.138 432.635 426.07 432.858L426.066 432.861L426.067 432.862L426.066 432.863L422.238 460.46C422.238 460.46 420.216 462.499 420.847 463.819C421.479 465.139 420.725 467.419 420.725 467.419C420.725 467.419 417.309 468.979 418.067 469.938C418.826 470.898 418.479 472.698 417.957 473.898C417.435 475.098 416.584 477.258 417.957 477.618C419.331 477.978 418.194 482.657 418.194 482.657C418.194 482.657 422.984 482.082 422.632 485.057C422.52 486.007 425.983 488.612 427.428 489.655V503.99C425.493 503.461 423.597 502.787 421.754 501.975C418.803 500.535 402.232 497.775 398.6 506.054C394.968 514.334 403.594 525.372 405.751 526.572C405.751 526.572 407.794 528.252 408.248 529.092C408.701 529.932 411.312 530.172 411.312 530.172C411.312 530.172 414.036 531.492 414.717 532.212C415.219 532.743 419.367 534.122 424.288 535.195L424.287 535.196C424.287 535.196 420.314 544.769 426.795 543.979C433.275 543.188 436.432 539.851 441.002 539.851C442.828 539.851 446.219 539.584 449.633 539.264C450.49 539.422 451.337 539.631 452.171 539.891C454.095 540.522 456.07 540.963 458.073 541.211C458.073 541.211 463.18 544.09 465.904 543.37C466.13 543.299 466.34 543.181 466.523 543.024C466.543 543.019 466.565 543.016 466.585 543.01C467.261 542.705 467.833 542.191 468.225 541.538C471.634 541.903 475.516 542.422 476.977 543.013C479.801 544.155 499.99 542.574 499.99 542.574C499.99 542.574 513.035 542.842 516.773 544.025C520.512 545.209 519.183 531.946 512.287 530.453C510.438 530.083 508.558 529.909 506.676 529.933C507.154 529.419 507.59 528.864 507.98 528.275C510.465 528.038 512.097 527.892 512.097 527.892C512.097 527.892 518.68 524.532 522.425 522.493C524.82 521.131 526.97 519.345 528.781 517.213C528.781 517.213 532.072 515.054 533.434 514.214C534.796 513.374 535.477 510.614 535.477 510.614C545.805 486.137 519.588 489.376 519.588 489.376ZM490.032 458.672C490.033 458.267 490.034 457.863 490.035 457.462C490.398 457.736 490.345 458.165 490.032 458.672ZM490.14 467.157C490.414 467.536 490.681 467.881 490.873 468.139C491.607 469.123 490.279 469.602 490.375 471.254C490.397 471.625 490.427 472.138 490.461 472.709H490.46C490.321 470.344 490.207 468.381 490.14 467.157H490.14Z" fill="url(#paint4_linear_2816_29650)"/>
<path d="M431.06 504.998C431.06 504.998 424.705 503.453 421.754 502.027C418.803 500.602 402.232 497.869 398.6 506.067C394.968 514.264 403.594 525.195 405.751 526.383C407.907 527.571 428.904 511.294 428.904 511.294L445.474 518.601L448.652 507.255L431.06 504.998Z" fill="#23286B"/>
<path d="M498.631 507.284H449.617C443.242 507.284 438.074 512.694 438.074 519.367V521.458C438.074 528.131 443.242 533.541 449.617 533.541H498.631C505.006 533.541 510.174 528.131 510.174 521.458V519.367C510.174 512.694 505.006 507.284 498.631 507.284Z" fill="#65617D"/>
<path opacity="0.7" d="M510.175 520.411C510.175 523.893 508.854 527.232 506.502 529.695C504.15 532.157 500.961 533.541 497.634 533.542H450.616C447.29 533.542 444.1 532.159 441.748 529.696C439.396 527.234 438.074 523.895 438.074 520.413C438.074 516.931 439.396 513.592 441.748 511.13C444.1 508.667 447.29 507.284 450.616 507.284H497.634C500.96 507.285 504.15 508.668 506.501 511.129C508.853 513.591 510.174 516.93 510.175 520.411Z" fill="#191E56"/>
<path d="M470.912 521.183C470.912 521.183 463.684 523.126 457.785 523.039C451.886 522.952 424.287 534.954 424.287 534.954C424.287 534.954 420.315 544.434 426.795 543.651C433.275 542.868 436.433 539.564 441.002 539.564C445.572 539.564 459.945 537.911 459.945 537.911L473.778 527.214L470.912 521.183Z" fill="#FBBEBE"/>
<path d="M475.447 431.744L462.478 434.421L461.637 434.595C461.637 434.595 451.385 431.744 451.045 431.505C450.704 431.27 441.398 418.139 441.398 418.139C441.398 418.139 446.104 418.193 449.802 415.962C449.935 415.883 450.064 415.798 450.193 415.712C451.825 414.69 453.065 413.104 453.7 411.228C453.765 411.032 453.823 410.829 453.877 410.619C454.3 408.691 454.263 406.683 453.768 404.774C452.515 399.235 455.42 397.709 459.291 397.841C464.882 398.034 472.495 401.687 472.495 401.687C472.593 403.551 472.997 405.384 473.69 407.105C473.752 407.265 473.82 407.425 473.888 407.589C475.276 410.871 477.711 413.545 480.776 415.153C480.912 415.224 481.045 415.295 481.185 415.363C481.597 415.57 482.032 415.766 482.485 415.944C492.36 419.865 475.447 431.744 475.447 431.744Z" fill="#FBBEBE"/>
<path opacity="0.1" d="M473.888 407.588C471.422 410.512 468.077 412.467 464.406 413.128C460.734 413.79 456.957 413.119 453.7 411.227C454.311 409.127 454.334 406.887 453.768 404.772C450.704 391.228 472.495 401.686 472.495 401.686C472.604 403.727 473.077 405.729 473.888 407.588Z" fill="black"/>
<path d="M477.996 395.51C478 398.711 477.142 401.849 475.52 404.563C474.991 405.452 474.383 406.287 473.705 407.058C470.847 410.341 466.876 412.325 462.64 412.586C462.313 412.608 461.982 412.618 461.652 412.618C458.42 412.618 455.26 411.615 452.572 409.735C449.884 407.855 447.79 405.183 446.553 402.057C445.316 398.931 444.992 395.491 445.623 392.172C446.253 388.854 447.81 385.805 450.096 383.413C452.381 381.02 455.293 379.391 458.464 378.731C461.634 378.07 464.92 378.409 467.907 379.704C470.893 380.999 473.445 383.192 475.241 386.005C477.037 388.819 477.996 392.126 477.996 395.51Z" fill="#FBBEBE"/>
<path opacity="0.1" d="M475.447 431.717L462.478 434.394L461.637 434.569C461.637 434.569 451.385 431.717 451.045 431.479C450.704 431.243 441.398 418.113 441.398 418.113C441.398 418.113 446.104 418.166 449.802 415.935C449.935 415.857 450.064 415.771 450.193 415.686C451.61 417.275 453.322 418.544 455.224 419.415C457.127 420.286 459.179 420.741 461.256 420.75C462.029 420.746 462.8 420.681 463.564 420.558C465.389 420.266 467.228 420.077 469.063 419.877C472.577 419.492 477.953 418.377 480.776 415.126C480.912 415.197 481.045 415.268 481.185 415.336C481.597 415.543 482.033 415.739 482.485 415.917C492.36 419.838 475.447 431.717 475.447 431.717Z" fill="black"/>
<path d="M490.094 466.393C490.207 469.01 492.025 498.471 492.025 498.471H435.388L435.772 479.923L436.082 465.085L436.184 460.217L436.637 443.347L434.999 441.836L426.082 433.603L426.085 433.599C426.154 433.378 428.574 425.868 428.237 424.813C427.897 423.744 432.551 419.467 434.141 419.228C435.047 419.01 435.936 418.727 436.804 418.38C439.48 417.396 443.052 415.949 443.447 416.174C444.002 416.487 449.572 415.946 449.807 415.921H449.814C451.233 417.646 452.989 419.033 454.964 419.987C456.939 420.941 459.086 421.439 461.261 421.449C462.034 421.444 462.806 421.38 463.57 421.256C465.395 420.964 467.234 420.775 469.069 420.575C472.76 420.173 478.5 418.961 481.19 415.322C482.483 415.455 483.756 415.741 484.987 416.174C486.801 416.684 488.669 416.952 490.547 416.972C492.026 417.402 493.469 417.957 494.861 418.633C496.182 419.292 497.548 419.848 498.947 420.297C498.947 420.297 501.558 421.01 502.239 427.9C502.92 434.793 503.601 438.714 503.601 438.714L490.094 450.95C490.094 450.95 489.982 463.781 490.094 466.393Z" fill="url(#paint5_linear_2816_29650)"/>
<path d="M426.094 486.949L428.078 490.275L435.514 493.018L440.621 483.265L435.913 479.938L428.364 476.85L424.051 479.464L426.094 486.949Z" fill="#FBBEBE"/>
<path d="M489.502 503.352C489.502 503.352 500.058 502.52 504.37 497.411C508.683 492.303 519.579 489.57 519.579 489.57C519.579 489.57 545.797 486.362 535.469 510.599C535.469 510.599 534.788 513.332 533.426 514.163C532.064 514.995 528.772 517.133 528.772 517.133L488.488 513.451L489.502 503.352Z" fill="#23286B"/>
<path opacity="0.1" d="M510.168 520.433C510.171 523.014 509.445 525.539 508.081 527.69C501.305 528.321 486.296 529.796 483.157 530.712C479.299 531.831 471.492 529.882 470.637 529.661C470.586 529.65 470.559 529.643 470.559 529.643C470.559 529.643 469.054 524.863 468.335 521.805C468.012 520.415 467.848 519.381 468.06 519.307C468.741 519.068 474.985 517.286 474.869 518.294C474.757 519.307 493.596 510.631 493.596 510.631L494.175 518.236C496.096 520.542 510.168 517.132 510.168 520.433Z" fill="black"/>
<path d="M529.598 514.05L528.803 517.139C526.989 519.253 524.839 521.022 522.448 522.367C518.702 524.387 512.119 527.713 512.119 527.713C512.119 527.713 487.945 529.852 483.859 531.04C479.773 532.228 471.261 529.971 471.261 529.971C471.261 529.971 468.083 519.872 468.764 519.634C469.445 519.397 475.687 517.615 475.573 518.624C475.46 519.634 494.3 510.961 494.3 510.961L529.598 514.05Z" fill="#23286B"/>
<path d="M462.273 540.697C462.273 540.697 474.154 541.567 476.979 542.698C479.804 543.828 499.993 542.263 499.993 542.263C499.993 542.263 513.037 542.529 516.776 543.7C520.514 544.872 519.185 531.739 512.289 530.261C505.393 528.782 495.673 530.957 495.673 530.957C495.673 530.957 484.706 529.478 483.376 529.304C482.047 529.13 473.284 529.389 473.284 529.389L462.273 540.697Z" fill="#FBBEBE"/>
<path opacity="0.1" d="M415.578 507.896C415.578 507.896 431.281 509.374 435.601 512.071L415.578 507.896Z" fill="black"/>
<path opacity="0.1" d="M513.549 497.099C513.549 497.099 501.252 500.23 496.434 504.839L513.549 497.099Z" fill="black"/>
<path opacity="0.1" d="M416.504 504.146C416.753 504.232 423.73 505.189 423.564 505.884C423.398 506.58 416.504 504.146 416.504 504.146Z" fill="black"/>
<path opacity="0.1" d="M405.535 522.499L406.443 526.064C407.366 526.79 408.204 527.627 408.94 528.558C409.394 529.39 412.004 529.628 412.004 529.628C412.004 529.628 414.728 530.935 415.409 531.647C416.09 532.36 423.468 534.618 430.391 535.568C437.314 536.519 450.139 538.301 452.863 539.251C454.788 539.876 456.764 540.313 458.765 540.558C458.765 540.558 463.872 543.409 466.596 542.697C469.32 541.984 473.974 529.034 473.974 529.034C473.974 529.034 456.041 524.638 455.474 523.212C454.906 521.787 437.655 515.137 437.655 515.137L427.44 515.39L405.535 522.499Z" fill="black"/>
<path d="M404.859 522.835L405.767 526.399C406.69 527.125 407.528 527.962 408.264 528.894C408.718 529.725 411.329 529.963 411.329 529.963C411.329 529.963 414.053 531.27 414.734 531.983C415.415 532.696 422.792 534.953 429.715 535.903C436.638 536.854 449.464 538.636 452.187 539.586C454.112 540.211 456.088 540.649 458.089 540.893C458.089 540.893 463.197 543.745 465.921 543.032C468.644 542.319 473.298 529.369 473.298 529.369C473.298 529.369 455.365 524.973 454.798 523.547C454.23 522.122 428.921 511.31 428.921 511.31L420.976 509.409L404.859 522.835Z" fill="#23286B"/>
<path d="M428.075 432.432L426.091 433.62L422.262 460.946C422.262 460.946 420.24 462.966 420.872 464.272C421.504 465.579 420.75 467.837 420.75 467.837C420.75 467.837 417.334 469.381 418.092 470.332C418.85 471.282 418.504 473.064 417.982 474.252C417.46 475.44 416.608 477.579 417.982 477.935C419.356 478.292 418.218 482.925 418.218 482.925C418.218 482.925 423.009 482.355 422.657 485.301C422.515 486.489 428.075 490.291 428.075 490.291C428.075 490.291 421.757 478.292 435.91 479.955L437.127 473.19C437.127 473.19 438.344 469.381 437.127 468.193C435.91 467.005 437.4 461.362 437.4 461.362L437.668 436.828L428.075 432.432Z" fill="url(#paint6_linear_2816_29650)"/>
<path opacity="0.1" d="M424.984 467.703C425.234 468.138 432.875 469.025 433.374 470.451C433.872 471.877 424.984 467.703 424.984 467.703Z" fill="black"/>
<path opacity="0.1" d="M422.57 474.502C422.57 474.502 423.606 471.111 426.079 471.72C428.551 472.329 422.57 474.502 422.57 474.502Z" fill="black"/>
<path opacity="0.1" d="M421.238 479.492C421.238 479.492 423.066 474.971 425.558 475.319C428.049 475.666 421.238 479.492 421.238 479.492Z" fill="black"/>
<path d="M504.386 479.369L503.591 484.359C503.591 484.359 495.42 500.041 493.944 500.279C492.469 500.516 484.41 489.824 484.41 489.824L482.254 479.369L490.744 477.684L494.512 473.785C494.512 473.785 504.045 474.735 504.386 479.369Z" fill="#FBBEBE"/>
<path d="M500.519 436.482L503.584 438.74V450.739C503.584 450.739 505.967 450.502 505.4 451.809C504.832 453.115 503.697 453.828 504.719 455.016C505.74 456.204 505.513 458.462 504.605 458.699C503.697 458.937 502.108 459.887 503.584 460.482C505.059 461.076 505.967 462.145 505.967 462.858C506.085 463.757 505.926 464.673 505.513 465.471C504.946 466.303 504.378 468.204 505.059 468.917C505.74 469.63 504.492 473.313 504.492 473.313C504.492 473.313 506.648 479.134 504.605 480.798C504.605 480.798 503.697 484.124 503.584 484.362C503.584 484.362 505.014 472.795 490.736 477.688C490.736 477.688 490.47 473.28 490.374 471.645C490.278 470.01 491.606 469.535 490.872 468.56C490.139 467.585 488.303 465.352 489.17 464.759C490.037 464.165 489.737 463.095 489.397 462.264C489.056 461.432 487.854 461.432 488.942 460.422C490.03 459.412 490.672 458.464 490.034 457.988C489.397 457.511 488.288 455.964 489.17 455.254C490.052 454.544 490.078 444.205 490.078 444.205C490.078 444.205 493.71 428.998 500.519 436.482Z" fill="url(#paint7_linear_2816_29650)"/>
<path opacity="0.1" d="M499.082 456.932C499.082 456.932 503.445 455.694 503.589 456.932C503.734 458.171 499.082 456.932 499.082 456.932Z" fill="black"/>
<path opacity="0.1" d="M494.168 460.332C494.168 460.332 500.148 458.767 500.896 459.984C501.644 461.201 494.168 460.332 494.168 460.332Z" fill="black"/>
<path opacity="0.1" d="M492.863 463.63C492.863 463.63 501.834 462.326 502.415 464.239C502.997 466.152 492.863 463.63 492.863 463.63Z" fill="black"/>
<path opacity="0.1" d="M494.168 467.703C494.5 467.79 502.806 468.399 502.973 470.051C503.139 471.703 494.168 467.703 494.168 467.703Z" fill="black"/>
<path d="M491.301 473.052H434.717C430.694 473.052 427.434 476.465 427.434 480.676V507.732C427.434 511.942 430.694 515.356 434.717 515.356H491.301C495.324 515.356 498.584 511.942 498.584 507.732V480.676C498.584 476.465 495.324 473.052 491.301 473.052Z" fill="#14194A"/>
<path d="M463.014 496.987C464.463 496.987 465.638 495.757 465.638 494.241C465.638 492.724 464.463 491.494 463.014 491.494C461.565 491.494 460.391 492.724 460.391 494.241C460.391 495.757 461.565 496.987 463.014 496.987Z" fill="#E7EFFD"/>
<path opacity="0.1" d="M439.332 447.148C439.332 447.148 446.149 452.603 451.421 448.446C451.421 448.446 442.509 449.294 439.332 447.148Z" fill="black"/>
<path opacity="0.1" d="M473.871 448.59C473.871 448.59 480.688 454.045 485.96 449.888C485.96 449.888 477.048 450.736 473.871 448.59Z" fill="black"/>
<path opacity="0.1" d="M477.976 395.51C477.981 398.712 477.123 401.85 475.501 404.563C475.365 399.798 474.292 395.033 471.817 391.055C469.549 387.409 462.658 381.018 457.918 382.797C457.423 382.988 456.977 383.299 456.617 383.704C456.258 384.108 455.994 384.596 455.848 385.128C455.378 386.995 456.754 387.772 457.636 389.259C459.134 391.81 459.719 394.835 459.287 397.795C459.227 398.193 459.147 398.588 459.049 398.978C458.303 401.908 456.594 405.262 458.357 407.668C459.587 409.343 462.229 409.92 462.586 411.998C462.62 412.192 462.631 412.39 462.62 412.586C462.539 413.984 461.398 415.217 460.901 416.593C460.315 418.211 460.646 419.818 461.252 421.444C462.042 423.564 463.298 425.71 463.601 427.948C463.901 430.154 463.25 432.265 462.474 434.375C461.638 436.312 461.01 438.341 460.601 440.423C460.053 444.372 461.435 448.938 459.062 452.06C458.821 452.438 458.448 452.701 458.024 452.794C456.502 452.962 456.761 450.1 455.538 449.137C455.668 450.802 455.79 452.534 455.215 454.092C454.636 455.649 453.138 456.968 451.561 456.708C451.381 455.464 451.2 454.219 451.02 452.973C449.948 454.077 448.658 454.923 447.24 455.45C447.797 451.476 449.14 447.668 451.183 444.269C447.186 446.283 444.857 450.645 442.777 454.744C441.479 457.307 440.138 460.108 440.591 462.97C440.775 464.136 441.255 465.244 441.36 466.42C441.466 467.597 441.057 468.965 440.012 469.414C439.542 469.566 439.039 469.566 438.569 469.413C438.1 469.261 437.685 468.963 437.38 468.559C437.342 468.513 437.305 468.466 437.268 468.416C437.202 468.331 437.142 468.242 437.087 468.149C436.972 467.97 436.871 467.782 436.784 467.586C436.498 466.883 436.284 466.151 436.144 465.401L436.072 465.08C435.017 460.222 434.064 455.214 434.836 450.303C435.122 448.492 435.643 446.7 435.582 444.864C435.535 443.827 435.335 442.804 434.99 441.831C434.063 439.115 432.279 436.616 431.261 433.879C431.252 433.86 431.244 433.839 431.237 433.819C430.703 432.368 430.441 430.557 431.428 429.395C432 428.861 432.638 428.409 433.325 428.052C435.299 426.704 436.185 424.149 436.546 421.711C436.712 420.607 436.795 419.492 436.794 418.375C439.47 417.391 443.042 415.944 443.437 416.168C443.992 416.482 449.563 415.94 449.798 415.915C451.612 414.897 453.001 413.21 453.696 411.182C453.761 410.986 453.819 410.783 453.873 410.573C451.33 409.137 449.196 407.022 447.688 404.442C446.18 401.862 445.353 398.91 445.289 395.886C445.226 392.862 445.93 389.875 447.329 387.229C448.728 384.582 450.772 382.371 453.253 380.821C455.733 379.271 458.562 378.436 461.452 378.403C464.341 378.37 467.187 379.139 469.699 380.632C472.212 382.125 474.302 384.288 475.756 386.902C477.21 389.515 477.976 392.486 477.976 395.51Z" fill="black"/>
<path d="M459.057 398.27C458.31 401.201 456.603 404.554 458.367 406.96C459.597 408.637 462.238 409.212 462.593 411.293C462.874 412.939 461.475 414.322 460.909 415.887C459.561 419.619 463.074 423.289 463.608 427.24C464.188 431.526 461.204 435.433 460.61 439.717C460.062 443.665 461.444 448.23 459.07 451.351C458.83 451.73 458.457 451.994 458.032 452.087C456.51 452.256 456.768 449.394 455.545 448.432C455.677 450.096 455.8 451.828 455.223 453.386C454.646 454.943 453.146 456.262 451.57 456.001L451.029 452.265C449.956 453.369 448.666 454.215 447.249 454.743C447.805 450.769 449.148 446.961 451.192 443.562C447.196 445.577 444.866 449.937 442.787 454.038C441.488 456.599 440.148 459.401 440.6 462.262C440.785 463.429 441.264 464.535 441.37 465.713C441.475 466.891 441.066 468.258 440.021 468.706C439.521 468.864 438.987 468.852 438.495 468.674C438.002 468.495 437.576 468.158 437.277 467.711C436.697 466.802 436.314 465.773 436.154 464.693C435.069 459.734 434.054 454.614 434.847 449.595C435.132 447.784 435.653 445.991 435.59 444.156C435.453 440.145 432.625 436.857 431.245 433.112C430.71 431.661 430.45 429.851 431.436 428.687C432.009 428.154 432.647 427.702 433.334 427.344C435.308 425.997 436.194 423.443 436.556 421.005C436.946 418.368 436.873 415.678 436.342 413.068C435.545 409.16 433.717 405.347 434.169 401.379C434.614 397.477 437.168 394.261 438.885 390.766C441.094 386.245 441.942 381.129 441.317 376.092C441.021 373.749 440.505 371.037 442.022 369.286C443.845 367.185 447.373 367.975 449.453 366.154C450.468 365.265 450.961 363.901 451.714 362.763C452.655 361.397 453.969 360.363 455.484 359.797C456.998 359.231 458.641 359.16 460.195 359.593C461.624 360.022 462.908 360.873 464.321 361.354C466.316 362.034 468.464 361.946 470.547 362.207C472.631 362.467 474.837 363.202 476.036 365.004C476.673 365.96 476.961 367.127 477.545 368.119C478.798 370.247 481.189 371.271 482.998 372.901C484.551 374.349 485.661 376.244 486.191 378.349C486.721 380.454 486.647 382.676 485.978 384.737C484.898 387.887 482.398 390.67 482.611 394.009C482.698 395.381 483.255 396.726 483.075 398.087C482.575 401.871 477.325 402.628 475.513 405.943C475.657 400.507 474.661 394.905 471.826 390.348C469.558 386.701 462.666 380.31 457.928 382.089C457.432 382.28 456.986 382.591 456.626 382.996C456.267 383.401 456.003 383.889 455.857 384.42C455.388 386.288 456.762 387.064 457.643 388.552C458.491 389.989 459.053 391.591 459.296 393.261C459.539 394.93 459.457 396.634 459.057 398.27Z" fill="#23286B"/>
<g opacity="0.2">
<g opacity="0.2" filter="url(#filter2_d_2816_29650)">
<path d="M436.753 417.129C436.792 415.421 436.64 413.714 436.301 412.042C435.623 408.72 434.206 405.465 434.072 402.127C433.89 405.843 435.551 409.435 436.301 413.111C436.57 414.433 436.721 415.778 436.753 417.129Z" fill="black"/>
</g>
<g opacity="0.2" filter="url(#filter3_d_2816_29650)">
<path d="M450.288 444.093C450.564 443.562 450.851 443.038 451.159 442.526C447.163 444.541 444.833 448.901 442.754 453.002C441.551 455.374 440.316 457.952 440.499 460.592C440.65 458.327 441.714 456.122 442.754 454.071C444.677 450.279 446.817 446.269 450.288 444.093Z" fill="black"/>
</g>
<g opacity="0.2" filter="url(#filter4_d_2816_29650)">
<path d="M441.328 465.574C441.299 466.012 441.162 466.435 440.929 466.801C440.695 467.167 440.375 467.462 439.999 467.658C439.5 467.816 438.966 467.804 438.473 467.626C437.981 467.447 437.554 467.11 437.255 466.663C436.676 465.754 436.293 464.725 436.132 463.645C435.257 460.115 434.728 456.501 434.552 452.858C434.476 456.825 435.281 460.82 436.132 464.715C436.293 465.794 436.676 466.824 437.255 467.732C437.554 468.179 437.981 468.516 438.473 468.695C438.966 468.874 439.5 468.885 439.999 468.728C441.045 468.279 441.454 466.912 441.348 465.734C441.344 465.68 441.334 465.627 441.328 465.574Z" fill="black"/>
</g>
<g opacity="0.2" filter="url(#filter5_d_2816_29650)">
<path d="M459.395 394.713C459.359 395.566 459.236 396.413 459.027 397.238C458.473 399.41 457.394 401.814 457.59 403.893C457.741 402.084 458.566 400.115 459.027 398.307C459.322 397.135 459.446 395.923 459.395 394.713Z" fill="black"/>
</g>
<g opacity="0.2" filter="url(#filter6_d_2816_29650)">
<path d="M441.474 378.838C441.502 377.571 441.437 376.304 441.279 375.047C441.162 374.121 441.012 373.139 440.966 372.18C440.954 373.499 441.059 374.817 441.279 376.116C441.392 377.019 441.457 377.927 441.474 378.838Z" fill="black"/>
</g>
<g opacity="0.2" filter="url(#filter7_d_2816_29650)">
<path d="M462.556 411.332C462.551 411.303 462.542 411.277 462.536 411.249C462.294 412.485 461.322 413.614 460.873 414.856C460.609 415.598 460.514 416.394 460.594 417.181C460.634 416.751 460.728 416.329 460.873 415.925C461.438 414.361 462.837 412.978 462.556 411.332Z" fill="black"/>
</g>
<g opacity="0.2" filter="url(#filter8_d_2816_29650)">
<path d="M435.555 443.087C435.417 439.076 432.59 435.787 431.209 432.042C430.988 431.456 430.839 430.842 430.766 430.216C430.689 431.204 430.841 432.198 431.209 433.112C432.567 436.794 435.318 440.037 435.54 443.958C435.556 443.669 435.565 443.379 435.555 443.087Z" fill="black"/>
</g>
<g opacity="0.2" filter="url(#filter9_d_2816_29650)">
<path d="M471.79 389.307C469.521 385.659 462.63 379.269 457.892 381.047C457.396 381.239 456.95 381.549 456.59 381.954C456.23 382.359 455.967 382.847 455.821 383.379C455.709 383.786 455.696 384.215 455.785 384.628C455.796 384.568 455.805 384.51 455.821 384.448C455.967 383.917 456.23 383.429 456.59 383.024C456.95 382.619 457.396 382.308 457.892 382.117C462.63 380.338 469.521 386.729 471.79 390.376C474.357 394.503 475.413 399.488 475.483 404.43C475.559 399.142 474.543 393.732 471.79 389.307Z" fill="black"/>
</g>
<g opacity="0.2" filter="url(#filter10_d_2816_29650)">
<path d="M483.037 397.011C482.538 400.785 477.312 401.547 475.489 404.844C475.49 405.207 475.486 405.571 475.477 405.934C477.288 402.619 482.537 401.862 483.037 398.08C483.081 397.708 483.082 397.332 483.04 396.959C483.038 396.977 483.039 396.994 483.037 397.011Z" fill="black"/>
</g>
<g opacity="0.2" filter="url(#filter11_d_2816_29650)">
<path d="M485.953 383.692C484.873 386.841 482.374 389.624 482.587 392.962C482.59 393.011 482.598 393.06 482.602 393.109C482.837 390.17 484.974 387.615 485.953 384.761C486.393 383.457 486.582 382.074 486.509 380.693C486.467 381.716 486.28 382.727 485.953 383.692Z" fill="black"/>
</g>
<g opacity="0.2" filter="url(#filter12_d_2816_29650)">
<path d="M459.04 450.341C458.8 450.719 458.427 450.983 458.002 451.076C456.48 451.245 456.738 448.384 455.516 447.422C455.546 447.801 455.574 448.183 455.595 448.566C456.724 449.59 456.516 452.31 458.002 452.145C458.427 452.052 458.8 451.788 459.04 451.41C460.394 449.63 460.525 447.379 460.49 445.042C460.455 446.99 460.186 448.834 459.04 450.341Z" fill="black"/>
</g>
<g opacity="0.2" filter="url(#filter13_d_2816_29650)">
<path d="M455.167 452.348C454.591 453.905 453.092 455.223 451.516 454.963C451.335 453.718 451.155 452.472 450.974 451.227C449.95 452.28 448.728 453.098 447.385 453.628C447.316 454.009 447.249 454.39 447.195 454.774C448.612 454.246 449.902 453.4 450.974 452.296C451.155 453.541 451.335 454.787 451.516 456.032C453.092 456.292 454.591 454.974 455.167 453.417C455.526 452.332 455.669 451.182 455.587 450.037C455.569 450.826 455.427 451.607 455.167 452.348Z" fill="black"/>
</g>
<g opacity="0.2" filter="url(#filter14_d_2816_29650)">
<path d="M460.55 438.691C460.427 439.695 460.381 440.708 460.411 441.719C460.418 441.064 460.464 440.41 460.55 439.761C461.116 435.678 463.851 431.937 463.604 427.884C463.384 431.532 461.066 434.97 460.55 438.691Z" fill="black"/>
</g>
</g>
<path d="M66.2488 187.231C68.3327 185.273 69.6323 182.573 69.8901 179.667C70.1479 176.76 69.345 173.859 67.6406 171.539C67.8662 171.758 68.0867 171.986 68.2978 172.229C70.2909 174.519 71.3266 177.538 71.1772 180.621C71.0278 183.704 69.7056 186.599 67.5013 188.67C65.297 190.74 62.3912 191.816 59.4233 191.661C56.4553 191.506 53.6683 190.132 51.6752 187.842C51.4642 187.6 51.2678 187.349 51.08 187.094C53.1312 189.088 55.8291 190.209 58.6387 190.235C61.4483 190.26 64.1644 189.188 66.2488 187.231Z" fill="#2F2E41"/>
<path d="M67.2266 189.824C54.4291 189.824 44.0547 178.964 44.0547 165.568C44.0547 152.171 54.4291 141.312 67.2266 141.312C80.024 141.312 90.3984 152.171 90.3984 165.568C90.3984 178.964 80.024 189.824 67.2266 189.824Z" fill="#23286B"/>
<path d="M0.197599 447.453C-0.477863 444.781 16.6683 436.645 16.6683 436.645L30.1656 447.717C30.1656 447.717 30.1203 458.129 34.9003 464.507C39.511 470.663 42.8006 479.713 39.797 479.936C36.7934 480.158 0.873058 450.125 0.197599 447.453Z" fill="#29306D"/>
<path d="M147.388 479.332C145.119 480.84 131.635 479.332 116.973 479.332C102.31 479.332 97.5188 477.008 97.5188 477.008C97.5188 477.008 95.885 475.585 95.6581 473.885C95.4312 472.186 97.5188 465.12 97.5188 465.12L131.635 464.442C131.635 464.442 152.153 477.008 147.388 479.332Z" fill="#29306D"/>
<path d="M104.972 241.123C104.972 241.123 109.347 245.7 111.533 250.277C113.798 249.036 136.497 210.383 136.497 210.383C136.497 210.383 149.348 189.203 153.328 198.201C157.308 207.199 142.275 219.248 142.275 219.248C142.275 219.248 119.399 264.922 108.035 264.922C91.8562 251.65 91.8562 251.65 91.8562 251.65L104.972 241.123Z" fill="#FFB8B8"/>
<path d="M93.8985 211.804L97.7719 212.94C97.7719 212.94 112.871 240.904 111.268 246.78C109.664 252.656 102.449 259.93 99.2428 259.371C96.0362 258.811 93.8985 211.804 93.8985 211.804Z" fill="url(#paint8_linear_2816_29650)"/>
<path d="M81.9652 181.313C81.9652 181.313 77.8847 198.67 80.8771 202.03C83.8695 205.389 90.3984 207.909 90.3984 207.909L89.3103 239.264C89.3103 239.264 76.7965 234.784 76.2524 234.225C75.7083 233.665 64.5547 215.467 64.5547 215.467L53.6732 204.829C53.6732 204.829 70.2676 196.71 65.3709 182.713C60.4742 168.715 81.9652 181.313 81.9652 181.313Z" fill="#FFB8B8"/>
<path d="M72.0329 188.006C64.3061 188.006 58.0423 181.45 58.0423 173.361C58.0423 165.273 64.3061 158.716 72.0329 158.716C79.7596 158.716 86.0234 165.273 86.0234 173.361C86.0234 181.45 79.7596 188.006 72.0329 188.006Z" fill="#FFB8B8"/>
<path d="M87.2591 206.392C87.2591 206.392 97.1779 209.199 97.7141 213.129C98.2502 217.058 97.7141 225.198 98.5183 226.882C99.3225 228.566 101.735 231.092 100.663 241.758C99.5906 252.424 100.127 258.879 100.127 258.879C100.127 258.879 154.546 459.845 135.245 465.739C115.943 471.633 87.5272 465.178 87.7953 461.248C88.0634 457.319 92.8887 379.571 92.8887 379.571C92.8887 379.571 64.7408 482.861 29.891 458.722C-4.95888 434.584 2.81534 430.093 6.03224 428.409C9.24915 426.725 57.7708 346.732 57.5027 331.856C57.2347 316.98 58.0389 270.387 63.9366 263.37C63.9366 263.37 57.7708 242.039 54.822 239.232C51.8732 236.425 44.6351 210.041 44.6351 210.041C44.6351 210.041 49.1924 203.586 52.9455 203.586C56.6985 203.586 60.1835 204.989 64.4727 209.199C68.7619 213.409 84.5784 233.899 84.5784 233.899C84.5784 233.899 89.6718 210.322 87.2591 206.392Z" fill="url(#paint9_linear_2816_29650)"/>
<path d="M100.127 258.483C100.127 258.483 154.546 459.808 135.245 465.713C115.943 471.617 87.5272 465.15 87.7953 461.214C88.0634 457.277 92.8887 379.39 92.8887 379.39C92.8887 379.39 64.7408 482.865 29.891 458.683C-4.95888 434.502 2.81534 430.003 6.03224 428.316C9.24915 426.629 57.7708 346.492 57.5027 331.59C57.2347 316.687 58.0389 270.011 63.9366 262.982C83.4149 262.982 94.2673 259.686 100.127 258.483Z" fill="url(#paint10_linear_2816_29650)"/>
<path d="M71.6212 168.767C65.1018 168.767 59.8167 164.873 59.8167 160.071C59.8167 155.269 65.1018 151.375 71.6212 151.375C78.1407 151.375 83.4258 155.269 83.4258 160.071C83.4258 164.873 78.1407 168.767 71.6212 168.767Z" fill="#23286B"/>
<path d="M51.9295 159.639C45.6515 159.639 40.5622 154.312 40.5622 147.74C40.5622 141.168 45.6515 135.841 51.9295 135.841C58.2075 135.841 63.2969 141.168 63.2969 147.74C63.2969 154.312 58.2075 159.639 51.9295 159.639Z" fill="#23286B"/>
<path d="M44.0897 155.843C46.9401 155.843 49.6864 154.728 51.784 152.719C53.8816 150.711 55.1775 147.956 55.4147 145C55.4405 145.325 55.457 145.653 55.457 145.986C55.457 149.123 54.2594 152.132 52.1276 154.35C49.9958 156.568 47.1045 157.815 44.0897 157.815C41.0749 157.815 38.1836 156.568 36.0518 154.35C33.92 152.132 32.7224 149.123 32.7224 145.986C32.7224 145.653 32.7389 145.325 32.7647 145C33.0019 147.956 34.2978 150.711 36.3954 152.719C38.493 154.728 41.2393 155.843 44.0897 155.843Z" fill="#23286B"/>
<path d="M43.981 248.444L45.3516 264.137L42.6104 311.216C42.6104 311.216 36.3056 335.035 45.8998 334.475C55.494 333.914 51.9305 309.534 51.9305 309.534L56.3164 254.889L43.981 248.444Z" fill="#FFB8B8"/>
<path d="M52.3498 206.309L45.37 210.247C45.37 210.247 35.9741 244.572 41.3432 251.043C46.7122 257.514 57.7189 260.046 58.2558 257.514C58.7927 254.982 60.6719 236.132 60.6719 236.132L52.3498 206.309Z" fill="url(#paint11_linear_2816_29650)"/>
<defs>
<filter id="filter0_d_2816_29650" x="235.907" y="383.556" width="1.92114" height="2.58398" filterUnits="userSpaceOnUse" color-interpolation-filters="sRGB">
<feFlood flood-opacity="0" result="BackgroundImageFix"/>
<feColorMatrix in="SourceAlpha" type="matrix" values="0 0 0 0 0 0 0 0 0 0 0 0 0 0 0 0 0 0 127 0" result="hardAlpha"/>
<feOffset dy="0.776977"/>
<feGaussianBlur stdDeviation="0.388488"/>
<feColorMatrix type="matrix" values="0 0 0 0 0 0 0 0 0 0 0 0 0 0 0 0 0 0 0.25 0"/>
<feBlend mode="normal" in2="BackgroundImageFix" result="effect1_dropShadow_2816_29650"/>
<feBlend mode="normal" in="SourceGraphic" in2="effect1_dropShadow_2816_29650" result="shape"/>
</filter>
<filter id="filter1_d_2816_29650" x="230.26" y="452.827" width="13.2825" height="22.1194" filterUnits="userSpaceOnUse" color-interpolation-filters="sRGB">
<feFlood flood-opacity="0" result="BackgroundImageFix"/>
<feColorMatrix in="SourceAlpha" type="matrix" values="0 0 0 0 0 0 0 0 0 0 0 0 0 0 0 0 0 0 127 0" result="hardAlpha"/>
<feOffset dy="0.776977"/>
<feGaussianBlur stdDeviation="0.388488"/>
<feColorMatrix type="matrix" values="0 0 0 0 0 0 0 0 0 0 0 0 0 0 0 0 0 0 0.25 0"/>
<feBlend mode="normal" in2="BackgroundImageFix" result="effect1_dropShadow_2816_29650"/>
<feBlend mode="normal" in="SourceGraphic" in2="effect1_dropShadow_2816_29650" result="shape"/>
</filter>
<filter id="filter2_d_2816_29650" x="433.282" y="402.127" width="4.25317" height="16.5564" filterUnits="userSpaceOnUse" color-interpolation-filters="sRGB">
<feFlood flood-opacity="0" result="BackgroundImageFix"/>
<feColorMatrix in="SourceAlpha" type="matrix" values="0 0 0 0 0 0 0 0 0 0 0 0 0 0 0 0 0 0 127 0" result="hardAlpha"/>
<feOffset dy="0.776977"/>
<feGaussianBlur stdDeviation="0.388488"/>
<feColorMatrix type="matrix" values="0 0 0 0 0 0 0 0 0 0 0 0 0 0 0 0 0 0 0.25 0"/>
<feBlend mode="normal" in2="BackgroundImageFix" result="effect1_dropShadow_2816_29650"/>
<feBlend mode="normal" in="SourceGraphic" in2="effect1_dropShadow_2816_29650" result="shape"/>
</filter>
<filter id="filter3_d_2816_29650" x="439.703" y="442.526" width="12.2336" height="19.6199" filterUnits="userSpaceOnUse" color-interpolation-filters="sRGB">
<feFlood flood-opacity="0" result="BackgroundImageFix"/>
<feColorMatrix in="SourceAlpha" type="matrix" values="0 0 0 0 0 0 0 0 0 0 0 0 0 0 0 0 0 0 127 0" result="hardAlpha"/>
<feOffset dy="0.776977"/>
<feGaussianBlur stdDeviation="0.388488"/>
<feColorMatrix type="matrix" values="0 0 0 0 0 0 0 0 0 0 0 0 0 0 0 0 0 0 0.25 0"/>
<feBlend mode="normal" in2="BackgroundImageFix" result="effect1_dropShadow_2816_29650"/>
<feBlend mode="normal" in="SourceGraphic" in2="effect1_dropShadow_2816_29650" result="shape"/>
</filter>
<filter id="filter4_d_2816_29650" x="433.77" y="452.858" width="8.37036" height="17.5339" filterUnits="userSpaceOnUse" color-interpolation-filters="sRGB">
<feFlood flood-opacity="0" result="BackgroundImageFix"/>
<feColorMatrix in="SourceAlpha" type="matrix" values="0 0 0 0 0 0 0 0 0 0 0 0 0 0 0 0 0 0 127 0" result="hardAlpha"/>
<feOffset dy="0.776977"/>
<feGaussianBlur stdDeviation="0.388488"/>
<feColorMatrix type="matrix" values="0 0 0 0 0 0 0 0 0 0 0 0 0 0 0 0 0 0 0.25 0"/>
<feBlend mode="normal" in2="BackgroundImageFix" result="effect1_dropShadow_2816_29650"/>
<feBlend mode="normal" in="SourceGraphic" in2="effect1_dropShadow_2816_29650" result="shape"/>
</filter>
<filter id="filter5_d_2816_29650" x="456.789" y="394.713" width="3.3938" height="10.7339" filterUnits="userSpaceOnUse" color-interpolation-filters="sRGB">
<feFlood flood-opacity="0" result="BackgroundImageFix"/>
<feColorMatrix in="SourceAlpha" type="matrix" values="0 0 0 0 0 0 0 0 0 0 0 0 0 0 0 0 0 0 127 0" result="hardAlpha"/>
<feOffset dy="0.776977"/>
<feGaussianBlur stdDeviation="0.388488"/>
<feColorMatrix type="matrix" values="0 0 0 0 0 0 0 0 0 0 0 0 0 0 0 0 0 0 0.25 0"/>
<feBlend mode="normal" in2="BackgroundImageFix" result="effect1_dropShadow_2816_29650"/>
<feBlend mode="normal" in="SourceGraphic" in2="effect1_dropShadow_2816_29650" result="shape"/>
</filter>
<filter id="filter6_d_2816_29650" x="440.188" y="372.18" width="2.06958" height="8.21167" filterUnits="userSpaceOnUse" color-interpolation-filters="sRGB">
<feFlood flood-opacity="0" result="BackgroundImageFix"/>
<feColorMatrix in="SourceAlpha" type="matrix" values="0 0 0 0 0 0 0 0 0 0 0 0 0 0 0 0 0 0 127 0" result="hardAlpha"/>
<feOffset dy="0.776977"/>
<feGaussianBlur stdDeviation="0.388488"/>
<feColorMatrix type="matrix" values="0 0 0 0 0 0 0 0 0 0 0 0 0 0 0 0 0 0 0.25 0"/>
<feBlend mode="normal" in2="BackgroundImageFix" result="effect1_dropShadow_2816_29650"/>
<feBlend mode="normal" in="SourceGraphic" in2="effect1_dropShadow_2816_29650" result="shape"/>
</filter>
<filter id="filter7_d_2816_29650" x="459.789" y="411.249" width="3.5813" height="7.48608" filterUnits="userSpaceOnUse" color-interpolation-filters="sRGB">
<feFlood flood-opacity="0" result="BackgroundImageFix"/>
<feColorMatrix in="SourceAlpha" type="matrix" values="0 0 0 0 0 0 0 0 0 0 0 0 0 0 0 0 0 0 127 0" result="hardAlpha"/>
<feOffset dy="0.776977"/>
<feGaussianBlur stdDeviation="0.388488"/>
<feColorMatrix type="matrix" values="0 0 0 0 0 0 0 0 0 0 0 0 0 0 0 0 0 0 0.25 0"/>
<feBlend mode="normal" in2="BackgroundImageFix" result="effect1_dropShadow_2816_29650"/>
<feBlend mode="normal" in="SourceGraphic" in2="effect1_dropShadow_2816_29650" result="shape"/>
</filter>
<filter id="filter8_d_2816_29650" x="429.969" y="430.216" width="6.36645" height="15.2961" filterUnits="userSpaceOnUse" color-interpolation-filters="sRGB">
<feFlood flood-opacity="0" result="BackgroundImageFix"/>
<feColorMatrix in="SourceAlpha" type="matrix" values="0 0 0 0 0 0 0 0 0 0 0 0 0 0 0 0 0 0 127 0" result="hardAlpha"/>
<feOffset dy="0.776977"/>
<feGaussianBlur stdDeviation="0.388488"/>
<feColorMatrix type="matrix" values="0 0 0 0 0 0 0 0 0 0 0 0 0 0 0 0 0 0 0.25 0"/>
<feBlend mode="normal" in2="BackgroundImageFix" result="effect1_dropShadow_2816_29650"/>
<feBlend mode="normal" in="SourceGraphic" in2="effect1_dropShadow_2816_29650" result="shape"/>
</filter>
<filter id="filter9_d_2816_29650" x="454.95" y="380.741" width="21.3157" height="25.2424" filterUnits="userSpaceOnUse" color-interpolation-filters="sRGB">
<feFlood flood-opacity="0" result="BackgroundImageFix"/>
<feColorMatrix in="SourceAlpha" type="matrix" values="0 0 0 0 0 0 0 0 0 0 0 0 0 0 0 0 0 0 127 0" result="hardAlpha"/>
<feOffset dy="0.776977"/>
<feGaussianBlur stdDeviation="0.388488"/>
<feColorMatrix type="matrix" values="0 0 0 0 0 0 0 0 0 0 0 0 0 0 0 0 0 0 0.25 0"/>
<feBlend mode="normal" in2="BackgroundImageFix" result="effect1_dropShadow_2816_29650"/>
<feBlend mode="normal" in="SourceGraphic" in2="effect1_dropShadow_2816_29650" result="shape"/>
</filter>
<filter id="filter10_d_2816_29650" x="474.7" y="396.959" width="9.1477" height="10.5281" filterUnits="userSpaceOnUse" color-interpolation-filters="sRGB">
<feFlood flood-opacity="0" result="BackgroundImageFix"/>
<feColorMatrix in="SourceAlpha" type="matrix" values="0 0 0 0 0 0 0 0 0 0 0 0 0 0 0 0 0 0 127 0" result="hardAlpha"/>
<feOffset dy="0.776977"/>
<feGaussianBlur stdDeviation="0.388488"/>
<feColorMatrix type="matrix" values="0 0 0 0 0 0 0 0 0 0 0 0 0 0 0 0 0 0 0.25 0"/>
<feBlend mode="normal" in2="BackgroundImageFix" result="effect1_dropShadow_2816_29650"/>
<feBlend mode="normal" in="SourceGraphic" in2="effect1_dropShadow_2816_29650" result="shape"/>
</filter>
<filter id="filter11_d_2816_29650" x="481.797" y="380.693" width="5.50317" height="13.9697" filterUnits="userSpaceOnUse" color-interpolation-filters="sRGB">
<feFlood flood-opacity="0" result="BackgroundImageFix"/>
<feColorMatrix in="SourceAlpha" type="matrix" values="0 0 0 0 0 0 0 0 0 0 0 0 0 0 0 0 0 0 127 0" result="hardAlpha"/>
<feOffset dy="0.776977"/>
<feGaussianBlur stdDeviation="0.388488"/>
<feColorMatrix type="matrix" values="0 0 0 0 0 0 0 0 0 0 0 0 0 0 0 0 0 0 0.25 0"/>
<feBlend mode="normal" in2="BackgroundImageFix" result="effect1_dropShadow_2816_29650"/>
<feBlend mode="normal" in="SourceGraphic" in2="effect1_dropShadow_2816_29650" result="shape"/>
</filter>
<filter id="filter12_d_2816_29650" x="454.739" y="445.042" width="6.53442" height="8.66382" filterUnits="userSpaceOnUse" color-interpolation-filters="sRGB">
<feFlood flood-opacity="0" result="BackgroundImageFix"/>
<feColorMatrix in="SourceAlpha" type="matrix" values="0 0 0 0 0 0 0 0 0 0 0 0 0 0 0 0 0 0 127 0" result="hardAlpha"/>
<feOffset dy="0.776977"/>
<feGaussianBlur stdDeviation="0.388488"/>
<feColorMatrix type="matrix" values="0 0 0 0 0 0 0 0 0 0 0 0 0 0 0 0 0 0 0.25 0"/>
<feBlend mode="normal" in2="BackgroundImageFix" result="effect1_dropShadow_2816_29650"/>
<feBlend mode="normal" in="SourceGraphic" in2="effect1_dropShadow_2816_29650" result="shape"/>
</filter>
<filter id="filter13_d_2816_29650" x="446.418" y="450.037" width="9.96802" height="7.58203" filterUnits="userSpaceOnUse" color-interpolation-filters="sRGB">
<feFlood flood-opacity="0" result="BackgroundImageFix"/>
<feColorMatrix in="SourceAlpha" type="matrix" values="0 0 0 0 0 0 0 0 0 0 0 0 0 0 0 0 0 0 127 0" result="hardAlpha"/>
<feOffset dy="0.776977"/>
<feGaussianBlur stdDeviation="0.388488"/>
<feColorMatrix type="matrix" values="0 0 0 0 0 0 0 0 0 0 0 0 0 0 0 0 0 0 0.25 0"/>
<feBlend mode="normal" in2="BackgroundImageFix" result="effect1_dropShadow_2816_29650"/>
<feBlend mode="normal" in="SourceGraphic" in2="effect1_dropShadow_2816_29650" result="shape"/>
</filter>
<filter id="filter14_d_2816_29650" x="459.625" y="427.884" width="4.7727" height="15.3892" filterUnits="userSpaceOnUse" color-interpolation-filters="sRGB">
<feFlood flood-opacity="0" result="BackgroundImageFix"/>
<feColorMatrix in="SourceAlpha" type="matrix" values="0 0 0 0 0 0 0 0 0 0 0 0 0 0 0 0 0 0 127 0" result="hardAlpha"/>
<feOffset dy="0.776977"/>
<feGaussianBlur stdDeviation="0.388488"/>
<feColorMatrix type="matrix" values="0 0 0 0 0 0 0 0 0 0 0 0 0 0 0 0 0 0 0.25 0"/>
<feBlend mode="normal" in2="BackgroundImageFix" result="effect1_dropShadow_2816_29650"/>
<feBlend mode="normal" in="SourceGraphic" in2="effect1_dropShadow_2816_29650" result="shape"/>
</filter>
<linearGradient id="paint0_linear_2816_29650" x1="614.391" y1="223.749" x2="645.663" y2="289.951" gradientUnits="userSpaceOnUse">
<stop stop-color="#A1C3FC"/>
<stop offset="1" stop-color="#7DB4F8"/>
</linearGradient>
<linearGradient id="paint1_linear_2816_29650" x1="218.009" y1="523.728" x2="337.231" y2="530.299" gradientUnits="userSpaceOnUse">
<stop stop-color="#A1C3FC"/>
<stop offset="1" stop-color="#7DB4F8"/>
</linearGradient>
<linearGradient id="paint2_linear_2816_29650" x1="249.353" y1="516.783" x2="360.318" y2="521.237" gradientUnits="userSpaceOnUse">
<stop stop-color="#A1C3FC"/>
<stop offset="1" stop-color="#7DB4F8"/>
</linearGradient>
<linearGradient id="paint3_linear_2816_29650" x1="214.663" y1="516.651" x2="288.553" y2="519.815" gradientUnits="userSpaceOnUse">
<stop stop-color="#A1C3FC"/>
<stop offset="1" stop-color="#7DB4F8"/>
</linearGradient>
<linearGradient id="paint4_linear_2816_29650" x1="467.803" y1="544.1" x2="467.803" y2="357.822" gradientUnits="userSpaceOnUse">
<stop stop-color="#808080" stop-opacity="0.25"/>
<stop offset="0.53514" stop-color="#808080" stop-opacity="0.12"/>
<stop offset="1" stop-color="#808080" stop-opacity="0.1"/>
</linearGradient>
<linearGradient id="paint5_linear_2816_29650" x1="494.022" y1="456.16" x2="416.526" y2="458.102" gradientUnits="userSpaceOnUse">
<stop stop-color="#A1C3FC"/>
<stop offset="1" stop-color="#7DB4F8"/>
</linearGradient>
<linearGradient id="paint6_linear_2816_29650" x1="435.143" y1="460.849" x2="414.709" y2="461.043" gradientUnits="userSpaceOnUse">
<stop stop-color="#A1C3FC"/>
<stop offset="1" stop-color="#7DB4F8"/>
</linearGradient>
<linearGradient id="paint7_linear_2816_29650" x1="503.842" y1="458.944" x2="486.328" y2="459.109" gradientUnits="userSpaceOnUse">
<stop stop-color="#A1C3FC"/>
<stop offset="1" stop-color="#7DB4F8"/>
</linearGradient>
<linearGradient id="paint8_linear_2816_29650" x1="96.5612" y1="273.72" x2="120.701" y2="250.419" gradientUnits="userSpaceOnUse">
<stop stop-color="#03062B"/>
<stop offset="1" stop-color="#23286B"/>
</linearGradient>
<linearGradient id="paint9_linear_2816_29650" x1="23.7478" y1="547.695" x2="152.033" y2="373.904" gradientUnits="userSpaceOnUse">
<stop stop-color="#03062B"/>
<stop offset="1" stop-color="#23286B"/>
</linearGradient>
<linearGradient id="paint10_linear_2816_29650" x1="19.8352" y1="361.43" x2="156.246" y2="363.816" gradientUnits="userSpaceOnUse">
<stop stop-color="#A1C3FC"/>
<stop offset="1" stop-color="#7DB4F8"/>
</linearGradient>
<linearGradient id="paint11_linear_2816_29650" x1="42.8813" y1="274.178" x2="69.318" y2="246.242" gradientUnits="userSpaceOnUse">
<stop stop-color="#03062B"/>
<stop offset="1" stop-color="#23286B"/>
</linearGradient>
</defs>
</svg>
