<svg width="158" height="35" viewBox="0 0 158 35" fill="none" xmlns="http://www.w3.org/2000/svg">
<path fill-rule="evenodd" clip-rule="evenodd" d="M13.1376 17.6207L20.3082 28.9218C20.8402 29.7677 20.9424 30.4922 20.6143 31.0952C20.2866 31.6985 19.6191 32.0002 18.612 32.0002H2.19024C1.18299 32.0002 0.515359 31.6985 0.187484 31.0952C-0.140391 30.4922 -0.0381893 29.7675 0.493841 28.9217L7.66396 17.6206V11.9341L7.6861 10.2235H13.1204L13.1376 11.9341V17.6207ZM9.20717 18.5909L5.80859 23.5835H15.005L11.6016 18.5909L11.3166 18.149V17.6218V11.9354H9.49221V17.6218V18.149L9.20717 18.5909Z" fill="white"/>
<rect x="4.16406" y="4.21191" width="3.37204" height="3.37131" rx="1.68566" fill="white"/>
<rect x="12.5898" y="4.21191" width="3.37204" height="3.37131" rx="1.68566" fill="white"/>
<rect x="9.22266" width="2.52903" height="2.52848" rx="1.26424" fill="white"/>
<rect x="5.80078" y="10.0205" width="9.19644" height="2.08726" rx="1.04363" fill="white"/>
<path d="M29.9902 23.4688H32.8145C33.4551 23.4688 33.9961 23.5664 34.4375 23.7617C34.8828 23.957 35.2207 24.2461 35.4512 24.6289C35.6855 25.0078 35.8027 25.4746 35.8027 26.0293C35.8027 26.4199 35.7227 26.7773 35.5625 27.1016C35.4062 27.4219 35.1797 27.6953 34.8828 27.9219C34.5898 28.1445 34.2383 28.3105 33.8281 28.4199L33.5117 28.543H30.8574L30.8457 27.623H32.8496C33.2559 27.623 33.5938 27.5527 33.8633 27.4121C34.1328 27.2676 34.3359 27.0742 34.4727 26.832C34.6094 26.5898 34.6777 26.3223 34.6777 26.0293C34.6777 25.7012 34.6133 25.4141 34.4844 25.168C34.3555 24.9219 34.1523 24.7324 33.875 24.5996C33.6016 24.4629 33.248 24.3945 32.8145 24.3945H31.1211V32H29.9902V23.4688ZM34.9766 32L32.9023 28.1328L34.0801 28.127L36.1836 31.9297V32H34.9766ZM40.8516 32.1172C40.4102 32.1172 40.0098 32.043 39.6504 31.8945C39.2949 31.7422 38.9883 31.5293 38.7305 31.2559C38.4766 30.9824 38.2812 30.6582 38.1445 30.2832C38.0078 29.9082 37.9395 29.498 37.9395 29.0527V28.8066C37.9395 28.291 38.0156 27.832 38.168 27.4297C38.3203 27.0234 38.5273 26.6797 38.7891 26.3984C39.0508 26.1172 39.3477 25.9043 39.6797 25.7598C40.0117 25.6152 40.3555 25.543 40.7109 25.543C41.1641 25.543 41.5547 25.6211 41.8828 25.7773C42.2148 25.9336 42.4863 26.1523 42.6973 26.4336C42.9082 26.7109 43.0645 27.0391 43.166 27.418C43.2676 27.793 43.3184 28.2031 43.3184 28.6484V29.1348H38.584V28.25H42.2344V28.168C42.2188 27.8867 42.1602 27.6133 42.0586 27.3477C41.9609 27.082 41.8047 26.8633 41.5898 26.6914C41.375 26.5195 41.082 26.4336 40.7109 26.4336C40.4648 26.4336 40.2383 26.4863 40.0312 26.5918C39.8242 26.6934 39.6465 26.8457 39.498 27.0488C39.3496 27.252 39.2344 27.5 39.1523 27.793C39.0703 28.0859 39.0293 28.4238 39.0293 28.8066V29.0527C39.0293 29.3535 39.0703 29.6367 39.1523 29.9023C39.2383 30.1641 39.3613 30.3945 39.5215 30.5938C39.6855 30.793 39.8828 30.9492 40.1133 31.0625C40.3477 31.1758 40.6133 31.2324 40.9102 31.2324C41.293 31.2324 41.6172 31.1543 41.8828 30.998C42.1484 30.8418 42.3809 30.6328 42.5801 30.3711L43.2363 30.8926C43.0996 31.0996 42.9258 31.2969 42.7148 31.4844C42.5039 31.6719 42.2441 31.8242 41.9355 31.9414C41.6309 32.0586 41.2695 32.1172 40.8516 32.1172ZM47.2012 32H46.1172V24.9922C46.1172 24.5352 46.1992 24.1504 46.3633 23.8379C46.5312 23.5215 46.7715 23.2832 47.084 23.123C47.3965 22.959 47.7676 22.877 48.1973 22.877C48.3223 22.877 48.4473 22.8848 48.5723 22.9004C48.7012 22.916 48.8262 22.9395 48.9473 22.9707L48.8887 23.8555C48.8066 23.8359 48.7129 23.8223 48.6074 23.8145C48.5059 23.8066 48.4043 23.8027 48.3027 23.8027C48.0723 23.8027 47.873 23.8496 47.7051 23.9434C47.541 24.0332 47.416 24.166 47.3301 24.3418C47.2441 24.5176 47.2012 24.7344 47.2012 24.9922V32ZM48.5488 25.6602V26.4922H45.1152V25.6602H48.5488ZM53.2461 32.1172C52.8047 32.1172 52.4043 32.043 52.0449 31.8945C51.6895 31.7422 51.3828 31.5293 51.125 31.2559C50.8711 30.9824 50.6758 30.6582 50.5391 30.2832C50.4023 29.9082 50.334 29.498 50.334 29.0527V28.8066C50.334 28.291 50.4102 27.832 50.5625 27.4297C50.7148 27.0234 50.9219 26.6797 51.1836 26.3984C51.4453 26.1172 51.7422 25.9043 52.0742 25.7598C52.4062 25.6152 52.75 25.543 53.1055 25.543C53.5586 25.543 53.9492 25.6211 54.2773 25.7773C54.6094 25.9336 54.8809 26.1523 55.0918 26.4336C55.3027 26.7109 55.459 27.0391 55.5605 27.418C55.6621 27.793 55.7129 28.2031 55.7129 28.6484V29.1348H50.9785V28.25H54.6289V28.168C54.6133 27.8867 54.5547 27.6133 54.4531 27.3477C54.3555 27.082 54.1992 26.8633 53.9844 26.6914C53.7695 26.5195 53.4766 26.4336 53.1055 26.4336C52.8594 26.4336 52.6328 26.4863 52.4258 26.5918C52.2188 26.6934 52.041 26.8457 51.8926 27.0488C51.7441 27.252 51.6289 27.5 51.5469 27.793C51.4648 28.0859 51.4238 28.4238 51.4238 28.8066V29.0527C51.4238 29.3535 51.4648 29.6367 51.5469 29.9023C51.6328 30.1641 51.7559 30.3945 51.916 30.5938C52.0801 30.793 52.2773 30.9492 52.5078 31.0625C52.7422 31.1758 53.0078 31.2324 53.3047 31.2324C53.6875 31.2324 54.0117 31.1543 54.2773 30.998C54.543 30.8418 54.7754 30.6328 54.9746 30.3711L55.6309 30.8926C55.4941 31.0996 55.3203 31.2969 55.1094 31.4844C54.8984 31.6719 54.6387 31.8242 54.3301 31.9414C54.0254 32.0586 53.6641 32.1172 53.2461 32.1172ZM59.0625 26.6562V32H57.9785V25.6602H59.0332L59.0625 26.6562ZM61.043 25.625L61.0371 26.6328C60.9473 26.6133 60.8613 26.6016 60.7793 26.5977C60.7012 26.5898 60.6113 26.5859 60.5098 26.5859C60.2598 26.5859 60.0391 26.625 59.8477 26.7031C59.6562 26.7812 59.4941 26.8906 59.3613 27.0312C59.2285 27.1719 59.123 27.3398 59.0449 27.5352C58.9707 27.7266 58.9219 27.9375 58.8984 28.168L58.5938 28.3438C58.5938 27.9609 58.6309 27.6016 58.7051 27.2656C58.7832 26.9297 58.9023 26.6328 59.0625 26.375C59.2227 26.1133 59.4258 25.9102 59.6719 25.7656C59.9219 25.6172 60.2188 25.543 60.5625 25.543C60.6406 25.543 60.7305 25.5527 60.832 25.5723C60.9336 25.5879 61.0039 25.6055 61.043 25.625ZM65.5586 32.1172C65.1172 32.1172 64.7168 32.043 64.3574 31.8945C64.002 31.7422 63.6953 31.5293 63.4375 31.2559C63.1836 30.9824 62.9883 30.6582 62.8516 30.2832C62.7148 29.9082 62.6465 29.498 62.6465 29.0527V28.8066C62.6465 28.291 62.7227 27.832 62.875 27.4297C63.0273 27.0234 63.2344 26.6797 63.4961 26.3984C63.7578 26.1172 64.0547 25.9043 64.3867 25.7598C64.7188 25.6152 65.0625 25.543 65.418 25.543C65.8711 25.543 66.2617 25.6211 66.5898 25.7773C66.9219 25.9336 67.1934 26.1523 67.4043 26.4336C67.6152 26.7109 67.7715 27.0391 67.873 27.418C67.9746 27.793 68.0254 28.2031 68.0254 28.6484V29.1348H63.291V28.25H66.9414V28.168C66.9258 27.8867 66.8672 27.6133 66.7656 27.3477C66.668 27.082 66.5117 26.8633 66.2969 26.6914C66.082 26.5195 65.7891 26.4336 65.418 26.4336C65.1719 26.4336 64.9453 26.4863 64.7383 26.5918C64.5312 26.6934 64.3535 26.8457 64.2051 27.0488C64.0566 27.252 63.9414 27.5 63.8594 27.793C63.7773 28.0859 63.7363 28.4238 63.7363 28.8066V29.0527C63.7363 29.3535 63.7773 29.6367 63.8594 29.9023C63.9453 30.1641 64.0684 30.3945 64.2285 30.5938C64.3926 30.793 64.5898 30.9492 64.8203 31.0625C65.0547 31.1758 65.3203 31.2324 65.6172 31.2324C66 31.2324 66.3242 31.1543 66.5898 30.998C66.8555 30.8418 67.0879 30.6328 67.2871 30.3711L67.9434 30.8926C67.8066 31.0996 67.6328 31.2969 67.4219 31.4844C67.2109 31.6719 66.9512 31.8242 66.6426 31.9414C66.3379 32.0586 65.9766 32.1172 65.5586 32.1172ZM71.375 27.0137V32H70.291V25.6602H71.3164L71.375 27.0137ZM71.1172 28.5898L70.666 28.5723C70.6699 28.1387 70.7344 27.7383 70.8594 27.3711C70.9844 27 71.1602 26.6777 71.3867 26.4043C71.6133 26.1309 71.8828 25.9199 72.1953 25.7715C72.5117 25.6191 72.8613 25.543 73.2441 25.543C73.5566 25.543 73.8379 25.5859 74.0879 25.6719C74.3379 25.7539 74.5508 25.8867 74.7266 26.0703C74.9062 26.2539 75.043 26.4922 75.1367 26.7852C75.2305 27.0742 75.2773 27.4277 75.2773 27.8457V32H74.1875V27.834C74.1875 27.502 74.1387 27.2363 74.041 27.0371C73.9434 26.834 73.8008 26.6875 73.6133 26.5977C73.4258 26.5039 73.1953 26.457 72.9219 26.457C72.6523 26.457 72.4062 26.5137 72.1836 26.627C71.9648 26.7402 71.7754 26.8965 71.6152 27.0957C71.459 27.2949 71.3359 27.5234 71.2461 27.7812C71.1602 28.0352 71.1172 28.3047 71.1172 28.5898ZM80.4609 31.2266C80.7188 31.2266 80.957 31.1738 81.1758 31.0684C81.3945 30.9629 81.5742 30.8184 81.7148 30.6348C81.8555 30.4473 81.9355 30.2344 81.9551 29.9961H82.9863C82.9668 30.3711 82.8398 30.7207 82.6055 31.0449C82.375 31.3652 82.0723 31.625 81.6973 31.8242C81.3223 32.0195 80.9102 32.1172 80.4609 32.1172C79.9844 32.1172 79.5684 32.0332 79.2129 31.8652C78.8613 31.6973 78.5684 31.4668 78.334 31.1738C78.1035 30.8809 77.9297 30.5449 77.8125 30.166C77.6992 29.7832 77.6426 29.3789 77.6426 28.9531V28.707C77.6426 28.2812 77.6992 27.8789 77.8125 27.5C77.9297 27.1172 78.1035 26.7793 78.334 26.4863C78.5684 26.1934 78.8613 25.9629 79.2129 25.7949C79.5684 25.627 79.9844 25.543 80.4609 25.543C80.957 25.543 81.3906 25.6445 81.7617 25.8477C82.1328 26.0469 82.4238 26.3203 82.6348 26.668C82.8496 27.0117 82.9668 27.4023 82.9863 27.8398H81.9551C81.9355 27.5781 81.8613 27.3418 81.7324 27.1309C81.6074 26.9199 81.4355 26.752 81.2168 26.627C81.002 26.498 80.75 26.4336 80.4609 26.4336C80.1289 26.4336 79.8496 26.5 79.623 26.6328C79.4004 26.7617 79.2227 26.9375 79.0898 27.1602C78.9609 27.3789 78.8672 27.623 78.8086 27.8926C78.7539 28.1582 78.7266 28.4297 78.7266 28.707V28.9531C78.7266 29.2305 78.7539 29.5039 78.8086 29.7734C78.8633 30.043 78.9551 30.2871 79.084 30.5059C79.2168 30.7246 79.3945 30.9004 79.6172 31.0332C79.8438 31.1621 80.125 31.2266 80.4609 31.2266ZM87.8359 32.1172C87.3945 32.1172 86.9941 32.043 86.6348 31.8945C86.2793 31.7422 85.9727 31.5293 85.7148 31.2559C85.4609 30.9824 85.2656 30.6582 85.1289 30.2832C84.9922 29.9082 84.9238 29.498 84.9238 29.0527V28.8066C84.9238 28.291 85 27.832 85.1523 27.4297C85.3047 27.0234 85.5117 26.6797 85.7734 26.3984C86.0352 26.1172 86.332 25.9043 86.6641 25.7598C86.9961 25.6152 87.3398 25.543 87.6953 25.543C88.1484 25.543 88.5391 25.6211 88.8672 25.7773C89.1992 25.9336 89.4707 26.1523 89.6816 26.4336C89.8926 26.7109 90.0488 27.0391 90.1504 27.418C90.252 27.793 90.3027 28.2031 90.3027 28.6484V29.1348H85.5684V28.25H89.2188V28.168C89.2031 27.8867 89.1445 27.6133 89.043 27.3477C88.9453 27.082 88.7891 26.8633 88.5742 26.6914C88.3594 26.5195 88.0664 26.4336 87.6953 26.4336C87.4492 26.4336 87.2227 26.4863 87.0156 26.5918C86.8086 26.6934 86.6309 26.8457 86.4824 27.0488C86.334 27.252 86.2188 27.5 86.1367 27.793C86.0547 28.0859 86.0137 28.4238 86.0137 28.8066V29.0527C86.0137 29.3535 86.0547 29.6367 86.1367 29.9023C86.2227 30.1641 86.3457 30.3945 86.5059 30.5938C86.6699 30.793 86.8672 30.9492 87.0977 31.0625C87.332 31.1758 87.5977 31.2324 87.8945 31.2324C88.2773 31.2324 88.6016 31.1543 88.8672 30.998C89.1328 30.8418 89.3652 30.6328 89.5645 30.3711L90.2207 30.8926C90.084 31.0996 89.9102 31.2969 89.6992 31.4844C89.4883 31.6719 89.2285 31.8242 88.9199 31.9414C88.6152 32.0586 88.2539 32.1172 87.8359 32.1172ZM97.623 26.9199V32H96.5332V25.6602H97.5645L97.623 26.9199ZM97.4004 28.5898L96.8965 28.5723C96.9004 28.1387 96.957 27.7383 97.0664 27.3711C97.1758 27 97.3379 26.6777 97.5527 26.4043C97.7676 26.1309 98.0352 25.9199 98.3555 25.7715C98.6758 25.6191 99.0469 25.543 99.4688 25.543C99.7656 25.543 100.039 25.5859 100.289 25.6719C100.539 25.7539 100.756 25.8848 100.939 26.0645C101.123 26.2441 101.266 26.4746 101.367 26.7559C101.469 27.0371 101.52 27.377 101.52 27.7754V32H100.436V27.8281C100.436 27.4961 100.379 27.2305 100.266 27.0312C100.156 26.832 100 26.6875 99.7969 26.5977C99.5938 26.5039 99.3555 26.457 99.082 26.457C98.7617 26.457 98.4941 26.5137 98.2793 26.627C98.0645 26.7402 97.8926 26.8965 97.7637 27.0957C97.6348 27.2949 97.541 27.5234 97.4824 27.7812C97.4277 28.0352 97.4004 28.3047 97.4004 28.5898ZM101.508 27.9922L100.781 28.2148C100.785 27.8672 100.842 27.5332 100.951 27.2129C101.064 26.8926 101.227 26.6074 101.438 26.3574C101.652 26.1074 101.916 25.9102 102.229 25.7656C102.541 25.6172 102.898 25.543 103.301 25.543C103.641 25.543 103.941 25.5879 104.203 25.6777C104.469 25.7676 104.691 25.9062 104.871 26.0938C105.055 26.2773 105.193 26.5137 105.287 26.8027C105.381 27.0918 105.428 27.4355 105.428 27.834V32H104.338V27.8223C104.338 27.4668 104.281 27.1914 104.168 26.9961C104.059 26.7969 103.902 26.6582 103.699 26.5801C103.5 26.498 103.262 26.457 102.984 26.457C102.746 26.457 102.535 26.498 102.352 26.5801C102.168 26.6621 102.014 26.7754 101.889 26.9199C101.764 27.0605 101.668 27.2227 101.602 27.4062C101.539 27.5898 101.508 27.7852 101.508 27.9922ZM111.807 30.916V27.6523C111.807 27.4023 111.756 27.1855 111.654 27.002C111.557 26.8145 111.408 26.6699 111.209 26.5684C111.01 26.4668 110.764 26.416 110.471 26.416C110.197 26.416 109.957 26.4629 109.75 26.5566C109.547 26.6504 109.387 26.7734 109.27 26.9258C109.156 27.0781 109.1 27.2422 109.1 27.418H108.016C108.016 27.1914 108.074 26.9668 108.191 26.7441C108.309 26.5215 108.477 26.3203 108.695 26.1406C108.918 25.957 109.184 25.8125 109.492 25.707C109.805 25.5977 110.152 25.543 110.535 25.543C110.996 25.543 111.402 25.6211 111.754 25.7773C112.109 25.9336 112.387 26.1699 112.586 26.4863C112.789 26.7988 112.891 27.1914 112.891 27.6641V30.6172C112.891 30.8281 112.908 31.0527 112.943 31.291C112.982 31.5293 113.039 31.7344 113.113 31.9062V32H111.982C111.928 31.875 111.885 31.709 111.854 31.502C111.822 31.291 111.807 31.0957 111.807 30.916ZM111.994 28.1562L112.006 28.918H110.91C110.602 28.918 110.326 28.9434 110.084 28.9941C109.842 29.041 109.639 29.1133 109.475 29.2109C109.311 29.3086 109.186 29.4316 109.1 29.5801C109.014 29.7246 108.971 29.8945 108.971 30.0898C108.971 30.2891 109.016 30.4707 109.105 30.6348C109.195 30.7988 109.33 30.9297 109.51 31.0273C109.693 31.1211 109.918 31.168 110.184 31.168C110.516 31.168 110.809 31.0977 111.062 30.957C111.316 30.8164 111.518 30.6445 111.666 30.4414C111.818 30.2383 111.9 30.041 111.912 29.8496L112.375 30.3711C112.348 30.5352 112.273 30.7168 112.152 30.916C112.031 31.1152 111.869 31.3066 111.666 31.4902C111.467 31.6699 111.229 31.8203 110.951 31.9414C110.678 32.0586 110.369 32.1172 110.025 32.1172C109.596 32.1172 109.219 32.0332 108.895 31.8652C108.574 31.6973 108.324 31.4727 108.145 31.1914C107.969 30.9062 107.881 30.5879 107.881 30.2363C107.881 29.8965 107.947 29.5977 108.08 29.3398C108.213 29.0781 108.404 28.8613 108.654 28.6895C108.904 28.5137 109.205 28.3809 109.557 28.291C109.908 28.2012 110.301 28.1562 110.734 28.1562H111.994ZM116.68 27.0137V32H115.596V25.6602H116.621L116.68 27.0137ZM116.422 28.5898L115.971 28.5723C115.975 28.1387 116.039 27.7383 116.164 27.3711C116.289 27 116.465 26.6777 116.691 26.4043C116.918 26.1309 117.188 25.9199 117.5 25.7715C117.816 25.6191 118.166 25.543 118.549 25.543C118.861 25.543 119.143 25.5859 119.393 25.6719C119.643 25.7539 119.855 25.8867 120.031 26.0703C120.211 26.2539 120.348 26.4922 120.441 26.7852C120.535 27.0742 120.582 27.4277 120.582 27.8457V32H119.492V27.834C119.492 27.502 119.443 27.2363 119.346 27.0371C119.248 26.834 119.105 26.6875 118.918 26.5977C118.73 26.5039 118.5 26.457 118.227 26.457C117.957 26.457 117.711 26.5137 117.488 26.627C117.27 26.7402 117.08 26.8965 116.92 27.0957C116.764 27.2949 116.641 27.5234 116.551 27.7812C116.465 28.0352 116.422 28.3047 116.422 28.5898ZM126.967 30.916V27.6523C126.967 27.4023 126.916 27.1855 126.814 27.002C126.717 26.8145 126.568 26.6699 126.369 26.5684C126.17 26.4668 125.924 26.416 125.631 26.416C125.357 26.416 125.117 26.4629 124.91 26.5566C124.707 26.6504 124.547 26.7734 124.43 26.9258C124.316 27.0781 124.26 27.2422 124.26 27.418H123.176C123.176 27.1914 123.234 26.9668 123.352 26.7441C123.469 26.5215 123.637 26.3203 123.855 26.1406C124.078 25.957 124.344 25.8125 124.652 25.707C124.965 25.5977 125.312 25.543 125.695 25.543C126.156 25.543 126.562 25.6211 126.914 25.7773C127.27 25.9336 127.547 26.1699 127.746 26.4863C127.949 26.7988 128.051 27.1914 128.051 27.6641V30.6172C128.051 30.8281 128.068 31.0527 128.104 31.291C128.143 31.5293 128.199 31.7344 128.273 31.9062V32H127.143C127.088 31.875 127.045 31.709 127.014 31.502C126.982 31.291 126.967 31.0957 126.967 30.916ZM127.154 28.1562L127.166 28.918H126.07C125.762 28.918 125.486 28.9434 125.244 28.9941C125.002 29.041 124.799 29.1133 124.635 29.2109C124.471 29.3086 124.346 29.4316 124.26 29.5801C124.174 29.7246 124.131 29.8945 124.131 30.0898C124.131 30.2891 124.176 30.4707 124.266 30.6348C124.355 30.7988 124.49 30.9297 124.67 31.0273C124.854 31.1211 125.078 31.168 125.344 31.168C125.676 31.168 125.969 31.0977 126.223 30.957C126.477 30.8164 126.678 30.6445 126.826 30.4414C126.979 30.2383 127.061 30.041 127.072 29.8496L127.535 30.3711C127.508 30.5352 127.434 30.7168 127.312 30.916C127.191 31.1152 127.029 31.3066 126.826 31.4902C126.627 31.6699 126.389 31.8203 126.111 31.9414C125.838 32.0586 125.529 32.1172 125.186 32.1172C124.756 32.1172 124.379 32.0332 124.055 31.8652C123.734 31.6973 123.484 31.4727 123.305 31.1914C123.129 30.9062 123.041 30.5879 123.041 30.2363C123.041 29.8965 123.107 29.5977 123.24 29.3398C123.373 29.0781 123.564 28.8613 123.814 28.6895C124.064 28.5137 124.365 28.3809 124.717 28.291C125.068 28.2012 125.461 28.1562 125.895 28.1562H127.154ZM134.863 25.6602H135.848V31.8652C135.848 32.4238 135.734 32.9004 135.508 33.2949C135.281 33.6895 134.965 33.9883 134.559 34.1914C134.156 34.3984 133.691 34.502 133.164 34.502C132.945 34.502 132.688 34.4668 132.391 34.3965C132.098 34.3301 131.809 34.2148 131.523 34.0508C131.242 33.8906 131.006 33.6738 130.814 33.4004L131.383 32.7559C131.648 33.0762 131.926 33.2988 132.215 33.4238C132.508 33.5488 132.797 33.6113 133.082 33.6113C133.426 33.6113 133.723 33.5469 133.973 33.418C134.223 33.2891 134.416 33.0977 134.553 32.8438C134.693 32.5938 134.764 32.2852 134.764 31.918V27.0547L134.863 25.6602ZM130.498 28.9004V28.7773C130.498 28.293 130.555 27.8535 130.668 27.459C130.785 27.0605 130.951 26.7188 131.166 26.4336C131.385 26.1484 131.648 25.9297 131.957 25.7773C132.266 25.6211 132.613 25.543 133 25.543C133.398 25.543 133.746 25.6133 134.043 25.7539C134.344 25.8906 134.598 26.0918 134.805 26.3574C135.016 26.6191 135.182 26.9355 135.303 27.3066C135.424 27.6777 135.508 28.0977 135.555 28.5664V29.1055C135.512 29.5703 135.428 29.9883 135.303 30.3594C135.182 30.7305 135.016 31.0469 134.805 31.3086C134.598 31.5703 134.344 31.7715 134.043 31.9121C133.742 32.0488 133.391 32.1172 132.988 32.1172C132.609 32.1172 132.266 32.0371 131.957 31.877C131.652 31.7168 131.391 31.4922 131.172 31.2031C130.953 30.9141 130.785 30.5742 130.668 30.1836C130.555 29.7891 130.498 29.3613 130.498 28.9004ZM131.582 28.7773V28.9004C131.582 29.2168 131.613 29.5137 131.676 29.791C131.742 30.0684 131.842 30.3125 131.975 30.5234C132.111 30.7344 132.285 30.9004 132.496 31.0215C132.707 31.1387 132.959 31.1973 133.252 31.1973C133.611 31.1973 133.908 31.1211 134.143 30.9688C134.377 30.8164 134.562 30.6152 134.699 30.3652C134.84 30.1152 134.949 29.8438 135.027 29.5508V28.1387C134.984 27.9238 134.918 27.7168 134.828 27.5176C134.742 27.3145 134.629 27.1348 134.488 26.9785C134.352 26.8184 134.182 26.6914 133.979 26.5977C133.775 26.5039 133.537 26.457 133.264 26.457C132.967 26.457 132.711 26.5195 132.496 26.6445C132.285 26.7656 132.111 26.9336 131.975 27.1484C131.842 27.3594 131.742 27.6055 131.676 27.8867C131.613 28.1641 131.582 28.4609 131.582 28.7773ZM141.125 32.1172C140.684 32.1172 140.283 32.043 139.924 31.8945C139.568 31.7422 139.262 31.5293 139.004 31.2559C138.75 30.9824 138.555 30.6582 138.418 30.2832C138.281 29.9082 138.213 29.498 138.213 29.0527V28.8066C138.213 28.291 138.289 27.832 138.441 27.4297C138.594 27.0234 138.801 26.6797 139.062 26.3984C139.324 26.1172 139.621 25.9043 139.953 25.7598C140.285 25.6152 140.629 25.543 140.984 25.543C141.438 25.543 141.828 25.6211 142.156 25.7773C142.488 25.9336 142.76 26.1523 142.971 26.4336C143.182 26.7109 143.338 27.0391 143.439 27.418C143.541 27.793 143.592 28.2031 143.592 28.6484V29.1348H138.857V28.25H142.508V28.168C142.492 27.8867 142.434 27.6133 142.332 27.3477C142.234 27.082 142.078 26.8633 141.863 26.6914C141.648 26.5195 141.355 26.4336 140.984 26.4336C140.738 26.4336 140.512 26.4863 140.305 26.5918C140.098 26.6934 139.92 26.8457 139.771 27.0488C139.623 27.252 139.508 27.5 139.426 27.793C139.344 28.0859 139.303 28.4238 139.303 28.8066V29.0527C139.303 29.3535 139.344 29.6367 139.426 29.9023C139.512 30.1641 139.635 30.3945 139.795 30.5938C139.959 30.793 140.156 30.9492 140.387 31.0625C140.621 31.1758 140.887 31.2324 141.184 31.2324C141.566 31.2324 141.891 31.1543 142.156 30.998C142.422 30.8418 142.654 30.6328 142.854 30.3711L143.51 30.8926C143.373 31.0996 143.199 31.2969 142.988 31.4844C142.777 31.6719 142.518 31.8242 142.209 31.9414C141.904 32.0586 141.543 32.1172 141.125 32.1172ZM146.941 26.6562V32H145.857V25.6602H146.912L146.941 26.6562ZM148.922 25.625L148.916 26.6328C148.826 26.6133 148.74 26.6016 148.658 26.5977C148.58 26.5898 148.49 26.5859 148.389 26.5859C148.139 26.5859 147.918 26.625 147.727 26.7031C147.535 26.7812 147.373 26.8906 147.24 27.0312C147.107 27.1719 147.002 27.3398 146.924 27.5352C146.85 27.7266 146.801 27.9375 146.777 28.168L146.473 28.3438C146.473 27.9609 146.51 27.6016 146.584 27.2656C146.662 26.9297 146.781 26.6328 146.941 26.375C147.102 26.1133 147.305 25.9102 147.551 25.7656C147.801 25.6172 148.098 25.543 148.441 25.543C148.52 25.543 148.609 25.5527 148.711 25.5723C148.812 25.5879 148.883 25.6055 148.922 25.625Z" fill="white"/>
<path d="M29 17.4239V4.36778H34.8845C35.4974 4.36778 36.0614 4.4965 36.5762 4.75395C37.1034 4.99913 37.557 5.33626 37.937 5.76534C38.3171 6.18216 38.6113 6.65414 38.8197 7.18129C39.0404 7.70844 39.1507 8.24172 39.1507 8.78113C39.1507 9.59024 38.9546 10.3381 38.5623 11.0246C38.1822 11.6988 37.6673 12.2137 37.0176 12.5693L39.8863 17.4239H36.5579L34.057 13.2129H32.0158V17.4239H29ZM32.0158 10.5832H34.7741C35.1297 10.5832 35.4361 10.4177 35.6936 10.0867C35.951 9.74348 36.0797 9.30828 36.0797 8.78113C36.0797 8.25398 35.9326 7.83103 35.6384 7.51229C35.3442 7.18129 35.0254 7.01579 34.6822 7.01579H32.0158V10.5832Z" fill="white"/>
<path d="M45.3725 17.6078C44.2814 17.6078 43.3497 17.381 42.5774 16.9274C41.805 16.4738 41.2105 15.8731 40.7936 15.1253C40.3891 14.3775 40.1868 13.5684 40.1868 12.698C40.1868 11.7663 40.3891 10.9142 40.7936 10.1419C41.1982 9.36957 41.7866 8.75048 42.559 8.28463C43.3313 7.81877 44.2692 7.58584 45.3725 7.58584C46.4636 7.58584 47.3953 7.81877 48.1676 8.28463C48.9399 8.75048 49.5223 9.36344 49.9146 10.1235C50.3191 10.8836 50.5214 11.6988 50.5214 12.5693C50.5214 12.9248 50.4969 13.2374 50.4478 13.5071H43.3129C43.362 14.1568 43.5949 14.6533 44.0117 14.9966C44.4408 15.3276 44.925 15.4931 45.4644 15.4931C45.8935 15.4931 46.3042 15.3889 46.6965 15.1805C47.0888 14.9721 47.3585 14.6901 47.5056 14.3346L50.0065 15.0334C49.6265 15.7934 49.0319 16.4125 48.2228 16.8907C47.4259 17.3688 46.4758 17.6078 45.3725 17.6078ZM43.2394 11.705H47.4321C47.3708 11.092 47.144 10.6078 46.7517 10.2522C46.3716 9.88446 45.8996 9.70057 45.3357 9.70057C44.7718 9.70057 44.2937 9.88446 43.9014 10.2522C43.5213 10.62 43.3007 11.1043 43.2394 11.705Z" fill="white"/>
<path d="M55.5511 17.6078C54.7174 17.6078 53.9083 17.473 53.1237 17.2033C52.3514 16.9213 51.6955 16.5229 51.1561 16.008L52.1675 14.1507C53.3566 15.0211 54.4539 15.4563 55.4591 15.4563C55.8392 15.4563 56.1334 15.395 56.3418 15.2724C56.5502 15.1498 56.6544 14.9598 56.6544 14.7024C56.6544 14.4327 56.5134 14.2426 56.2315 14.1323C55.9495 14.0097 55.5327 13.8687 54.981 13.7094C54.2454 13.4642 53.6325 13.2251 53.1421 12.9922C52.6517 12.7593 52.284 12.4773 52.0388 12.1463C51.7936 11.8153 51.671 11.374 51.671 10.8223C51.671 9.85382 52.0326 9.07535 52.7559 8.4869C53.4792 7.8862 54.46 7.58584 55.6982 7.58584C56.3602 7.58584 57.0038 7.69005 57.629 7.89846C58.2665 8.10686 58.8611 8.45625 59.4127 8.94663L58.2726 10.7855C57.721 10.4055 57.2306 10.1296 56.8015 9.95802C56.3724 9.78639 55.9556 9.70057 55.5511 9.70057C55.2323 9.70057 54.9626 9.76187 54.7419 9.88446C54.5213 9.9948 54.4109 10.1909 54.4109 10.4729C54.4109 10.7426 54.5335 10.9449 54.7787 11.0797C55.0239 11.2023 55.4039 11.3372 55.9188 11.4843C56.7034 11.7172 57.3593 11.9563 57.8865 12.2015C58.4259 12.4344 58.8243 12.7286 59.0817 13.0841C59.3514 13.4274 59.4863 13.8871 59.4863 14.4633C59.4863 15.4441 59.1308 16.2164 58.4197 16.7803C57.7087 17.332 56.7525 17.6078 55.5511 17.6078Z" fill="white"/>
<path d="M65.6111 17.6078C64.52 17.6078 63.5883 17.381 62.816 16.9274C62.0437 16.4738 61.4491 15.8731 61.0323 15.1253C60.6277 14.3775 60.4254 13.5684 60.4254 12.698C60.4254 11.7663 60.6277 10.9142 61.0323 10.1419C61.4368 9.36957 62.0253 8.75048 62.7976 8.28463C63.5699 7.81877 64.5078 7.58584 65.6111 7.58584C66.7022 7.58584 67.6339 7.81877 68.4062 8.28463C69.1786 8.75048 69.7609 9.36344 70.1532 10.1235C70.5577 10.8836 70.76 11.6988 70.76 12.5693C70.76 12.9248 70.7355 13.2374 70.6865 13.5071H63.5515C63.6006 14.1568 63.8335 14.6533 64.2503 14.9966C64.6794 15.3276 65.1636 15.4931 65.7031 15.4931C66.1321 15.4931 66.5428 15.3889 66.9351 15.1805C67.3274 14.9721 67.5971 14.6901 67.7442 14.3346L70.2451 15.0334C69.8651 15.7934 69.2705 16.4125 68.4614 16.8907C67.6645 17.3688 66.7144 17.6078 65.6111 17.6078ZM63.478 11.705H67.6707C67.6094 11.092 67.3826 10.6078 66.9903 10.2522C66.6102 9.88446 66.1383 9.70057 65.5743 9.70057C65.0104 9.70057 64.5323 9.88446 64.14 10.2522C63.76 10.62 63.5393 11.1043 63.478 11.705Z" fill="white"/>
<path d="M71.4867 14.5369C71.4867 13.8994 71.6644 13.3416 72.0199 12.8635C72.3755 12.3854 72.8658 12.0115 73.4911 11.7417C74.1163 11.4598 74.8335 11.3188 75.6426 11.3188C76.0349 11.3188 76.421 11.3556 76.8011 11.4291C77.1811 11.4904 77.5121 11.5824 77.7941 11.705V11.282C77.7941 10.1909 77.1505 9.64541 75.8632 9.64541C75.3238 9.64541 74.8151 9.73735 74.337 9.92124C73.8711 10.1051 73.3746 10.3687 72.8474 10.712L71.9648 8.83629C73.2397 8.00266 74.6373 7.58584 76.1575 7.58584C77.6041 7.58584 78.7258 7.93524 79.5226 8.63402C80.3318 9.32054 80.7363 10.3197 80.7363 11.6314V14.1507C80.7363 14.4449 80.7792 14.6533 80.865 14.7759C80.9631 14.8985 81.1286 14.9659 81.3615 14.9782V17.4239C81.1041 17.473 80.8712 17.5097 80.6628 17.5343C80.4543 17.5588 80.2705 17.571 80.1111 17.571C79.5594 17.571 79.1365 17.4607 78.8422 17.24C78.5603 17.0194 78.3825 16.719 78.309 16.339L78.2538 15.916C77.8247 16.4677 77.3098 16.8907 76.7091 17.1849C76.1084 17.4668 75.4893 17.6078 74.8518 17.6078C74.2144 17.6078 73.6382 17.473 73.1233 17.2033C72.6207 16.9336 72.2222 16.5719 71.928 16.1183C71.6338 15.6525 71.4867 15.1253 71.4867 14.5369ZM77.3344 14.9046C77.6408 14.6595 77.7941 14.4081 77.7941 14.1507V13.2864C77.5366 13.1883 77.2547 13.1148 76.9482 13.0658C76.654 13.0045 76.3843 12.9738 76.1391 12.9738C75.5874 12.9738 75.1338 13.0964 74.7783 13.3416C74.435 13.5868 74.2634 13.8994 74.2634 14.2794C74.2634 14.6104 74.3921 14.8985 74.6496 15.1437C74.9193 15.3766 75.2748 15.4931 75.7161 15.4931C76.0103 15.4931 76.3046 15.4379 76.5988 15.3276C76.893 15.2173 77.1382 15.0763 77.3344 14.9046Z" fill="white"/>
<path d="M88.9918 10.289C88.2808 10.3013 87.6371 10.4177 87.061 10.6384C86.4848 10.8591 86.068 11.1901 85.8105 11.6314V17.4239H82.8683V7.76973H85.5714V9.71896C85.9025 9.06922 86.3315 8.56046 86.8587 8.19268C87.3858 7.8249 87.9375 7.63488 88.5137 7.62262C88.7589 7.62262 88.9182 7.62875 88.9918 7.64101V10.289Z" fill="white"/>
<path d="M94.7748 17.6078C93.696 17.6078 92.7643 17.3749 91.9797 16.909C91.2074 16.4432 90.6128 15.8302 90.196 15.0701C89.7914 14.3101 89.5891 13.4826 89.5891 12.5876C89.5891 11.705 89.7914 10.8836 90.196 10.1235C90.6128 9.36344 91.2074 8.75048 91.9797 8.28463C92.7521 7.81877 93.6838 7.58584 94.7748 7.58584C95.8782 7.58584 96.8099 7.8249 97.57 8.30301C98.3423 8.76887 98.9185 9.38183 99.2985 10.1419L96.4298 11.0062C96.0498 10.3932 95.492 10.0867 94.7564 10.0867C94.1557 10.0867 93.647 10.3135 93.2302 10.7671C92.8133 11.2207 92.6049 11.8276 92.6049 12.5876C92.6049 13.3477 92.8133 13.9607 93.2302 14.4265C93.647 14.8924 94.1557 15.1253 94.7564 15.1253C95.1242 15.1253 95.4614 15.0395 95.7678 14.8679C96.0743 14.684 96.3011 14.4511 96.4482 14.1691L99.3169 15.0518C98.9614 15.7996 98.3913 16.4125 97.6067 16.8907C96.8344 17.3688 95.8904 17.6078 94.7748 17.6078Z" fill="white"/>
<path d="M109.951 17.4239H107.009V11.9992C107.009 11.374 106.881 10.9142 106.623 10.62C106.378 10.3258 106.047 10.1787 105.63 10.1787C105.287 10.1787 104.901 10.3381 104.472 10.6568C104.055 10.9633 103.761 11.374 103.589 11.8889V17.4239H100.647V4H103.589V9.38796C103.932 8.81178 104.398 8.37044 104.986 8.06396C105.575 7.74522 106.219 7.58584 106.917 7.58584C107.567 7.58584 108.094 7.69618 108.499 7.91685C108.903 8.13751 109.21 8.43174 109.418 8.79952C109.627 9.15504 109.768 9.54733 109.841 9.97641C109.915 10.4055 109.951 10.8284 109.951 11.2452V17.4239Z" fill="white"/>
<path d="M122.829 4.36778V17.4239H121.561V11.3188H113.819V17.4239H112.532V4.36778H113.819V10.1787H121.561V4.36778H122.829Z" fill="white"/>
<path d="M125.758 13.4703V7.84329H127.009V13.2496C127.009 15.4195 127.75 16.5045 129.234 16.5045C129.969 16.5045 130.656 16.2654 131.293 15.7873C131.943 15.3092 132.409 14.6717 132.691 13.8749V7.84329H133.941V15.916C133.941 16.247 134.089 16.4187 134.383 16.4309V17.4239C134.236 17.4485 134.119 17.4607 134.033 17.4607C133.96 17.4607 133.88 17.4607 133.794 17.4607C133.537 17.4362 133.316 17.3381 133.132 17.1665C132.961 16.9949 132.875 16.7864 132.875 16.5413L132.838 15.254C132.421 16.0019 131.851 16.5842 131.128 17.001C130.417 17.4055 129.645 17.6078 128.811 17.6078C126.776 17.6078 125.758 16.2287 125.758 13.4703Z" fill="white"/>
<path d="M141.458 17.6078C140.71 17.6078 140.017 17.4178 139.38 17.0378C138.742 16.6455 138.246 16.1551 137.89 15.5666V17.4239H136.769V4H138.019V9.84769C138.448 9.19794 138.963 8.67692 139.564 8.28463C140.165 7.88007 140.863 7.67779 141.66 7.67779C142.334 7.67779 142.935 7.81877 143.462 8.10074C144.002 8.3827 144.461 8.76274 144.841 9.24085C145.222 9.7067 145.51 10.24 145.706 10.8407C145.902 11.4291 146 12.036 146 12.6612C146 13.5561 145.798 14.3775 145.393 15.1253C145.001 15.8731 144.461 16.4738 143.775 16.9274C143.088 17.381 142.316 17.6078 141.458 17.6078ZM141.164 16.5045C141.862 16.5045 142.475 16.3206 143.003 15.9528C143.542 15.585 143.965 15.1131 144.271 14.5369C144.578 13.9484 144.731 13.3232 144.731 12.6612C144.731 11.9869 144.584 11.3556 144.29 10.7671C144.008 10.1787 143.609 9.70057 143.095 9.33279C142.58 8.96502 141.985 8.78113 141.311 8.78113C140.563 8.78113 139.901 9.02018 139.325 9.4983C138.761 9.97641 138.326 10.5342 138.019 11.1717V14.1507C138.08 14.592 138.283 14.9905 138.626 15.346C138.969 15.7015 139.374 15.9835 139.84 16.1919C140.306 16.4003 140.747 16.5045 141.164 16.5045Z" fill="white"/>
</svg>
