<svg width="1280" height="715" viewBox="0 0 1280 715" fill="none" xmlns="http://www.w3.org/2000/svg">
<rect width="1280" height="715" fill="url(#paint0_linear_1_402)"/>
<path opacity="0.2" d="M100.948 699.949C100.496 698.579 100.566 697.091 101.143 695.77C101.721 694.448 102.765 693.386 104.077 692.787C104.281 692.694 104.473 692.578 104.65 692.441C105.156 692.054 105.522 691.513 105.693 690.9C105.864 690.286 105.832 689.634 105.6 689.041C105.368 688.448 104.95 687.946 104.408 687.611C103.867 687.276 103.231 687.127 102.597 687.185C102.376 687.207 102.158 687.256 101.949 687.331C100.579 687.782 99.0911 687.712 97.7696 687.135C96.448 686.557 95.3859 685.513 94.7865 684.201C94.6939 683.997 94.5779 683.805 94.4409 683.628C94.0538 683.123 93.5128 682.757 92.8995 682.585C92.2862 682.414 91.6338 682.447 91.0407 682.678C90.4476 682.91 89.9458 683.328 89.611 683.87C89.2762 684.412 89.1265 685.047 89.1845 685.682C89.2071 685.903 89.2561 686.12 89.3307 686.329C89.782 687.699 89.7123 689.187 89.1349 690.509C88.5574 691.83 87.5128 692.892 86.2011 693.492C85.9974 693.584 85.8052 693.7 85.6283 693.837C85.1227 694.225 84.7567 694.765 84.5854 695.379C84.414 695.992 84.4467 696.644 84.6784 697.238C84.9101 697.831 85.3282 698.332 85.8699 698.667C86.4116 699.002 87.0474 699.152 87.6815 699.094C87.8983 699.074 88.1119 699.028 88.3179 698.958C89.6877 698.506 91.1757 698.576 92.4973 699.154C93.8188 699.731 94.8809 700.776 95.4803 702.087C95.5729 702.291 95.6889 702.483 95.8259 702.66C96.2131 703.166 96.7541 703.532 97.3674 703.703C97.9807 703.874 98.633 703.842 99.2261 703.61C99.8193 703.378 100.321 702.96 100.656 702.419C100.991 701.877 101.14 701.241 101.082 700.607C101.064 700.383 101.019 700.162 100.948 699.949V699.949Z" fill="white"/>
<path opacity="0.2" d="M203.634 818.445C202.722 815.679 202.863 812.674 204.029 810.005C205.195 807.337 207.304 805.192 209.953 803.982C210.365 803.795 210.753 803.56 211.11 803.284C212.131 802.502 212.87 801.41 213.216 800.171C213.562 798.933 213.496 797.615 213.028 796.418C212.56 795.22 211.716 794.207 210.622 793.531C209.528 792.855 208.244 792.552 206.964 792.669C206.518 792.715 206.078 792.814 205.656 792.965C202.89 793.876 199.885 793.735 197.216 792.569C194.548 791.403 192.403 789.294 191.192 786.645C191.005 786.234 190.771 785.845 190.495 785.488C189.713 784.467 188.62 783.728 187.382 783.382C186.143 783.036 184.826 783.102 183.628 783.57C182.431 784.038 181.417 784.882 180.741 785.976C180.065 787.07 179.763 788.354 179.88 789.634C179.926 790.081 180.025 790.52 180.175 790.943C181.087 793.709 180.946 796.713 179.78 799.382C178.614 802.051 176.505 804.195 173.856 805.406C173.444 805.593 173.056 805.827 172.699 806.104C171.678 806.885 170.939 807.978 170.593 809.216C170.247 810.455 170.313 811.772 170.781 812.97C171.249 814.167 172.093 815.181 173.187 815.857C174.281 816.533 175.565 816.835 176.845 816.718C177.283 816.677 177.714 816.585 178.13 816.443C180.896 815.532 183.901 815.673 186.57 816.839C189.238 818.005 191.383 820.114 192.593 822.763C192.781 823.174 193.015 823.563 193.291 823.92C194.073 824.941 195.166 825.68 196.404 826.026C197.643 826.372 198.96 826.306 200.158 825.838C201.355 825.37 202.369 824.526 203.045 823.432C203.721 822.338 204.023 821.054 203.906 819.774C203.869 819.321 203.778 818.875 203.634 818.445V818.445Z" fill="white"/>
<g filter="url(#filter0_b_1_402)">
<rect x="311" y="542" width="668" height="332" rx="8" fill="white" fill-opacity="0.1"/>
<rect x="311.7" y="542.7" width="666.6" height="330.6" rx="7.3" stroke="white" stroke-opacity="0.3" stroke-width="1.4"/>
<rect x="331.6" y="590.6" width="53.8" height="267.8" rx="2.30373" stroke="white" stroke-opacity="0.3" stroke-width="1.2"/>
<rect x="396.6" y="590.6" width="435.8" height="59.8" rx="2.30373" stroke="white" stroke-opacity="0.3" stroke-width="1.2"/>
<g opacity="0.15">
<rect x="404" y="598" width="28" height="9" rx="4.5" fill="white"/>
</g>
<g opacity="0.15">
<rect x="404" y="613" width="246" height="9" rx="2" fill="white"/>
</g>
<g opacity="0.15">
<rect x="404" y="625" width="393" height="4" rx="1" fill="white"/>
</g>
<g opacity="0.15">
<rect x="404" y="632" width="336" height="4" rx="1" fill="white"/>
</g>
<g opacity="0.15">
<rect x="404" y="639" width="171" height="4" rx="1" fill="white"/>
</g>
<rect x="396.6" y="732.6" width="435.8" height="59.8" rx="2.30373" stroke="white" stroke-opacity="0.3" stroke-width="1.2"/>
<g opacity="0.15">
<rect x="404" y="740" width="28" height="9" rx="4.5" fill="white"/>
</g>
<g opacity="0.15">
<rect x="404" y="755" width="280" height="9" rx="2" fill="white"/>
</g>
<g opacity="0.15">
<rect x="404" y="767" width="393" height="4" rx="1" fill="white"/>
</g>
<g opacity="0.15">
<rect x="404" y="774" width="363" height="4" rx="1" fill="white"/>
</g>
<g opacity="0.15">
<rect x="404" y="781" width="261" height="4" rx="1" fill="white"/>
</g>
<rect x="396.6" y="803.6" width="435.8" height="59.8" rx="2.30373" stroke="white" stroke-opacity="0.3" stroke-width="1.2"/>
<g opacity="0.15">
<rect x="404" y="811" width="28" height="9" rx="4.5" fill="white"/>
</g>
<g opacity="0.15">
<rect x="404" y="826" width="141" height="9" rx="2" fill="white"/>
</g>
<g opacity="0.15">
<rect x="404" y="838" width="415" height="4" rx="1" fill="white"/>
</g>
<g opacity="0.15">
<rect x="404" y="845" width="363" height="4" rx="1" fill="white"/>
</g>
<g opacity="0.15">
<rect x="404" y="852" width="203" height="4" rx="1" fill="white"/>
</g>
<rect x="396.6" y="661.6" width="435.8" height="59.8" rx="2.30373" stroke="white" stroke-opacity="0.3" stroke-width="1.2"/>
<g opacity="0.15">
<rect x="404" y="669" width="28" height="9" rx="4.5" fill="white"/>
</g>
<g opacity="0.15">
<rect x="404" y="684" width="198" height="9" rx="2" fill="white"/>
</g>
<g opacity="0.15">
<rect x="404" y="696" width="327" height="4" rx="1" fill="white"/>
</g>
<g opacity="0.15">
<rect x="404" y="703" width="368" height="4" rx="1" fill="white"/>
</g>
<g opacity="0.15">
<rect x="404" y="710" width="211" height="4" rx="1" fill="white"/>
</g>
<rect x="958.4" y="590.6" width="267.8" height="114.8" rx="2.30373" transform="rotate(90 958.4 590.6)" stroke="white" stroke-opacity="0.3" stroke-width="1.2"/>
<rect x="958.4" y="562.6" width="16.8" height="626.8" rx="2.30373" transform="rotate(90 958.4 562.6)" stroke="white" stroke-opacity="0.3" stroke-width="1.2"/>
</g>
<path d="M905.723 854.06C905.723 854.06 894.84 856.831 890.533 862.011C888.92 863.766 886.935 865.094 884.74 865.884V858.051C887.228 853.652 889.739 848.76 889.739 848.76C889.852 848.519 890.759 845.146 890.759 845.146C892.8 843.46 890.646 837.557 890.646 837.557C890.646 837.557 891.893 833.823 891.213 833.1C890.533 832.378 891.099 830.45 891.666 829.607C892.079 828.796 892.238 827.868 892.12 826.957C892.12 826.234 891.213 825.15 889.739 824.548C888.265 823.945 889.852 822.982 890.759 822.741C891.666 822.5 891.893 820.211 890.873 819.006C889.852 817.802 890.986 817.079 891.553 815.754C892.12 814.429 889.739 814.67 889.739 814.67V802.506L889.74 802.505C889.74 802.505 889.06 798.529 888.38 791.54C887.7 784.555 885.091 783.832 885.091 783.832C883.693 783.376 882.329 782.812 881.01 782.144C879.62 781.459 878.179 780.896 876.701 780.46C874.825 780.44 872.959 780.168 871.148 779.651C869.919 779.212 868.647 778.922 867.356 778.787C867.217 778.718 867.084 778.646 866.948 778.574C863.879 776.934 861.447 774.224 860.068 770.905C859.998 770.74 859.934 770.576 859.871 770.414C860.549 769.632 861.155 768.785 861.683 767.884L861.695 767.864C861.696 767.987 861.7 768.11 861.7 768.233C861.7 768.284 861.699 768.336 861.698 768.387C861.697 768.684 861.695 768.981 861.687 769.278L861.688 769.275L861.688 769.301C863.498 765.94 868.742 765.172 869.241 761.336C869.263 761.161 869.274 760.986 869.274 760.81L869.275 760.786C869.275 760.657 869.269 760.527 869.26 760.398C869.192 759.327 868.844 758.26 868.776 757.177C868.759 756.868 868.764 756.557 868.791 756.248L868.792 756.265C869.027 753.285 871.163 750.694 872.141 747.8C872.401 747.021 872.573 746.212 872.651 745.391L872.653 745.369C872.677 745.121 872.693 744.871 872.701 744.622C872.704 744.56 872.704 744.498 872.705 744.436C872.708 744.262 872.706 744.089 872.702 743.915C872.671 742.376 872.342 740.86 871.733 739.46C871.125 738.06 870.25 736.806 869.163 735.775C867.356 734.123 864.967 733.084 863.716 730.927C863.133 729.921 862.845 728.738 862.21 727.768C861.012 725.941 858.808 725.197 856.727 724.933C854.646 724.668 852.501 724.757 850.508 724.068C849.096 723.58 847.815 722.717 846.387 722.282C844.832 721.844 843.187 721.918 841.673 722.492C840.159 723.067 838.848 724.115 837.916 725.496C837.164 726.65 836.672 728.033 835.658 728.934C833.581 730.781 830.057 729.98 828.236 732.111C827.237 733.281 827.122 734.875 827.243 736.507L827.248 736.564C827.257 736.69 827.268 736.816 827.281 736.943C827.286 737.002 827.292 737.061 827.298 737.12C827.304 737.183 827.311 737.245 827.318 737.308C827.383 737.893 827.463 738.474 827.533 739.035C827.543 739.12 827.551 739.206 827.561 739.292C827.581 739.466 827.6 739.64 827.616 739.814C827.628 739.941 827.638 740.069 827.648 740.196C827.661 740.354 827.672 740.512 827.681 740.67C827.689 740.794 827.697 740.918 827.702 741.042C827.908 745.489 827.012 749.916 825.102 753.889C823.388 757.433 820.837 760.693 820.393 764.65C820.323 765.298 820.307 765.95 820.344 766.601C820.348 766.678 820.349 766.754 820.354 766.831C820.362 766.948 820.374 767.065 820.385 767.182C820.397 767.316 820.408 767.451 820.424 767.585C820.433 767.662 820.444 767.738 820.454 767.815C820.477 767.993 820.502 768.171 820.531 768.349C820.537 768.387 820.544 768.425 820.55 768.463C821 771.159 822.02 773.82 822.564 776.525C822.765 777.53 822.901 778.548 822.969 779.572L822.97 779.593C822.992 779.918 823.006 780.244 823.015 780.57C823.025 781.011 823.02 781.453 823.006 781.894C822.145 782.243 821.262 782.529 820.363 782.748C818.775 782.99 814.126 787.326 814.466 788.411C814.803 789.48 812.385 797.095 812.317 797.319L812.314 797.322L812.315 797.323L812.314 797.323L808.489 825.029C808.489 825.029 806.47 827.077 807.101 828.402C807.732 829.727 806.979 832.016 806.979 832.016C806.979 832.016 803.567 833.582 804.324 834.546C805.081 835.509 804.736 837.316 804.214 838.521C803.693 839.726 802.843 841.894 804.214 842.255C805.586 842.617 804.45 847.315 804.45 847.315C804.45 847.315 809.235 846.737 808.884 849.724C808.771 850.678 812.23 853.293 813.674 854.34V868.731C811.741 868.2 809.847 867.524 808.006 866.709C805.059 865.263 788.508 862.493 784.88 870.804C781.253 879.116 789.868 890.199 792.022 891.403C792.022 891.403 794.063 893.09 794.516 893.933C794.97 894.776 797.577 895.017 797.577 895.017C797.577 895.017 800.298 896.342 800.978 897.065C801.479 897.598 805.622 898.983 810.537 900.06L810.536 900.06C810.536 900.06 806.568 909.672 813.041 908.879C819.514 908.085 822.667 904.734 827.231 904.734C829.055 904.734 832.442 904.466 835.852 904.145C836.708 904.304 837.554 904.514 838.387 904.774C840.308 905.408 842.282 905.851 844.281 906.099C844.281 906.099 849.383 908.99 852.103 908.268C852.329 908.196 852.539 908.078 852.721 907.92C852.742 907.915 852.763 907.912 852.783 907.906C853.459 907.599 854.031 907.084 854.422 906.428C857.827 906.794 861.704 907.316 863.163 907.909C865.984 909.055 886.149 907.468 886.149 907.468C886.149 907.468 899.177 907.737 902.912 908.925C906.646 910.113 905.318 896.798 898.431 895.299C896.584 894.928 894.707 894.753 892.827 894.777C893.304 894.261 893.739 893.704 894.129 893.112C896.611 892.875 898.241 892.728 898.241 892.728C898.241 892.728 904.816 889.355 908.557 887.307C910.948 885.94 913.096 884.147 914.905 882.007C914.905 882.007 918.193 879.839 919.553 878.996C920.913 878.152 921.593 875.382 921.593 875.382C931.909 850.808 905.723 854.06 905.723 854.06ZM876.202 823.234C876.203 822.829 876.205 822.423 876.206 822.02C876.568 822.295 876.515 822.726 876.202 823.234ZM876.31 831.754C876.584 832.134 876.851 832.48 877.043 832.739C877.775 833.727 876.449 834.208 876.545 835.866C876.567 836.239 876.597 836.754 876.631 837.327H876.63C876.491 834.953 876.377 832.982 876.31 831.754H876.31Z" fill="url(#paint1_linear_1_402)"/>
<path d="M817.302 869.743C817.302 869.743 810.953 868.193 808.006 866.761C805.059 865.33 788.508 862.587 784.88 870.817C781.253 879.047 789.868 890.02 792.022 891.213C794.176 892.406 815.148 876.065 815.148 876.065L831.698 883.4L834.872 872.01L817.302 869.743Z" fill="#23286B"/>
<path d="M884.791 872.039H835.836C829.469 872.039 824.307 877.47 824.307 884.17V886.269C824.307 892.968 829.469 898.399 835.836 898.399H884.791C891.159 898.399 896.32 892.968 896.32 886.269V884.17C896.32 877.47 891.159 872.039 884.791 872.039Z" fill="#65617D"/>
<path opacity="0.7" d="M896.321 885.218C896.321 888.713 895.002 892.066 892.653 894.538C890.304 897.01 887.118 898.399 883.796 898.4H836.834C833.512 898.4 830.325 897.012 827.976 894.54C825.627 892.068 824.307 888.715 824.307 885.22C824.307 881.724 825.627 878.371 827.976 875.9C830.325 873.428 833.512 872.039 836.834 872.039H883.796C887.118 872.039 890.303 873.428 892.652 875.899C895.001 878.371 896.321 881.723 896.321 885.218Z" fill="#191E56"/>
<path d="M857.105 885.992C857.105 885.992 849.886 887.944 843.994 887.856C838.102 887.769 810.536 899.818 810.536 899.818C810.536 899.818 806.569 909.335 813.041 908.55C819.514 907.764 822.667 904.446 827.231 904.446C831.796 904.446 846.152 902.787 846.152 902.787L859.968 892.047L857.105 885.992Z" fill="#FBBEBE"/>
<path d="M861.635 796.2L848.682 798.888L847.842 799.063C847.842 799.063 837.602 796.2 837.262 795.961C836.922 795.725 827.627 782.542 827.627 782.542C827.627 782.542 832.327 782.596 836.021 780.356C836.153 780.277 836.282 780.191 836.412 780.105C838.041 779.079 839.279 777.487 839.914 775.604C839.979 775.407 840.037 775.203 840.091 774.992C840.514 773.056 840.476 771.041 839.982 769.124C838.731 763.563 841.632 762.031 845.499 762.164C851.083 762.357 858.687 766.025 858.687 766.025C858.784 767.897 859.188 769.736 859.881 771.464C859.942 771.625 860.01 771.786 860.078 771.95C861.464 775.245 863.896 777.929 866.958 779.544C867.094 779.615 867.226 779.687 867.366 779.755C867.777 779.962 868.213 780.159 868.665 780.338C878.527 784.274 861.635 796.2 861.635 796.2Z" fill="#FBBEBE"/>
<path opacity="0.1" d="M860.077 771.949C857.615 774.885 854.274 776.847 850.607 777.511C846.94 778.176 843.168 777.502 839.914 775.603C840.524 773.494 840.548 771.245 839.982 769.122C836.921 755.525 858.687 766.024 858.687 766.024C858.796 768.073 859.268 770.082 860.077 771.949Z" fill="black"/>
<path d="M864.181 759.823C864.185 763.037 863.328 766.188 861.708 768.912C861.179 769.805 860.573 770.643 859.896 771.417C857.041 774.713 853.074 776.705 848.843 776.967C848.516 776.989 848.187 776.999 847.857 776.999C844.628 776.999 841.472 775.992 838.788 774.105C836.103 772.217 834.011 769.535 832.775 766.396C831.54 763.258 831.217 759.804 831.846 756.473C832.476 753.141 834.031 750.08 836.314 747.678C838.597 745.276 841.506 743.64 844.672 742.978C847.839 742.315 851.121 742.655 854.104 743.955C857.086 745.255 859.636 747.457 861.43 750.281C863.223 753.106 864.181 756.426 864.181 759.823Z" fill="#FBBEBE"/>
<path opacity="0.1" d="M861.635 796.174L848.682 798.861L847.842 799.036C847.842 799.036 837.602 796.173 837.262 795.934C836.922 795.698 827.627 782.515 827.627 782.515C827.627 782.515 832.327 782.569 836.021 780.329C836.153 780.25 836.282 780.164 836.412 780.078C837.826 781.674 839.536 782.949 841.436 783.823C843.337 784.697 845.387 785.154 847.461 785.163C848.233 785.158 849.004 785.094 849.767 784.97C851.589 784.676 853.426 784.487 855.259 784.286C858.769 783.9 864.138 782.78 866.958 779.517C867.094 779.588 867.226 779.66 867.366 779.728C867.777 779.935 868.213 780.132 868.665 780.311C878.527 784.247 861.635 796.174 861.635 796.174Z" fill="black"/>
<path d="M876.265 830.987C876.377 833.613 878.193 863.191 878.193 863.191H821.624L822.008 844.57L822.317 829.674L822.419 824.786L822.872 807.85L821.236 806.332L812.329 798.067L812.333 798.063C812.401 797.841 814.819 790.302 814.482 789.243C814.142 788.169 818.791 783.875 820.379 783.635C821.283 783.417 822.172 783.132 823.038 782.784C825.711 781.796 829.279 780.343 829.673 780.569C830.228 780.884 835.792 780.34 836.026 780.315H836.033C837.45 782.047 839.204 783.439 841.177 784.397C843.149 785.354 845.294 785.855 847.467 785.865C848.239 785.86 849.009 785.795 849.772 785.671C851.595 785.378 853.432 785.188 855.265 784.988C858.951 784.584 864.685 783.367 867.372 779.714C868.662 779.847 869.934 780.134 871.163 780.569C872.975 781.081 874.841 781.35 876.717 781.37C878.194 781.802 879.635 782.359 881.026 783.038C882.345 783.699 883.709 784.258 885.107 784.709C885.107 784.709 887.715 785.424 888.395 792.341C889.076 799.262 889.756 803.198 889.756 803.198L876.265 815.482C876.265 815.482 876.152 828.364 876.265 830.987Z" fill="url(#paint2_linear_1_402)"/>
<path d="M812.341 851.623L814.323 854.963L821.75 857.717L826.851 847.925L822.148 844.585L814.608 841.485L810.3 844.108L812.341 851.623Z" fill="#FBBEBE"/>
<path d="M875.674 868.091C875.674 868.091 886.216 867.256 890.524 862.127C894.831 856.998 905.714 854.255 905.714 854.255C905.714 854.255 931.9 851.035 921.585 875.367C921.585 875.367 920.904 878.11 919.544 878.945C918.184 879.78 914.896 881.927 914.896 881.927L874.661 878.23L875.674 868.091Z" fill="#23286B"/>
<path opacity="0.1" d="M896.315 885.24C896.318 887.831 895.593 890.366 894.23 892.525C887.462 893.158 872.471 894.64 869.336 895.559C865.483 896.683 857.685 894.726 856.831 894.504C856.78 894.493 856.753 894.486 856.753 894.486C856.753 894.486 855.25 889.687 854.532 886.617C854.209 885.222 854.046 884.184 854.257 884.109C854.937 883.869 861.174 882.08 861.058 883.093C860.946 884.109 879.763 875.399 879.763 875.399L880.341 883.034C882.259 885.349 896.315 881.926 896.315 885.24Z" fill="black"/>
<path d="M915.721 878.832L914.927 881.933C913.115 884.055 910.967 885.831 908.579 887.181C904.838 889.209 898.263 892.549 898.263 892.549C898.263 892.549 874.118 894.696 870.037 895.889C865.956 897.081 857.454 894.815 857.454 894.815C857.454 894.815 854.28 884.677 854.96 884.438C855.64 884.199 861.875 882.41 861.761 883.424C861.648 884.438 880.466 875.731 880.466 875.731L915.721 878.832Z" fill="#23286B"/>
<path d="M848.477 905.584C848.477 905.584 860.344 906.457 863.165 907.592C865.987 908.727 886.152 907.156 886.152 907.156C886.152 907.156 899.18 907.423 902.914 908.599C906.648 909.775 905.321 896.591 898.433 895.106C891.546 893.622 881.836 895.805 881.836 895.805C881.836 895.805 870.883 894.321 869.555 894.146C868.227 893.971 859.474 894.231 859.474 894.231L848.477 905.584Z" fill="#FBBEBE"/>
<path opacity="0.1" d="M801.838 872.653C801.838 872.653 817.522 874.137 821.837 876.844L801.838 872.653Z" fill="black"/>
<path opacity="0.1" d="M899.691 861.814C899.691 861.814 887.409 864.957 882.596 869.585L899.691 861.814Z" fill="black"/>
<path opacity="0.1" d="M802.763 868.888C803.012 868.975 809.98 869.935 809.814 870.634C809.649 871.332 802.763 868.888 802.763 868.888Z" fill="black"/>
<path opacity="0.1" d="M791.807 887.314L792.714 890.892C793.636 891.622 794.473 892.462 795.208 893.397C795.661 894.232 798.269 894.471 798.269 894.471C798.269 894.471 800.989 895.783 801.669 896.498C802.35 897.214 809.718 899.48 816.633 900.435C823.548 901.389 836.358 903.178 839.078 904.132C841.001 904.759 842.974 905.199 844.973 905.444C844.973 905.444 850.074 908.307 852.795 907.591C855.516 906.876 860.163 893.874 860.163 893.874C860.163 893.874 842.252 889.461 841.686 888.03C841.119 886.599 823.888 879.923 823.888 879.923L813.686 880.177L791.807 887.314Z" fill="black"/>
<path d="M791.132 887.651L792.039 891.229C792.961 891.958 793.798 892.799 794.533 893.734C794.986 894.569 797.594 894.807 797.594 894.807C797.594 894.807 800.314 896.119 800.994 896.835C801.675 897.551 809.043 899.817 815.958 900.771C822.873 901.725 835.683 903.515 838.403 904.469C840.326 905.096 842.299 905.535 844.298 905.781C844.298 905.781 849.399 908.643 852.12 907.928C854.841 907.212 859.488 894.211 859.488 894.211C859.488 894.211 841.577 889.798 841.011 888.367C840.444 886.935 815.165 876.081 815.165 876.081L807.229 874.173L791.132 887.651Z" fill="#23286B"/>
<path d="M814.32 796.891L812.338 798.084L808.514 825.518C808.514 825.518 806.494 827.545 807.125 828.857C807.757 830.169 807.003 832.436 807.003 832.436C807.003 832.436 803.591 833.986 804.349 834.94C805.106 835.895 804.76 837.684 804.239 838.876C803.718 840.069 802.867 842.216 804.239 842.574C805.611 842.932 804.475 847.584 804.475 847.584C804.475 847.584 809.259 847.012 808.908 849.969C808.766 851.162 814.32 854.979 814.32 854.979C814.32 854.979 808.009 842.932 822.145 844.602L823.361 837.81C823.361 837.81 824.576 833.986 823.361 832.793C822.145 831.601 823.634 825.935 823.634 825.935L823.901 801.304L814.32 796.891Z" fill="url(#paint3_linear_1_402)"/>
<path opacity="0.1" d="M811.233 832.302C811.482 832.738 819.114 833.629 819.612 835.06C820.11 836.492 811.233 832.302 811.233 832.302Z" fill="black"/>
<path opacity="0.1" d="M808.822 839.128C808.822 839.128 809.857 835.723 812.326 836.335C814.795 836.946 808.822 839.128 808.822 839.128Z" fill="black"/>
<path opacity="0.1" d="M807.491 844.137C807.491 844.137 809.317 839.598 811.805 839.947C814.294 840.296 807.491 844.137 807.491 844.137Z" fill="black"/>
<path d="M890.539 844.013L889.746 849.023C889.746 849.023 881.584 864.767 880.11 865.006C878.636 865.244 870.588 854.509 870.588 854.509L868.434 844.013L876.913 842.322L880.677 838.407C880.677 838.407 890.199 839.361 890.539 844.013Z" fill="#FBBEBE"/>
<path d="M886.677 800.957L889.738 803.224V815.271C889.738 815.271 892.119 815.032 891.552 816.344C890.985 817.656 889.851 818.372 890.872 819.565C891.892 820.757 891.665 823.024 890.758 823.262C889.851 823.501 888.264 824.455 889.738 825.051C891.212 825.648 892.119 826.721 892.119 827.437C892.237 828.34 892.078 829.259 891.665 830.061C891.098 830.896 890.532 832.804 891.212 833.52C891.892 834.236 890.645 837.933 890.645 837.933C890.645 837.933 892.799 843.778 890.758 845.447C890.758 845.447 889.851 848.787 889.738 849.026C889.738 849.026 891.167 837.414 876.906 842.325C876.906 842.325 876.64 837.9 876.544 836.259C876.448 834.617 877.774 834.141 877.042 833.162C876.309 832.183 874.475 829.941 875.341 829.345C876.207 828.749 875.908 827.675 875.568 826.84C875.228 826.005 874.027 826.006 875.114 824.992C876.2 823.978 876.841 823.026 876.205 822.548C875.568 822.069 874.46 820.516 875.341 819.803C876.222 819.09 876.248 808.71 876.248 808.71C876.248 808.71 879.876 793.443 886.677 800.957Z" fill="url(#paint4_linear_1_402)"/>
<path opacity="0.1" d="M885.242 821.488C885.242 821.488 889.599 820.245 889.743 821.488C889.888 822.732 885.242 821.488 885.242 821.488Z" fill="black"/>
<path opacity="0.1" d="M880.334 824.901C880.334 824.901 886.307 823.33 887.054 824.552C887.8 825.774 880.334 824.901 880.334 824.901Z" fill="black"/>
<path opacity="0.1" d="M879.03 828.213C879.03 828.213 887.99 826.903 888.571 828.824C889.152 830.744 879.03 828.213 879.03 828.213Z" fill="black"/>
<path opacity="0.1" d="M880.334 832.302C880.665 832.389 888.962 833 889.128 834.659C889.294 836.317 880.334 832.302 880.334 832.302Z" fill="black"/>
<path d="M877.47 837.671H820.954C816.936 837.671 813.679 841.098 813.679 845.325V872.488C813.679 876.715 816.936 880.142 820.954 880.142H877.47C881.488 880.142 884.745 876.715 884.745 872.488V845.325C884.745 841.098 881.488 837.671 877.47 837.671Z" fill="#14194A"/>
<path d="M849.217 861.701C850.665 861.701 851.838 860.467 851.838 858.944C851.838 857.421 850.665 856.187 849.217 856.187C847.77 856.187 846.597 857.421 846.597 858.944C846.597 860.467 847.77 861.701 849.217 861.701Z" fill="#E7EFFD"/>
<path opacity="0.1" d="M825.563 811.665C825.563 811.665 832.373 817.142 837.638 812.968C837.638 812.968 828.737 813.82 825.563 811.665Z" fill="black"/>
<path opacity="0.1" d="M860.061 813.113C860.061 813.113 866.87 818.589 872.136 814.416C872.136 814.416 863.234 815.268 860.061 813.113Z" fill="black"/>
<path opacity="0.1" d="M864.161 759.823C864.166 763.037 863.309 766.188 861.689 768.912C861.553 764.128 860.482 759.344 858.009 755.351C855.744 751.69 848.861 745.274 844.127 747.06C843.632 747.252 843.187 747.563 842.828 747.97C842.469 748.377 842.205 748.866 842.06 749.4C841.59 751.275 842.964 752.055 843.845 753.547C845.342 756.108 845.926 759.145 845.494 762.117C845.434 762.517 845.355 762.914 845.256 763.305C844.512 766.247 842.804 769.614 844.566 772.029C845.794 773.711 848.433 774.29 848.79 776.377C848.823 776.571 848.834 776.77 848.824 776.967C848.742 778.37 847.603 779.608 847.106 780.989C846.521 782.614 846.851 784.227 847.457 785.859C848.246 787.988 849.501 790.142 849.803 792.389C850.103 794.604 849.453 796.723 848.678 798.841C847.843 800.786 847.216 802.823 846.807 804.914C846.26 808.878 847.64 813.462 845.27 816.597C845.029 816.976 844.657 817.24 844.233 817.334C842.713 817.502 842.971 814.629 841.75 813.662C841.879 815.333 842.002 817.073 841.427 818.636C840.849 820.2 839.353 821.524 837.778 821.263C837.598 820.014 837.417 818.764 837.237 817.513C836.167 818.622 834.878 819.471 833.462 820C834.018 816.01 835.359 812.187 837.4 808.774C833.408 810.796 831.082 815.176 829.004 819.291C827.708 821.864 826.368 824.676 826.821 827.55C827.004 828.72 827.484 829.833 827.589 831.014C827.695 832.194 827.286 833.568 826.242 834.019C825.773 834.172 825.271 834.172 824.802 834.018C824.332 833.865 823.918 833.566 823.614 833.161C823.576 833.114 823.539 833.067 823.501 833.017C823.436 832.932 823.376 832.842 823.321 832.749C823.206 832.569 823.105 832.38 823.018 832.184C822.733 831.478 822.519 830.743 822.379 829.99L822.308 829.668C821.253 824.791 820.301 819.763 821.073 814.833C821.359 813.015 821.879 811.215 821.818 809.372C821.771 808.331 821.572 807.304 821.226 806.327C820.301 803.6 818.519 801.092 817.502 798.344C817.493 798.324 817.485 798.304 817.478 798.283C816.945 796.827 816.683 795.009 817.669 793.842C818.24 793.306 818.877 792.852 819.563 792.493C821.536 791.141 822.42 788.575 822.78 786.127C822.946 785.02 823.029 783.9 823.029 782.778C825.702 781.791 829.269 780.338 829.664 780.563C830.218 780.878 835.782 780.334 836.016 780.309C837.828 779.286 839.216 777.593 839.91 775.557C839.975 775.36 840.033 775.157 840.087 774.945C837.547 773.504 835.415 771.38 833.909 768.79C832.403 766.2 831.577 763.236 831.514 760.201C831.451 757.165 832.154 754.166 833.551 751.509C834.948 748.852 836.989 746.632 839.467 745.076C841.945 743.52 844.771 742.682 847.656 742.649C850.542 742.615 853.385 743.387 855.894 744.886C858.404 746.385 860.491 748.557 861.944 751.181C863.396 753.805 864.161 756.787 864.161 759.823Z" fill="black"/>
<path d="M845.265 762.594C844.519 765.537 842.813 768.903 844.576 771.319C845.804 773.002 848.442 773.579 848.797 775.668C849.078 777.321 847.679 778.71 847.115 780.28C845.768 784.027 849.277 787.712 849.811 791.679C850.389 795.982 847.409 799.904 846.816 804.205C846.268 808.169 847.649 812.752 845.278 815.885C845.038 816.265 844.665 816.531 844.241 816.624C842.721 816.793 842.979 813.92 841.757 812.954C841.888 814.625 842.011 816.364 841.435 817.928C840.859 819.491 839.361 820.815 837.787 820.553L837.246 816.802C836.175 817.911 834.886 818.76 833.47 819.29C834.027 815.301 835.368 811.478 837.409 808.065C833.418 810.088 831.091 814.465 829.014 818.582C827.717 821.154 826.378 823.966 826.83 826.839C827.014 828.01 827.493 829.121 827.599 830.304C827.704 831.486 827.295 832.858 826.251 833.309C825.752 833.467 825.219 833.455 824.727 833.276C824.235 833.096 823.809 832.758 823.511 832.309C822.932 831.397 822.549 830.363 822.389 829.28C821.306 824.301 820.292 819.161 821.083 814.122C821.369 812.304 821.889 810.503 821.826 808.662C821.689 804.635 818.864 801.333 817.486 797.574C816.952 796.117 816.692 794.3 817.676 793.132C818.249 792.596 818.887 792.143 819.573 791.784C821.544 790.43 822.429 787.866 822.791 785.419C823.18 782.771 823.107 780.071 822.577 777.451C821.781 773.528 819.955 769.699 820.407 765.716C820.851 761.798 823.402 758.569 825.117 755.061C827.323 750.522 828.17 745.385 827.546 740.329C827.25 737.976 826.735 735.253 828.251 733.496C830.071 731.386 833.595 732.18 835.672 730.351C836.686 729.459 837.178 728.09 837.931 726.947C838.87 725.576 840.183 724.537 841.696 723.969C843.208 723.401 844.849 723.329 846.402 723.764C847.829 724.195 849.111 725.049 850.523 725.533C852.515 726.215 854.661 726.127 856.741 726.389C858.822 726.65 861.026 727.387 862.224 729.196C862.86 730.157 863.147 731.328 863.731 732.324C864.982 734.46 867.37 735.488 869.177 737.125C870.728 738.579 871.837 740.482 872.366 742.595C872.896 744.708 872.822 746.939 872.154 749.008C871.074 752.17 868.578 754.964 868.79 758.316C868.878 759.694 869.434 761.044 869.254 762.411C868.755 766.21 863.511 766.969 861.701 770.298C861.845 764.84 860.85 759.216 858.019 754.641C855.753 750.979 848.869 744.564 844.137 746.349C843.642 746.541 843.196 746.853 842.837 747.26C842.478 747.666 842.214 748.156 842.068 748.69C841.6 750.565 842.972 751.344 843.853 752.838C844.699 754.281 845.261 755.889 845.503 757.565C845.746 759.241 845.665 760.952 845.265 762.594Z" fill="#23286B"/>
<g opacity="0.2">
<g opacity="0.2" filter="url(#filter1_d_1_402)">
<path d="M822.988 781.528C823.026 779.813 822.875 778.099 822.536 776.421C821.859 773.085 820.443 769.818 820.31 766.466C820.128 770.197 821.787 773.804 822.536 777.494C822.804 778.821 822.956 780.172 822.988 781.528Z" fill="black"/>
</g>
<g opacity="0.2" filter="url(#filter2_d_1_402)">
<path d="M836.506 808.598C836.782 808.065 837.068 807.539 837.376 807.025C833.385 809.048 831.058 813.426 828.981 817.542C827.78 819.924 826.546 822.512 826.728 825.163C826.88 822.888 827.943 820.674 828.981 818.616C830.902 814.809 833.04 810.783 836.506 808.598Z" fill="black"/>
</g>
<g opacity="0.2" filter="url(#filter3_d_1_402)">
<path d="M827.557 830.164C827.528 830.604 827.391 831.029 827.158 831.396C826.925 831.763 826.605 832.06 826.23 832.256C825.731 832.415 825.198 832.403 824.706 832.224C824.214 832.044 823.788 831.706 823.489 831.257C822.911 830.345 822.528 829.311 822.367 828.228C821.493 824.684 820.964 821.055 820.789 817.398C820.713 821.38 821.517 825.391 822.367 829.301C822.528 830.385 822.911 831.418 823.489 832.33C823.788 832.779 824.214 833.118 824.706 833.297C825.198 833.477 825.731 833.488 826.23 833.33C827.274 832.88 827.683 831.507 827.577 830.325C827.572 830.271 827.563 830.218 827.557 830.164Z" fill="black"/>
</g>
<g opacity="0.2" filter="url(#filter4_d_1_402)">
<path d="M845.602 759.023C845.567 759.879 845.443 760.729 845.235 761.558C844.682 763.739 843.603 766.152 843.799 768.239C843.95 766.424 844.774 764.447 845.235 762.631C845.529 761.455 845.653 760.238 845.602 759.023Z" fill="black"/>
</g>
<g opacity="0.2" filter="url(#filter5_d_1_402)">
<path d="M827.703 743.085C827.731 741.813 827.666 740.541 827.508 739.28C827.391 738.35 827.242 737.364 827.195 736.401C827.183 737.726 827.288 739.049 827.508 740.353C827.621 741.259 827.687 742.171 827.703 743.085Z" fill="black"/>
</g>
<g opacity="0.2" filter="url(#filter6_d_1_402)">
<path d="M848.76 775.708C848.755 775.679 848.745 775.653 848.739 775.624C848.498 776.865 847.527 777.998 847.078 779.246C846.815 779.99 846.719 780.789 846.8 781.58C846.84 781.148 846.933 780.724 847.078 780.319C847.643 778.749 849.04 777.36 848.76 775.708Z" fill="black"/>
</g>
<g opacity="0.2" filter="url(#filter7_d_1_402)">
<path d="M821.791 807.588C821.653 803.561 818.829 800.26 817.45 796.5C817.229 795.911 817.08 795.295 817.007 794.666C816.93 795.659 817.082 796.656 817.45 797.574C818.806 801.271 821.554 804.526 821.776 808.463C821.792 808.172 821.801 807.881 821.791 807.588Z" fill="black"/>
</g>
<g opacity="0.2" filter="url(#filter8_d_1_402)">
<path d="M857.982 753.595C855.716 749.934 848.833 743.518 844.101 745.304C843.605 745.496 843.16 745.807 842.801 746.214C842.441 746.621 842.178 747.111 842.032 747.644C841.92 748.053 841.908 748.484 841.996 748.899C842.008 748.839 842.016 748.78 842.032 748.718C842.178 748.184 842.441 747.694 842.801 747.288C843.16 746.881 843.605 746.569 844.101 746.377C848.833 744.592 855.716 751.007 857.982 754.669C860.547 758.813 861.601 763.817 861.671 768.778C861.746 763.47 860.732 758.039 857.982 753.595Z" fill="black"/>
</g>
<g opacity="0.2" filter="url(#filter9_d_1_402)">
<path d="M869.216 761.33C868.718 765.119 863.497 765.884 861.677 769.194C861.678 769.559 861.674 769.924 861.665 770.288C863.474 766.961 868.717 766.201 869.216 762.403C869.26 762.03 869.261 761.652 869.219 761.279C869.217 761.296 869.218 761.313 869.216 761.33Z" fill="black"/>
</g>
<g opacity="0.2" filter="url(#filter10_d_1_402)">
<path d="M872.129 747.959C871.05 751.12 868.554 753.914 868.766 757.265C868.77 757.314 868.777 757.363 868.781 757.413C869.016 754.462 871.151 751.898 872.129 749.032C872.568 747.723 872.757 746.334 872.684 744.948C872.642 745.975 872.455 746.99 872.129 747.959Z" fill="black"/>
</g>
<g opacity="0.2" filter="url(#filter11_d_1_402)">
<path d="M845.247 814.871C845.008 815.251 844.635 815.516 844.211 815.609C842.691 815.778 842.949 812.906 841.728 811.94C841.757 812.32 841.786 812.704 841.807 813.089C842.934 814.116 842.727 816.848 844.211 816.682C844.635 816.589 845.008 816.324 845.247 815.944C846.6 814.157 846.731 811.898 846.696 809.551C846.661 811.507 846.392 813.358 845.247 814.871Z" fill="black"/>
</g>
<g opacity="0.2" filter="url(#filter12_d_1_402)">
<path d="M841.38 816.886C840.804 818.449 839.306 819.772 837.733 819.511C837.552 818.261 837.372 817.011 837.192 815.76C836.169 816.817 834.948 817.638 833.606 818.171C833.538 818.553 833.471 818.936 833.417 819.321C834.832 818.791 836.121 817.942 837.192 816.834C837.372 818.084 837.552 819.334 837.733 820.584C839.306 820.846 840.804 819.522 841.38 817.959C841.738 816.87 841.88 815.715 841.799 814.566C841.781 815.358 841.639 816.142 841.38 816.886Z" fill="black"/>
</g>
<g opacity="0.2" filter="url(#filter13_d_1_402)">
<path d="M846.755 803.175C846.633 804.183 846.587 805.199 846.617 806.215C846.624 805.557 846.67 804.9 846.755 804.249C847.322 800.15 850.053 796.394 849.807 792.325C849.587 795.988 847.271 799.439 846.755 803.175Z" fill="black"/>
</g>
</g>
<g filter="url(#filter14_b_1_402)">
<path d="M219 519C219 514.582 222.582 511 227 511H406C410.418 511 414 514.582 414 519V595C414 599.418 410.418 603 406 603H227C222.582 603 219 599.418 219 595V519Z" fill="#507CFF" fill-opacity="0.65"/>
<path d="M227 511.7H406C410.032 511.7 413.3 514.968 413.3 519V595C413.3 599.032 410.032 602.3 406 602.3H227C222.968 602.3 219.7 599.032 219.7 595V519C219.7 514.968 222.968 511.7 227 511.7Z" stroke="white" stroke-opacity="0.3" stroke-width="1.4"/>
<g opacity="0.6">
<rect x="231" y="523" width="28" height="28" rx="14" fill="white"/>
</g>
<g opacity="0.3">
<rect x="271" y="539" width="131" height="4" rx="2" fill="white"/>
</g>
<g opacity="0.3">
<rect x="271" y="547" width="120" height="4" rx="2" fill="white"/>
</g>
<g opacity="0.3">
<rect x="271" y="555" width="112" height="4" rx="2" fill="white"/>
</g>
<g opacity="0.3">
<rect x="271" y="563" width="120" height="4" rx="2" fill="white"/>
</g>
<g opacity="0.3">
<rect x="271" y="571" width="112" height="4" rx="2" fill="white"/>
</g>
<g opacity="0.3">
<rect x="271" y="579" width="91" height="4" rx="2" fill="white"/>
</g>
<g opacity="0.3">
<rect x="271" y="587" width="55" height="4" rx="2" fill="white"/>
</g>
<g clip-path="url(#clip0_1_402)">
<path d="M277 531.571L273.822 533.286L274.532 529.842L271.857 527.459L275.474 527.045L277 523.857L278.526 527.045L282.143 527.459L279.468 529.842L280.178 533.286L277 531.571Z" fill="#E8B504"/>
</g>
<g clip-path="url(#clip1_1_402)">
<path d="M289 531.571L285.822 533.286L286.532 529.842L283.857 527.459L287.474 527.045L289 523.857L290.526 527.045L294.143 527.459L291.468 529.842L292.178 533.286L289 531.571Z" fill="#E8B504"/>
</g>
<g clip-path="url(#clip2_1_402)">
<path d="M301 531.571L297.822 533.286L298.532 529.842L295.857 527.459L299.474 527.045L301 523.857L302.526 527.045L306.143 527.459L303.468 529.842L304.178 533.286L301 531.571Z" fill="#E8B504"/>
</g>
<g clip-path="url(#clip3_1_402)">
<path d="M313 531.571L309.822 533.286L310.532 529.842L307.857 527.459L311.474 527.045L313 523.857L314.526 527.045L318.143 527.459L315.468 529.842L316.178 533.286L313 531.571Z" fill="#E8B504"/>
</g>
<g clip-path="url(#clip4_1_402)">
<path d="M325 531.571L321.822 533.286L322.532 529.842L319.857 527.459L323.474 527.045L325 523.857L326.526 527.045L330.143 527.459L327.468 529.842L328.178 533.286L325 531.571Z" fill="#E8B504"/>
</g>
</g>
<g filter="url(#filter15_b_1_402)">
<path d="M151 623C151 618.582 154.582 615 159 615H338C342.418 615 346 618.582 346 623V667C346 671.418 342.418 675 338 675H159C154.582 675 151 671.418 151 667V623Z" fill="#507CFF" fill-opacity="0.65"/>
<path d="M159 615.7H338C342.032 615.7 345.3 618.968 345.3 623V667C345.3 671.032 342.032 674.3 338 674.3H159C154.968 674.3 151.7 671.032 151.7 667V623C151.7 618.968 154.968 615.7 159 615.7Z" stroke="white" stroke-opacity="0.3" stroke-width="1.4"/>
<g opacity="0.6">
<rect x="163" y="627" width="28" height="28" rx="14" fill="white"/>
</g>
<g opacity="0.3">
<rect x="203" y="643" width="131" height="4" rx="2" fill="white"/>
</g>
<g opacity="0.3">
<rect x="203" y="651" width="120" height="4" rx="2" fill="white"/>
</g>
<g opacity="0.3">
<rect x="203" y="659" width="112" height="4" rx="2" fill="white"/>
</g>
<g clip-path="url(#clip5_1_402)">
<path d="M209 635.571L205.822 637.286L206.532 633.842L203.857 631.459L207.474 631.045L209 627.857L210.526 631.045L214.143 631.459L211.468 633.842L212.178 637.286L209 635.571Z" fill="#E8B504"/>
</g>
<g clip-path="url(#clip6_1_402)">
<path d="M221 635.571L217.822 637.286L218.532 633.842L215.857 631.459L219.474 631.045L221 627.857L222.526 631.045L226.143 631.459L223.468 633.842L224.178 637.286L221 635.571Z" fill="#E8B504"/>
</g>
<g clip-path="url(#clip7_1_402)">
<path d="M233 635.571L229.822 637.286L230.532 633.842L227.857 631.459L231.474 631.045L233 627.857L234.526 631.045L238.143 631.459L235.468 633.842L236.178 637.286L233 635.571Z" fill="#E8B504"/>
</g>
<g clip-path="url(#clip8_1_402)">
<path d="M245 635.571L241.822 637.286L242.532 633.842L239.857 631.459L243.474 631.045L245 627.857L246.526 631.045L250.143 631.459L247.468 633.842L248.178 637.286L245 635.571Z" fill="#E8B504"/>
</g>
<g clip-path="url(#clip9_1_402)">
<path d="M257 635.571L253.822 637.286L254.532 633.842L251.857 631.459L255.474 631.045L257 627.857L258.526 631.045L262.143 631.459L259.468 633.842L260.178 637.286L257 635.571Z" fill="#E8B504"/>
</g>
</g>
<g filter="url(#filter16_b_1_402)">
<path d="M818 564C818 559.582 821.582 556 826 556H1030C1034.42 556 1038 559.582 1038 564V596C1038 600.418 1034.42 604 1030 604H826C821.582 604 818 600.418 818 596V564Z" fill="#507CFF" fill-opacity="0.65"/>
<path d="M826 556.7H1030C1034.03 556.7 1037.3 559.968 1037.3 564V596C1037.3 600.032 1034.03 603.3 1030 603.3H826C821.968 603.3 818.7 600.032 818.7 596V564C818.7 559.968 821.968 556.7 826 556.7Z" stroke="white" stroke-opacity="0.3" stroke-width="1.4"/>
<g opacity="0.7">
<rect x="828" y="566" width="28" height="28" rx="14" fill="white"/>
</g>
<g opacity="0.3">
<rect x="863" y="566" width="74" height="4" rx="2" fill="white"/>
</g>
<g opacity="0.3">
<rect x="863" y="573" width="83" height="4" rx="2" fill="white"/>
</g>
<g opacity="0.3">
<rect x="863" y="580" width="53" height="4" rx="2" fill="white"/>
</g>
<g opacity="0.3">
<rect x="863" y="590" width="8" height="4" rx="2" fill="white"/>
</g>
<g clip-path="url(#clip10_1_402)">
<path d="M976 572.571L972.822 574.286L973.532 570.842L970.857 568.459L974.474 568.045L976 564.857L977.526 568.045L981.143 568.459L978.468 570.842L979.178 574.286L976 572.571Z" fill="#E8B504"/>
</g>
<g clip-path="url(#clip11_1_402)">
<path d="M988 572.571L984.822 574.286L985.532 570.842L982.857 568.459L986.474 568.045L988 564.857L989.526 568.045L993.143 568.459L990.468 570.842L991.178 574.286L988 572.571Z" fill="#E8B504"/>
</g>
<g clip-path="url(#clip12_1_402)">
<path d="M1000 572.571L996.822 574.286L997.532 570.842L994.857 568.459L998.474 568.045L1000 564.857L1001.53 568.045L1005.14 568.459L1002.47 570.842L1003.18 574.286L1000 572.571Z" fill="#E8B504"/>
</g>
<g clip-path="url(#clip13_1_402)">
<path d="M1012 572.571L1008.82 574.286L1009.53 570.842L1006.86 568.459L1010.47 568.045L1012 564.857L1013.53 568.045L1017.14 568.459L1014.47 570.842L1015.18 574.286L1012 572.571Z" fill="#E8B504"/>
</g>
<g clip-path="url(#clip14_1_402)">
<path d="M1024 572.571L1020.82 574.286L1021.53 570.842L1018.86 568.459L1022.47 568.045L1024 564.857L1025.53 568.045L1029.14 568.459L1026.47 570.842L1027.18 574.286L1024 572.571Z" fill="#E8B504"/>
</g>
</g>
<g filter="url(#filter17_b_1_402)">
<path d="M909 701C909 696.582 912.582 693 917 693H1121C1125.42 693 1129 696.582 1129 701V733C1129 737.418 1125.42 741 1121 741H917C912.582 741 909 737.418 909 733V701Z" fill="#507CFF" fill-opacity="0.65"/>
<path d="M917 693.7H1121C1125.03 693.7 1128.3 696.968 1128.3 701V733C1128.3 737.032 1125.03 740.3 1121 740.3H917C912.968 740.3 909.7 737.032 909.7 733V701C909.7 696.968 912.968 693.7 917 693.7Z" stroke="white" stroke-opacity="0.3" stroke-width="1.4"/>
<g opacity="0.7">
<rect x="919" y="703" width="28" height="28" rx="14" fill="white"/>
</g>
<g opacity="0.3">
<rect x="954" y="703" width="74" height="4" rx="2" fill="white"/>
</g>
<g opacity="0.3">
<rect x="954" y="710" width="83" height="4" rx="2" fill="white"/>
</g>
<g opacity="0.3">
<rect x="954" y="717" width="53" height="4" rx="2" fill="white"/>
</g>
<g opacity="0.3">
<rect x="954" y="727" width="8" height="4" rx="2" fill="white"/>
</g>
<g clip-path="url(#clip15_1_402)">
<path d="M1067 709.571L1063.82 711.286L1064.53 707.842L1061.86 705.459L1065.47 705.045L1067 701.857L1068.53 705.045L1072.14 705.459L1069.47 707.842L1070.18 711.286L1067 709.571Z" fill="#E8B504"/>
</g>
<g clip-path="url(#clip16_1_402)">
<path d="M1079 709.571L1075.82 711.286L1076.53 707.842L1073.86 705.459L1077.47 705.045L1079 701.857L1080.53 705.045L1084.14 705.459L1081.47 707.842L1082.18 711.286L1079 709.571Z" fill="#E8B504"/>
</g>
<g clip-path="url(#clip17_1_402)">
<path d="M1091 709.571L1087.82 711.286L1088.53 707.842L1085.86 705.459L1089.47 705.045L1091 701.857L1092.53 705.045L1096.14 705.459L1093.47 707.842L1094.18 711.286L1091 709.571Z" fill="#E8B504"/>
</g>
<g clip-path="url(#clip18_1_402)">
<path d="M1103 709.571L1099.82 711.286L1100.53 707.842L1097.86 705.459L1101.47 705.045L1103 701.857L1104.53 705.045L1108.14 705.459L1105.47 707.842L1106.18 711.286L1103 709.571Z" fill="#E8B504"/>
</g>
<g clip-path="url(#clip19_1_402)">
<path d="M1115 709.571L1111.82 711.286L1112.53 707.842L1109.86 705.459L1113.47 705.045L1115 701.857L1116.53 705.045L1120.14 705.459L1117.47 707.842L1118.18 711.286L1115 709.571Z" fill="#E8B504"/>
</g>
</g>
<path opacity="0.2" d="M1077.23 505.061C1076.25 505.717 1075.06 505.988 1073.89 505.822C1072.72 505.656 1071.66 505.065 1070.9 504.161C1070.78 504.021 1070.65 503.895 1070.5 503.785C1070.08 503.472 1069.58 503.301 1069.06 503.301C1068.53 503.3 1068.03 503.468 1067.61 503.781C1067.19 504.093 1066.89 504.533 1066.74 505.033C1066.6 505.534 1066.62 506.068 1066.8 506.555C1066.87 506.725 1066.96 506.885 1067.06 507.034C1067.72 508.015 1067.99 509.204 1067.82 510.372C1067.66 511.541 1067.06 512.607 1066.16 513.367C1066.02 513.484 1065.89 513.618 1065.79 513.765C1065.47 514.181 1065.3 514.687 1065.3 515.208C1065.3 515.729 1065.47 516.237 1065.78 516.654C1066.09 517.071 1066.53 517.375 1067.03 517.52C1067.53 517.665 1068.07 517.644 1068.56 517.46C1068.72 517.394 1068.89 517.307 1069.03 517.203C1070.02 516.547 1071.2 516.276 1072.37 516.442C1073.54 516.608 1074.61 517.199 1075.37 518.102C1075.48 518.243 1075.62 518.369 1075.76 518.478C1076.18 518.792 1076.69 518.962 1077.21 518.963C1077.73 518.964 1078.24 518.795 1078.65 518.483C1079.07 518.17 1079.37 517.731 1079.52 517.23C1079.67 516.73 1079.64 516.196 1079.46 515.709C1079.4 515.542 1079.31 515.384 1079.21 515.236C1078.56 514.255 1078.29 513.067 1078.45 511.898C1078.62 510.73 1079.21 509.664 1080.11 508.904C1080.25 508.786 1080.38 508.653 1080.49 508.506C1080.8 508.09 1080.97 507.583 1080.97 507.062C1080.97 506.541 1080.81 506.034 1080.49 505.617C1080.18 505.2 1079.74 504.896 1079.24 504.75C1078.74 504.605 1078.21 504.626 1077.72 504.811C1077.55 504.874 1077.38 504.958 1077.23 505.061V505.061Z" fill="white"/>
<path opacity="0.2" d="M1152.5 523.155C1150.52 524.479 1148.12 525.026 1145.76 524.691C1143.4 524.356 1141.25 523.162 1139.71 521.338C1139.48 521.055 1139.21 520.8 1138.91 520.579C1138.07 519.945 1137.05 519.601 1136 519.6C1134.94 519.598 1133.92 519.939 1133.08 520.57C1132.24 521.201 1131.62 522.088 1131.33 523.099C1131.03 524.109 1131.08 525.188 1131.45 526.172C1131.58 526.514 1131.76 526.839 1131.97 527.139C1133.29 529.12 1133.84 531.52 1133.5 533.88C1133.17 536.239 1131.98 538.392 1130.15 539.927C1129.87 540.164 1129.61 540.434 1129.39 540.73C1128.76 541.57 1128.42 542.593 1128.41 543.645C1128.41 544.698 1128.75 545.722 1129.38 546.564C1130.01 547.406 1130.9 548.02 1131.91 548.314C1132.92 548.607 1134 548.564 1134.99 548.192C1135.33 548.058 1135.65 547.884 1135.95 547.673C1137.93 546.348 1140.33 545.802 1142.69 546.137C1145.05 546.472 1147.21 547.666 1148.74 549.489C1148.98 549.773 1149.25 550.027 1149.54 550.249C1150.38 550.882 1151.41 551.226 1152.46 551.228C1153.51 551.229 1154.54 550.889 1155.38 550.258C1156.22 549.627 1156.83 548.739 1157.13 547.729C1157.42 546.718 1157.38 545.64 1157.01 544.656C1156.88 544.319 1156.71 543.999 1156.51 543.702C1155.18 541.721 1154.64 539.321 1154.97 536.961C1155.31 534.602 1156.5 532.449 1158.32 530.915C1158.61 530.677 1158.86 530.408 1159.08 530.111C1159.72 529.271 1160.06 528.248 1160.06 527.196C1160.06 526.143 1159.72 525.119 1159.09 524.277C1158.46 523.435 1157.57 522.821 1156.56 522.528C1155.55 522.234 1154.47 522.277 1153.49 522.649C1153.14 522.777 1152.81 522.947 1152.5 523.155V523.155Z" fill="white"/>
<path d="M300.058 927.39C300.058 927.39 302.684 943.994 316.002 946.451C329.319 948.907 373.774 948.416 373.774 948.416C373.774 948.416 399.19 944.584 408.381 922.085C417.572 899.586 423.48 890.645 415.602 890.252C407.724 889.859 365.239 905.284 362.801 905.481C360.362 905.677 297.713 871.29 300.058 927.39Z" fill="#65617D"/>
<path opacity="0.7" d="M300.058 927.39C300.058 927.39 302.684 943.994 316.002 946.451C329.319 948.907 373.774 948.416 373.774 948.416C373.774 948.416 399.19 944.584 408.381 922.085C417.572 899.586 423.48 890.645 415.602 890.252C407.724 889.859 365.239 905.284 362.801 905.481C360.362 905.677 297.713 871.29 300.058 927.39Z" fill="url(#paint5_linear_1_402)"/>
<path d="M419.291 945.896C419.291 945.896 417.965 949.557 414.313 949.819C413.777 949.858 413.238 949.827 412.71 949.727C407.834 948.843 396.391 946.78 392.359 947.567C389.934 948.039 385.446 947.34 382.25 946.706C380.126 946.288 378.572 945.896 378.572 945.896C378.572 945.896 382.323 932.83 382.793 932.435C383.26 932.043 399.674 921.727 399.674 921.727L412.67 920.748L412.71 920.745C414.457 921.019 416.036 921.991 417.116 923.457C418.489 925.196 419.665 928.052 419.743 932.729C419.932 944.225 419.291 945.896 419.291 945.896Z" fill="#191E56"/>
<path opacity="0.05" d="M419.291 945.896C419.291 945.896 417.965 949.557 414.313 949.819C415.589 948.093 416.768 946.291 417.844 944.422L417.774 934.893C418.039 932.281 417.715 929.641 416.828 927.184C415.942 924.728 414.518 922.523 412.67 920.748L412.71 920.745C412.71 920.745 419.555 921.234 419.743 932.729C419.932 944.225 419.291 945.896 419.291 945.896Z" fill="black"/>
<path opacity="0.1" d="M362.902 925.061L350.803 915.14L331.764 895.489C331.764 895.489 333.821 895.386 336.924 895.245C337.695 895.76 339.859 897.382 339.937 899.35C340.03 901.753 345.083 899.518 347.709 900.892C350.334 902.268 363.183 919.493 365.434 919.381C367.685 919.266 369.466 918.185 370.406 919.856C370.425 919.894 370.451 919.93 370.473 919.965L362.902 925.061Z" fill="black"/>
<path opacity="0.1" d="M417.085 923.457C416.654 923.675 416.217 923.884 415.774 924.085C406.582 928.211 395.235 936.856 394.391 938.43C393.876 939.385 387.298 943.57 382.219 946.706C380.095 946.288 378.542 945.896 378.542 945.896C378.542 945.896 382.292 932.83 382.762 932.435C383.229 932.043 399.644 921.727 399.644 921.727L412.639 920.748L412.679 920.745C414.427 921.019 416.005 921.991 417.085 923.457Z" fill="black"/>
<path d="M442.601 895.27C441.383 898.415 431.161 910.5 431.161 910.5C431.161 910.5 424.69 919.342 415.498 923.469C406.306 927.595 394.959 936.24 394.115 937.814C393.572 938.825 386.248 943.446 381.085 946.621C380.686 946.866 380.3 947.104 379.929 947.328C378.919 947.944 378.038 948.481 377.369 948.885C376.525 949.397 376.015 949.701 376.015 949.701C376.015 949.701 372.875 947.06 369.747 944.402C366.66 941.778 363.588 939.14 363.54 938.993C363.447 938.698 362.229 935.356 362.51 935.161C362.656 935.058 363.301 933.699 364.485 932.122C365.744 930.368 367.381 928.951 369.263 927.987C373.576 925.924 375.453 921.226 375.453 921.226C375.453 921.226 375.863 920.913 376.485 920.501C377.763 919.576 379.193 918.909 380.703 918.532C382.768 918.261 386.611 913.839 386.611 913.839C386.611 913.839 389.239 912.071 390.269 909.813C391.254 907.659 405.8 897.192 407.148 896.225L371.885 919.949L363.447 925.629L351.349 915.708L332.309 896.057C332.309 896.057 334.87 895.928 338.592 895.76C347.846 895.341 364.28 894.684 366.354 895.173C368.043 895.587 369.787 895.706 371.514 895.527C371.514 895.527 376.195 895.748 379.293 894.035C382.391 892.323 387.27 891.524 387.832 890.254C388.395 888.984 404.995 882.891 404.995 882.891C404.995 882.891 427.597 870.317 435.663 877.783C443.727 885.249 443.822 892.128 442.601 895.27Z" fill="url(#paint6_linear_1_402)"/>
<path d="M369.74 823.171L366.834 833.289L363.083 856.082L349.297 857.066L345.305 850.131L341.323 843.213C341.323 843.213 338.842 834.002 337.058 825.092C335.48 817.208 334.45 809.559 336.166 808.728C337.688 807.991 338.69 805.335 339.34 802.482C339.421 802.129 339.497 801.769 339.565 801.412C340.024 798.995 340.33 796.548 340.479 794.088C340.479 794.088 369.366 792.517 365.334 804.994C364.614 807.124 364.245 809.368 364.246 811.628C364.249 812.193 364.282 812.757 364.344 813.317C364.545 815.261 365.128 817.14 366.057 818.836C366.985 820.532 368.24 822.008 369.74 823.171Z" fill="#EE8E9E"/>
<path d="M375.758 821.487L374.726 838.679L372.382 853.319L369.754 860.099L367.411 897.189C367.411 897.189 344.798 899.928 339.297 897.139C338.902 896.966 338.558 896.685 338.301 896.326C331.658 885.818 333.836 855.383 333.836 855.383L331.304 835.732L332.992 825.534L337.072 825.08L340.212 824.729C340.212 824.729 340.921 825.643 341.945 827.061C344.725 830.907 349.84 838.47 349.497 841.627C349.029 845.951 350.059 850.372 351.655 851.059C353.25 851.748 354.561 852.927 354.842 851.748C355.124 850.569 355.405 850.275 355.124 848.603C354.842 846.932 356.345 841.824 356.345 841.824C356.345 841.824 358.877 835.832 358.688 833.277C358.5 830.721 358.97 827.774 359.721 827.087C360.469 826.4 361.502 825.711 360.658 822.569C359.814 819.424 364.358 813.305 364.358 813.305L375.758 821.487Z" fill="#E3E8F4"/>
<path opacity="0.1" d="M345.861 864.453L344.922 893.83C344.922 893.83 342.792 895.065 339.506 896.975C339.11 896.802 338.767 896.521 338.51 896.162C331.867 885.654 334.045 855.219 334.045 855.219L331.512 835.568L333.2 825.37L337.28 824.916C335.702 817.031 334.672 809.383 336.388 808.551C337.91 807.815 338.912 805.159 339.562 802.306L342.485 823.091C342.485 823.091 342.24 824.963 342.153 826.896C342.034 828.122 342.114 829.36 342.39 830.557C343.048 832.326 342.578 835.471 342.578 835.471C344.269 838.592 345.113 844.372 345.527 849.954C346.075 857.379 345.861 864.453 345.861 864.453Z" fill="black"/>
<path d="M339.498 801.842C339.498 801.842 334.773 802.458 333.272 804.521C331.771 806.584 327.832 806.879 327.832 806.879C327.832 806.879 323.331 808.451 323.425 808.844C323.518 809.237 322.112 809.826 319.298 810.612C316.484 811.398 311.795 814.248 311.795 814.935C311.795 815.623 304.386 823.287 304.386 824.073C304.386 824.859 302.135 827.806 302.417 833.013C302.698 838.22 302.979 844.803 301.854 845.884C300.728 846.964 301.854 851.189 301.854 851.189C302.156 851.648 302.326 852.189 302.342 852.747C302.359 853.304 302.222 853.855 301.948 854.333C301.01 856.102 302.135 863.47 302.135 863.47L302.041 871.134C302.041 871.134 303.073 875.948 301.854 876.144C300.635 876.341 302.041 878.502 302.041 878.502C302.041 878.502 303.073 882.432 301.76 884.201C300.447 885.969 300.072 893.534 300.072 893.534L280.002 924.09C280.002 924.09 279.72 929.69 286.098 929.592C292.475 929.493 292.381 930.869 292.194 932.146C292.006 933.423 293.976 934.799 293.976 934.799C293.976 934.799 296.508 936.174 295.007 937.844C293.507 939.515 289.193 943.346 296.32 945.901C297.162 944.686 297.855 943.366 298.384 941.971C298.989 940.237 299.49 938.465 299.884 936.665C299.884 936.665 300.541 929.199 301.854 928.216C303.167 927.234 302.979 922.518 302.979 922.518C302.979 922.518 301.104 918.686 303.73 917.114C306.356 915.542 344.433 893.436 344.433 893.436L345.37 864.06C345.37 864.06 346.027 842.347 342.088 835.076C342.088 835.076 342.557 831.932 341.9 830.164C341.244 828.396 341.994 822.697 341.994 822.697L339.498 801.842Z" fill="#191E56"/>
<path opacity="0.1" d="M364.071 813.625C364.071 813.625 373.5 811.59 376.032 812.966C378.565 814.341 383.535 815.422 384.286 816.208C385.036 816.994 386.912 816.405 388.6 821.022C390.288 825.64 390.475 830.356 392.633 832.517C394.79 834.679 395.915 836.152 396.009 837.724C396.103 839.296 395.727 839.689 396.572 840.181C397.416 840.672 398.635 842.735 398.26 843.521C397.885 844.307 378.752 861.599 378.752 861.599C378.752 861.599 377.814 868.181 376.97 869.852C376.126 871.522 377.908 894.512 379.784 896.084C381.66 897.656 367.123 897.511 367.123 897.511C367.123 897.511 366.466 882.428 365.904 881.642C365.341 880.856 366.279 864.743 366.279 864.743C366.279 864.743 366.373 850.988 365.153 847.353C363.934 843.718 364.071 831.633 364.071 831.633C364.071 831.633 362.993 824.381 361.683 822.692C360.373 821.004 364.071 813.625 364.071 813.625Z" fill="black"/>
<path d="M364.352 813.321C364.352 813.321 373.781 811.286 376.313 812.661C378.845 814.037 383.816 815.117 384.566 815.903C385.317 816.689 387.192 816.1 388.88 820.718C390.569 825.335 390.756 830.051 392.913 832.213C395.07 834.374 396.196 835.848 396.289 837.42C396.383 838.992 396.008 839.385 396.852 839.876C397.696 840.367 398.915 842.43 398.54 843.216C398.165 844.002 379.033 861.294 379.033 861.294C379.033 861.294 378.095 867.877 377.251 869.547C376.407 871.217 378.189 894.207 380.064 895.779C381.94 897.351 367.403 897.206 367.403 897.206C367.403 897.206 366.747 882.123 366.184 881.337C365.621 880.551 366.559 864.438 366.559 864.438C366.559 864.438 366.653 850.683 365.434 847.048C364.215 843.413 364.352 831.328 364.352 831.328C364.352 831.328 363.274 824.076 361.964 822.388C360.654 820.699 364.352 813.321 364.352 813.321Z" fill="#191E56"/>
<path d="M378.413 790.895C378.41 797.265 376.447 803.391 372.929 808.009C369.411 812.628 364.606 815.386 359.505 815.716C354.404 816.047 349.396 813.923 345.514 809.783C341.632 805.644 339.171 799.804 338.639 793.469C338.108 787.133 339.546 780.785 342.658 775.733C345.769 770.681 350.316 767.311 355.362 766.317C360.407 765.324 365.566 766.782 369.774 770.393C373.982 774.003 376.919 779.49 377.979 785.722C378.268 787.422 378.413 789.156 378.413 790.895Z" fill="#EE8E9E"/>
<path d="M393.381 841.562L398.54 843.232C398.54 843.232 398.071 845.197 399.571 846.179C400.015 846.509 400.37 846.954 400.6 847.471C400.83 847.988 400.928 848.559 400.884 849.127C400.884 849.127 401.447 851.288 402.76 851.78C404.073 852.271 404.917 855.513 404.917 855.513L409.231 860.72C409.231 860.72 410.826 862.096 410.544 862.783C410.263 863.471 412.232 863.668 412.232 863.668L411.201 881.156L402.291 882.924L396.758 882.335L392.256 880.566L388.317 878.11L386.535 873.296L378.657 860.72L393.381 841.562Z" fill="#23286B"/>
<path d="M410.927 865.028C410.927 865.028 422.369 847.736 430.904 857.07C439.438 866.403 427.433 881.534 424.62 881.042C421.806 880.551 408.395 879.765 408.395 879.765L410.927 865.028Z" fill="#EE8E9E"/>
<path d="M383.527 857.76L434.857 830.319C435.413 830.022 436.094 830.253 436.377 830.835L456.486 872.116C456.77 872.698 456.549 873.411 455.994 873.708L404.663 901.149C404.108 901.446 403.427 901.215 403.143 900.632L383.034 859.352C382.751 858.77 382.971 858.057 383.527 857.76Z" fill="#14194A"/>
<path d="M388.642 859.958L433.478 835.988L450.72 871.382L405.883 895.352L388.642 859.958Z" fill="#3D71F4"/>
<path d="M443.828 853.606C443.373 853.606 443.004 853.219 443.004 852.742C443.004 852.265 443.373 851.878 443.828 851.878C444.284 851.878 444.653 852.265 444.653 852.742C444.653 853.219 444.284 853.606 443.828 853.606Z" fill="#E6E8EC"/>
<path d="M395.318 880.214C394.567 880.214 393.958 879.577 393.958 878.79C393.958 878.004 394.567 877.366 395.318 877.366C396.068 877.366 396.677 878.004 396.677 878.79C396.677 879.577 396.068 880.214 395.318 880.214Z" fill="#E6E8EC"/>
<path d="M418.316 868.665C418.409 881.633 392.806 884.383 392.806 884.383L386.264 885.471L383.335 885.957L382.114 873.283C382.114 873.283 383.456 873.074 385.133 872.664C387.612 872.06 390.822 871.014 391.494 869.549C392.62 867.094 418.223 855.696 418.316 868.665Z" fill="#EE8E9E"/>
<path d="M377.56 784.94C379.217 784.991 380.859 784.493 382.254 783.554C383.164 782.942 383.513 781.746 383.769 780.645C384.265 778.509 384.662 776.269 384.184 774.129C383.368 770.474 380.252 767.969 378.261 764.848C376.405 761.94 375.363 758.257 372.575 756.332C369.836 754.44 366.207 754.843 363.062 755.82C361.611 756.356 360.121 756.766 358.605 757.045C356.07 757.372 353.525 756.65 350.972 756.557C347.367 756.437 343.824 757.565 340.891 759.767C340.231 760.219 339.67 760.813 339.247 761.511C337.365 765.907 336.192 770.139 334.045 774.45C333.251 775.85 333.009 777.519 333.372 779.103C333.614 779.915 334.087 780.642 334.267 781.471C334.685 783.39 333.478 785.223 332.655 786.992C331.857 788.606 331.479 790.412 331.559 792.228C331.605 793.133 331.828 794.018 332.214 794.829C332.601 795.639 333.143 796.358 333.806 796.94C335.2 797.954 336.864 798.482 338.561 798.449C351.948 791.75 360.688 784.427 377.56 784.94Z" fill="#23286B"/>
<path opacity="0.1" d="M363.446 925.627L351.348 915.706L332.308 896.055C332.308 896.055 334.869 895.925 338.591 895.757C339.329 896.455 339.801 897.409 339.919 898.443C340.012 900.845 345.065 898.611 347.69 899.984C350.315 901.361 363.165 918.586 365.416 918.474C367.667 918.359 369.448 917.277 370.387 918.948C370.407 918.986 370.432 919.022 370.455 919.057C370.829 919.506 371.329 919.818 371.884 919.947L363.446 925.627Z" fill="black"/>
<path d="M363.22 934.117L375.935 922.181L376.109 921.276L375.932 921.22C375.932 921.22 375.386 921.255 374.632 921.232C373.251 921.19 371.163 920.957 370.468 919.955C370.445 919.92 370.42 919.885 370.4 919.846C369.461 918.175 367.68 919.257 365.429 919.372C363.178 919.484 350.328 902.259 347.703 900.882C345.078 899.509 340.025 901.743 339.932 899.341C339.853 897.372 337.69 895.751 336.919 895.235C336.75 895.12 336.649 895.061 336.649 895.061C336.649 895.061 335.698 884.377 315.817 891.353C295.934 898.33 303.812 922.693 303.812 922.693C307.278 929.404 311.456 931.103 315.215 930.735C321.354 930.21 327.504 931.615 332.878 934.769C336.051 936.487 359.653 933.951 363.22 934.117Z" fill="url(#paint7_linear_1_402)"/>
<path opacity="0.1" d="M386.286 885.45L383.358 885.936L382.137 873.265C382.137 873.265 383.479 873.056 385.155 872.646C384.711 874.415 385.718 881.248 386.286 885.45Z" fill="black"/>
<path opacity="0.1" d="M309.596 826.241C309.596 826.241 300.874 823.589 303.031 849.526C305.188 875.464 321.319 891.871 321.319 891.871C321.319 891.871 339.889 900.419 348.235 899.043C356.582 897.668 362.678 897.373 362.678 897.373C365.305 895.982 368.18 895.179 371.119 895.015C375.808 894.819 385.656 891.773 385.844 890.791C386.031 889.808 383.405 875.366 384.531 874.285C384.531 874.285 371.401 874.848 370.088 875.844C368.775 876.839 366.899 876.126 365.492 875.844C364.085 875.562 359.771 871.632 351.237 875.071C351.237 875.071 348.329 875.366 347.204 874.58C346.078 873.794 344.27 874.383 344.27 874.383C343.547 874.123 342.861 873.76 342.233 873.302C341.952 872.909 339.701 873.302 339.701 873.302C339.567 873.371 339.421 873.407 339.272 873.409C339.123 873.41 338.976 873.377 338.841 873.311C338.706 873.245 338.587 873.148 338.492 873.027C338.398 872.907 338.33 872.766 338.294 872.615C337.999 871.809 337.553 871.074 336.981 870.453C336.981 870.453 334.449 855.519 329.666 849.919C329.666 849.919 328.259 848.642 328.634 847.07C329.009 845.498 320.85 823.097 309.596 826.241Z" fill="black"/>
<path d="M309.791 824.265C309.791 824.265 301.068 821.613 303.226 847.55C305.383 873.488 321.514 889.895 321.514 889.895C321.514 889.895 340.083 898.443 348.43 897.068C356.777 895.692 362.873 895.397 362.873 895.397C365.5 894.006 368.375 893.203 371.314 893.039C376.003 892.843 385.851 889.797 386.038 888.815C386.226 887.832 383.6 873.39 384.725 872.309C384.725 872.309 371.595 872.872 370.282 873.868C368.969 874.863 367.094 874.15 365.687 873.868C364.28 873.586 359.966 869.656 351.431 873.095C351.431 873.095 348.524 873.39 347.399 872.604C346.273 871.818 344.465 872.407 344.465 872.407C343.742 872.148 343.056 871.784 342.428 871.326C342.147 870.933 339.896 871.326 339.896 871.326C339.762 871.395 339.615 871.431 339.467 871.433C339.318 871.434 339.17 871.401 339.036 871.335C338.901 871.269 338.782 871.172 338.687 871.052C338.592 870.931 338.525 870.79 338.489 870.639C338.194 869.833 337.748 869.098 337.176 868.477C337.176 868.477 334.644 853.543 329.861 847.943C329.861 847.943 328.454 846.666 328.829 845.094C329.204 843.522 321.045 821.121 309.791 824.265Z" fill="#23286B"/>
<path opacity="0.1" d="M377.54 921.72L365.151 937.421C365.121 937.395 365.094 937.364 365.073 937.33C364.98 937.035 363.761 933.693 364.043 933.498C364.324 933.301 366.479 928.387 370.795 926.324C372.985 925.201 374.824 923.448 376.096 921.269L377.54 921.72Z" fill="black"/>
<path opacity="0.1" d="M377.379 948.896C376.535 949.409 376.025 949.713 376.025 949.713C376.025 949.713 372.885 947.072 369.757 944.413C366.67 941.79 363.598 939.152 363.55 939.005C363.457 938.71 362.239 935.368 362.52 935.173C362.666 935.07 363.311 933.711 364.495 932.134C372.894 929.67 367.545 935.777 366.833 936.057C366.833 936.057 377.055 933.599 377.618 945.265C377.693 946.481 377.612 947.703 377.379 948.896Z" fill="black"/>
<path d="M367.021 953.84L365.237 954.922L347.137 955.411C345.108 956.704 342.962 957.786 340.731 958.641C340.434 958.737 340.13 958.807 339.822 958.851C338.144 958.991 336.459 959.025 334.777 958.951C333.39 958.912 332.318 958.851 332.318 958.851C332.318 958.851 333.174 934.938 333.821 932.421C334.13 931.218 335.647 931.483 337.144 932.085C338.267 932.563 339.352 933.138 340.385 933.803C340.385 933.803 348.074 934.584 349.295 935.277C350.514 935.969 353.983 934.879 356.141 935.277C358.299 935.675 362.142 932.618 362.142 932.618C372.648 928.984 366.74 935.763 365.988 936.058C365.988 936.058 376.21 933.6 376.773 945.266C377.336 956.929 367.021 953.84 367.021 953.84Z" fill="#191E56"/>
<path d="M340.85 944.617C340.654 949.565 336.971 955.711 334.773 958.962C333.386 958.923 332.314 958.862 332.314 958.862C332.314 958.862 333.169 934.949 333.817 932.432C334.126 931.229 335.643 931.494 337.139 932.096C338.957 935.662 341.008 940.626 340.85 944.617Z" fill="#565387"/>
<path opacity="0.1" d="M340.85 944.617C340.654 949.565 336.971 955.711 334.773 958.962C333.386 958.923 332.314 958.862 332.314 958.862C332.314 958.862 333.169 934.949 333.817 932.432C334.126 931.229 335.643 931.494 337.139 932.096C338.957 935.662 341.008 940.626 340.85 944.617Z" fill="black"/>
<path opacity="0.05" d="M343.941 945.274C342.694 950.052 342.708 955.41 340.722 958.652C340.425 958.748 340.121 958.818 339.813 958.862C338.135 959.002 336.451 959.036 334.769 958.962C333.381 958.923 332.31 958.862 332.31 958.862C332.31 958.862 333.165 934.949 333.812 932.432C334.121 931.229 335.638 931.494 337.135 932.096C338.259 932.574 339.343 933.149 340.376 933.814C340.376 933.814 345.533 939.155 343.941 945.274Z" fill="black"/>
<path opacity="0.1" d="M406.398 896.782C406.398 896.782 397.407 899.843 389.789 910.702L406.398 896.782Z" fill="black"/>
<g opacity="0.1">
<g opacity="0.1" filter="url(#filter18_d_1_402)">
<path d="M333.367 778.866C333.384 778.936 333.401 779.006 333.422 779.075C333.509 779.355 333.613 779.629 333.734 779.895C333.642 779.541 333.519 779.197 333.367 778.866Z" fill="black"/>
</g>
</g>
<g opacity="0.1" filter="url(#filter19_d_1_402)">
<path d="M331.902 852.748C333.62 855.178 335.582 857.425 337.102 859.995C338.622 862.566 339.697 865.567 339.381 868.572C337.808 866.882 337.087 864.545 336.096 862.425C334.415 858.834 331.904 855.79 329.787 852.489C329.381 851.856 326.791 848.215 328.102 848.041C329.185 847.897 331.317 851.919 331.902 852.748Z" fill="black"/>
</g>
<ellipse opacity="0.1" cx="354.5" cy="952.5" rx="102.5" ry="11.5" fill="#191E56"/>
<ellipse opacity="0.1" cx="854.5" cy="910.5" rx="103.5" ry="9.5" fill="#191E56"/>
<defs>
<filter id="filter0_b_1_402" x="309" y="540" width="672" height="336" filterUnits="userSpaceOnUse" color-interpolation-filters="sRGB">
<feFlood flood-opacity="0" result="BackgroundImageFix"/>
<feGaussianBlur in="BackgroundImageFix" stdDeviation="1"/>
<feComposite in2="SourceAlpha" operator="in" result="effect1_backgroundBlur_1_402"/>
<feBlend mode="normal" in="SourceGraphic" in2="effect1_backgroundBlur_1_402" result="shape"/>
</filter>
<filter id="filter1_d_1_402" x="819.519" y="766.466" width="4.2514" height="16.6158" filterUnits="userSpaceOnUse" color-interpolation-filters="sRGB">
<feFlood flood-opacity="0" result="BackgroundImageFix"/>
<feColorMatrix in="SourceAlpha" type="matrix" values="0 0 0 0 0 0 0 0 0 0 0 0 0 0 0 0 0 0 127 0" result="hardAlpha"/>
<feOffset dy="0.776977"/>
<feGaussianBlur stdDeviation="0.388488"/>
<feColorMatrix type="matrix" values="0 0 0 0 0 0 0 0 0 0 0 0 0 0 0 0 0 0 0.25 0"/>
<feBlend mode="normal" in2="BackgroundImageFix" result="effect1_dropShadow_1_402"/>
<feBlend mode="normal" in="SourceGraphic" in2="effect1_dropShadow_1_402" result="shape"/>
</filter>
<filter id="filter2_d_1_402" x="825.933" y="807.025" width="12.2195" height="19.6913" filterUnits="userSpaceOnUse" color-interpolation-filters="sRGB">
<feFlood flood-opacity="0" result="BackgroundImageFix"/>
<feColorMatrix in="SourceAlpha" type="matrix" values="0 0 0 0 0 0 0 0 0 0 0 0 0 0 0 0 0 0 127 0" result="hardAlpha"/>
<feOffset dy="0.776977"/>
<feGaussianBlur stdDeviation="0.388488"/>
<feColorMatrix type="matrix" values="0 0 0 0 0 0 0 0 0 0 0 0 0 0 0 0 0 0 0.25 0"/>
<feBlend mode="normal" in2="BackgroundImageFix" result="effect1_dropShadow_1_402"/>
<feBlend mode="normal" in="SourceGraphic" in2="effect1_dropShadow_1_402" result="shape"/>
</filter>
<filter id="filter3_d_1_402" x="820.007" y="817.398" width="8.36337" height="17.597" filterUnits="userSpaceOnUse" color-interpolation-filters="sRGB">
<feFlood flood-opacity="0" result="BackgroundImageFix"/>
<feColorMatrix in="SourceAlpha" type="matrix" values="0 0 0 0 0 0 0 0 0 0 0 0 0 0 0 0 0 0 127 0" result="hardAlpha"/>
<feOffset dy="0.776977"/>
<feGaussianBlur stdDeviation="0.388488"/>
<feColorMatrix type="matrix" values="0 0 0 0 0 0 0 0 0 0 0 0 0 0 0 0 0 0 0.25 0"/>
<feBlend mode="normal" in2="BackgroundImageFix" result="effect1_dropShadow_1_402"/>
<feBlend mode="normal" in="SourceGraphic" in2="effect1_dropShadow_1_402" result="shape"/>
</filter>
<filter id="filter4_d_1_402" x="842.999" y="759.023" width="3.39128" height="10.7701" filterUnits="userSpaceOnUse" color-interpolation-filters="sRGB">
<feFlood flood-opacity="0" result="BackgroundImageFix"/>
<feColorMatrix in="SourceAlpha" type="matrix" values="0 0 0 0 0 0 0 0 0 0 0 0 0 0 0 0 0 0 127 0" result="hardAlpha"/>
<feOffset dy="0.776977"/>
<feGaussianBlur stdDeviation="0.388488"/>
<feColorMatrix type="matrix" values="0 0 0 0 0 0 0 0 0 0 0 0 0 0 0 0 0 0 0.25 0"/>
<feBlend mode="normal" in2="BackgroundImageFix" result="effect1_dropShadow_1_402"/>
<feBlend mode="normal" in="SourceGraphic" in2="effect1_dropShadow_1_402" result="shape"/>
</filter>
<filter id="filter5_d_1_402" x="826.417" y="736.401" width="2.06941" height="8.23794" filterUnits="userSpaceOnUse" color-interpolation-filters="sRGB">
<feFlood flood-opacity="0" result="BackgroundImageFix"/>
<feColorMatrix in="SourceAlpha" type="matrix" values="0 0 0 0 0 0 0 0 0 0 0 0 0 0 0 0 0 0 127 0" result="hardAlpha"/>
<feOffset dy="0.776977"/>
<feGaussianBlur stdDeviation="0.388488"/>
<feColorMatrix type="matrix" values="0 0 0 0 0 0 0 0 0 0 0 0 0 0 0 0 0 0 0.25 0"/>
<feBlend mode="normal" in2="BackgroundImageFix" result="effect1_dropShadow_1_402"/>
<feBlend mode="normal" in="SourceGraphic" in2="effect1_dropShadow_1_402" result="shape"/>
</filter>
<filter id="filter6_d_1_402" x="845.995" y="775.624" width="3.5784" height="7.50946" filterUnits="userSpaceOnUse" color-interpolation-filters="sRGB">
<feFlood flood-opacity="0" result="BackgroundImageFix"/>
<feColorMatrix in="SourceAlpha" type="matrix" values="0 0 0 0 0 0 0 0 0 0 0 0 0 0 0 0 0 0 127 0" result="hardAlpha"/>
<feOffset dy="0.776977"/>
<feGaussianBlur stdDeviation="0.388488"/>
<feColorMatrix type="matrix" values="0 0 0 0 0 0 0 0 0 0 0 0 0 0 0 0 0 0 0.25 0"/>
<feBlend mode="normal" in2="BackgroundImageFix" result="effect1_dropShadow_1_402"/>
<feBlend mode="normal" in="SourceGraphic" in2="effect1_dropShadow_1_402" result="shape"/>
</filter>
<filter id="filter7_d_1_402" x="816.211" y="794.666" width="6.36105" height="15.3505" filterUnits="userSpaceOnUse" color-interpolation-filters="sRGB">
<feFlood flood-opacity="0" result="BackgroundImageFix"/>
<feColorMatrix in="SourceAlpha" type="matrix" values="0 0 0 0 0 0 0 0 0 0 0 0 0 0 0 0 0 0 127 0" result="hardAlpha"/>
<feOffset dy="0.776977"/>
<feGaussianBlur stdDeviation="0.388488"/>
<feColorMatrix type="matrix" values="0 0 0 0 0 0 0 0 0 0 0 0 0 0 0 0 0 0 0.25 0"/>
<feBlend mode="normal" in2="BackgroundImageFix" result="effect1_dropShadow_1_402"/>
<feBlend mode="normal" in="SourceGraphic" in2="effect1_dropShadow_1_402" result="shape"/>
</filter>
<filter id="filter8_d_1_402" x="841.161" y="744.996" width="21.2907" height="25.3359" filterUnits="userSpaceOnUse" color-interpolation-filters="sRGB">
<feFlood flood-opacity="0" result="BackgroundImageFix"/>
<feColorMatrix in="SourceAlpha" type="matrix" values="0 0 0 0 0 0 0 0 0 0 0 0 0 0 0 0 0 0 127 0" result="hardAlpha"/>
<feOffset dy="0.776977"/>
<feGaussianBlur stdDeviation="0.388488"/>
<feColorMatrix type="matrix" values="0 0 0 0 0 0 0 0 0 0 0 0 0 0 0 0 0 0 0.25 0"/>
<feBlend mode="normal" in2="BackgroundImageFix" result="effect1_dropShadow_1_402"/>
<feBlend mode="normal" in="SourceGraphic" in2="effect1_dropShadow_1_402" result="shape"/>
</filter>
<filter id="filter9_d_1_402" x="860.888" y="761.279" width="9.1394" height="10.5636" filterUnits="userSpaceOnUse" color-interpolation-filters="sRGB">
<feFlood flood-opacity="0" result="BackgroundImageFix"/>
<feColorMatrix in="SourceAlpha" type="matrix" values="0 0 0 0 0 0 0 0 0 0 0 0 0 0 0 0 0 0 127 0" result="hardAlpha"/>
<feOffset dy="0.776977"/>
<feGaussianBlur stdDeviation="0.388488"/>
<feColorMatrix type="matrix" values="0 0 0 0 0 0 0 0 0 0 0 0 0 0 0 0 0 0 0.25 0"/>
<feBlend mode="normal" in2="BackgroundImageFix" result="effect1_dropShadow_1_402"/>
<feBlend mode="normal" in="SourceGraphic" in2="effect1_dropShadow_1_402" result="shape"/>
</filter>
<filter id="filter10_d_1_402" x="867.977" y="744.948" width="5.49925" height="14.0187" filterUnits="userSpaceOnUse" color-interpolation-filters="sRGB">
<feFlood flood-opacity="0" result="BackgroundImageFix"/>
<feColorMatrix in="SourceAlpha" type="matrix" values="0 0 0 0 0 0 0 0 0 0 0 0 0 0 0 0 0 0 127 0" result="hardAlpha"/>
<feOffset dy="0.776977"/>
<feGaussianBlur stdDeviation="0.388488"/>
<feColorMatrix type="matrix" values="0 0 0 0 0 0 0 0 0 0 0 0 0 0 0 0 0 0 0.25 0"/>
<feBlend mode="normal" in2="BackgroundImageFix" result="effect1_dropShadow_1_402"/>
<feBlend mode="normal" in="SourceGraphic" in2="effect1_dropShadow_1_402" result="shape"/>
</filter>
<filter id="filter11_d_1_402" x="840.951" y="809.551" width="6.5273" height="8.69183" filterUnits="userSpaceOnUse" color-interpolation-filters="sRGB">
<feFlood flood-opacity="0" result="BackgroundImageFix"/>
<feColorMatrix in="SourceAlpha" type="matrix" values="0 0 0 0 0 0 0 0 0 0 0 0 0 0 0 0 0 0 127 0" result="hardAlpha"/>
<feOffset dy="0.776977"/>
<feGaussianBlur stdDeviation="0.388488"/>
<feColorMatrix type="matrix" values="0 0 0 0 0 0 0 0 0 0 0 0 0 0 0 0 0 0 0.25 0"/>
<feBlend mode="normal" in2="BackgroundImageFix" result="effect1_dropShadow_1_402"/>
<feBlend mode="normal" in="SourceGraphic" in2="effect1_dropShadow_1_402" result="shape"/>
</filter>
<filter id="filter12_d_1_402" x="832.64" y="814.566" width="9.95778" height="7.60571" filterUnits="userSpaceOnUse" color-interpolation-filters="sRGB">
<feFlood flood-opacity="0" result="BackgroundImageFix"/>
<feColorMatrix in="SourceAlpha" type="matrix" values="0 0 0 0 0 0 0 0 0 0 0 0 0 0 0 0 0 0 127 0" result="hardAlpha"/>
<feOffset dy="0.776977"/>
<feGaussianBlur stdDeviation="0.388488"/>
<feColorMatrix type="matrix" values="0 0 0 0 0 0 0 0 0 0 0 0 0 0 0 0 0 0 0.25 0"/>
<feBlend mode="normal" in2="BackgroundImageFix" result="effect1_dropShadow_1_402"/>
<feBlend mode="normal" in="SourceGraphic" in2="effect1_dropShadow_1_402" result="shape"/>
</filter>
<filter id="filter13_d_1_402" x="845.831" y="792.325" width="4.76782" height="15.4439" filterUnits="userSpaceOnUse" color-interpolation-filters="sRGB">
<feFlood flood-opacity="0" result="BackgroundImageFix"/>
<feColorMatrix in="SourceAlpha" type="matrix" values="0 0 0 0 0 0 0 0 0 0 0 0 0 0 0 0 0 0 127 0" result="hardAlpha"/>
<feOffset dy="0.776977"/>
<feGaussianBlur stdDeviation="0.388488"/>
<feColorMatrix type="matrix" values="0 0 0 0 0 0 0 0 0 0 0 0 0 0 0 0 0 0 0.25 0"/>
<feBlend mode="normal" in2="BackgroundImageFix" result="effect1_dropShadow_1_402"/>
<feBlend mode="normal" in="SourceGraphic" in2="effect1_dropShadow_1_402" result="shape"/>
</filter>
<filter id="filter14_b_1_402" x="217" y="509" width="199" height="96" filterUnits="userSpaceOnUse" color-interpolation-filters="sRGB">
<feFlood flood-opacity="0" result="BackgroundImageFix"/>
<feGaussianBlur in="BackgroundImageFix" stdDeviation="1"/>
<feComposite in2="SourceAlpha" operator="in" result="effect1_backgroundBlur_1_402"/>
<feBlend mode="normal" in="SourceGraphic" in2="effect1_backgroundBlur_1_402" result="shape"/>
</filter>
<filter id="filter15_b_1_402" x="149" y="613" width="199" height="64" filterUnits="userSpaceOnUse" color-interpolation-filters="sRGB">
<feFlood flood-opacity="0" result="BackgroundImageFix"/>
<feGaussianBlur in="BackgroundImageFix" stdDeviation="1"/>
<feComposite in2="SourceAlpha" operator="in" result="effect1_backgroundBlur_1_402"/>
<feBlend mode="normal" in="SourceGraphic" in2="effect1_backgroundBlur_1_402" result="shape"/>
</filter>
<filter id="filter16_b_1_402" x="816" y="554" width="224" height="52" filterUnits="userSpaceOnUse" color-interpolation-filters="sRGB">
<feFlood flood-opacity="0" result="BackgroundImageFix"/>
<feGaussianBlur in="BackgroundImageFix" stdDeviation="1"/>
<feComposite in2="SourceAlpha" operator="in" result="effect1_backgroundBlur_1_402"/>
<feBlend mode="normal" in="SourceGraphic" in2="effect1_backgroundBlur_1_402" result="shape"/>
</filter>
<filter id="filter17_b_1_402" x="907" y="691" width="224" height="52" filterUnits="userSpaceOnUse" color-interpolation-filters="sRGB">
<feFlood flood-opacity="0" result="BackgroundImageFix"/>
<feGaussianBlur in="BackgroundImageFix" stdDeviation="1"/>
<feComposite in2="SourceAlpha" operator="in" result="effect1_backgroundBlur_1_402"/>
<feBlend mode="normal" in="SourceGraphic" in2="effect1_backgroundBlur_1_402" result="shape"/>
</filter>
<filter id="filter18_d_1_402" x="332.59" y="778.866" width="1.92084" height="2.58241" filterUnits="userSpaceOnUse" color-interpolation-filters="sRGB">
<feFlood flood-opacity="0" result="BackgroundImageFix"/>
<feColorMatrix in="SourceAlpha" type="matrix" values="0 0 0 0 0 0 0 0 0 0 0 0 0 0 0 0 0 0 127 0" result="hardAlpha"/>
<feOffset dy="0.776977"/>
<feGaussianBlur stdDeviation="0.388488"/>
<feColorMatrix type="matrix" values="0 0 0 0 0 0 0 0 0 0 0 0 0 0 0 0 0 0 0.25 0"/>
<feBlend mode="normal" in2="BackgroundImageFix" result="effect1_dropShadow_1_402"/>
<feBlend mode="normal" in="SourceGraphic" in2="effect1_dropShadow_1_402" result="shape"/>
</filter>
<filter id="filter19_d_1_402" x="326.958" y="848.037" width="13.2557" height="22.0897" filterUnits="userSpaceOnUse" color-interpolation-filters="sRGB">
<feFlood flood-opacity="0" result="BackgroundImageFix"/>
<feColorMatrix in="SourceAlpha" type="matrix" values="0 0 0 0 0 0 0 0 0 0 0 0 0 0 0 0 0 0 127 0" result="hardAlpha"/>
<feOffset dy="0.776977"/>
<feGaussianBlur stdDeviation="0.388488"/>
<feColorMatrix type="matrix" values="0 0 0 0 0 0 0 0 0 0 0 0 0 0 0 0 0 0 0.25 0"/>
<feBlend mode="normal" in2="BackgroundImageFix" result="effect1_dropShadow_1_402"/>
<feBlend mode="normal" in="SourceGraphic" in2="effect1_dropShadow_1_402" result="shape"/>
</filter>
<linearGradient id="paint0_linear_1_402" x1="640" y1="0" x2="640" y2="715" gradientUnits="userSpaceOnUse">
<stop stop-color="#587FFF"/>
<stop offset="1" stop-color="#3B72FF"/>
</linearGradient>
<linearGradient id="paint1_linear_1_402" x1="854" y1="909" x2="854" y2="721.987" gradientUnits="userSpaceOnUse">
<stop stop-color="#808080" stop-opacity="0.25"/>
<stop offset="0.53514" stop-color="#808080" stop-opacity="0.12"/>
<stop offset="1" stop-color="#808080" stop-opacity="0.1"/>
</linearGradient>
<linearGradient id="paint2_linear_1_402" x1="880.188" y1="820.713" x2="802.784" y2="822.642" gradientUnits="userSpaceOnUse">
<stop stop-color="#A1C3FC"/>
<stop offset="1" stop-color="#7DB4F8"/>
</linearGradient>
<linearGradient id="paint3_linear_1_402" x1="821.38" y1="825.42" x2="800.97" y2="825.613" gradientUnits="userSpaceOnUse">
<stop stop-color="#A1C3FC"/>
<stop offset="1" stop-color="#7DB4F8"/>
</linearGradient>
<linearGradient id="paint4_linear_1_402" x1="889.996" y1="823.507" x2="872.503" y2="823.671" gradientUnits="userSpaceOnUse">
<stop stop-color="#A1C3FC"/>
<stop offset="1" stop-color="#7DB4F8"/>
</linearGradient>
<linearGradient id="paint5_linear_1_402" x1="314.734" y1="918.834" x2="433.694" y2="925.386" gradientUnits="userSpaceOnUse">
<stop stop-color="#A1C3FC"/>
<stop offset="1" stop-color="#7DB4F8"/>
</linearGradient>
<linearGradient id="paint6_linear_1_402" x1="346.009" y1="911.9" x2="456.73" y2="916.341" gradientUnits="userSpaceOnUse">
<stop stop-color="#A1C3FC"/>
<stop offset="1" stop-color="#7DB4F8"/>
</linearGradient>
<linearGradient id="paint7_linear_1_402" x1="311.396" y1="911.768" x2="385.123" y2="914.922" gradientUnits="userSpaceOnUse">
<stop stop-color="#A1C3FC"/>
<stop offset="1" stop-color="#7DB4F8"/>
</linearGradient>
<clipPath id="clip0_1_402">
<rect width="12" height="12" fill="white" transform="translate(271 523)"/>
</clipPath>
<clipPath id="clip1_1_402">
<rect width="12" height="12" fill="white" transform="translate(283 523)"/>
</clipPath>
<clipPath id="clip2_1_402">
<rect width="12" height="12" fill="white" transform="translate(295 523)"/>
</clipPath>
<clipPath id="clip3_1_402">
<rect width="12" height="12" fill="white" transform="translate(307 523)"/>
</clipPath>
<clipPath id="clip4_1_402">
<rect width="12" height="12" fill="white" transform="translate(319 523)"/>
</clipPath>
<clipPath id="clip5_1_402">
<rect width="12" height="12" fill="white" transform="translate(203 627)"/>
</clipPath>
<clipPath id="clip6_1_402">
<rect width="12" height="12" fill="white" transform="translate(215 627)"/>
</clipPath>
<clipPath id="clip7_1_402">
<rect width="12" height="12" fill="white" transform="translate(227 627)"/>
</clipPath>
<clipPath id="clip8_1_402">
<rect width="12" height="12" fill="white" transform="translate(239 627)"/>
</clipPath>
<clipPath id="clip9_1_402">
<rect width="12" height="12" fill="white" transform="translate(251 627)"/>
</clipPath>
<clipPath id="clip10_1_402">
<rect width="12" height="12" fill="white" transform="translate(970 564)"/>
</clipPath>
<clipPath id="clip11_1_402">
<rect width="12" height="12" fill="white" transform="translate(982 564)"/>
</clipPath>
<clipPath id="clip12_1_402">
<rect width="12" height="12" fill="white" transform="translate(994 564)"/>
</clipPath>
<clipPath id="clip13_1_402">
<rect width="12" height="12" fill="white" transform="translate(1006 564)"/>
</clipPath>
<clipPath id="clip14_1_402">
<rect width="12" height="12" fill="white" transform="translate(1018 564)"/>
</clipPath>
<clipPath id="clip15_1_402">
<rect width="12" height="12" fill="white" transform="translate(1061 701)"/>
</clipPath>
<clipPath id="clip16_1_402">
<rect width="12" height="12" fill="white" transform="translate(1073 701)"/>
</clipPath>
<clipPath id="clip17_1_402">
<rect width="12" height="12" fill="white" transform="translate(1085 701)"/>
</clipPath>
<clipPath id="clip18_1_402">
<rect width="12" height="12" fill="white" transform="translate(1097 701)"/>
</clipPath>
<clipPath id="clip19_1_402">
<rect width="12" height="12" fill="white" transform="translate(1109 701)"/>
</clipPath>
</defs>
</svg>
