<svg xmlns="http://www.w3.org/2000/svg" width="21" height="32" viewBox="0 0 21 32" fill="none">
<path fill-rule="evenodd" clip-rule="evenodd" d="M13.1376 17.6207L20.3082 28.9218C20.8402 29.7677 20.9424 30.4922 20.6143 31.0952C20.2866 31.6985 19.6191 32.0002 18.612 32.0002H2.19024C1.18299 32.0002 0.515359 31.6985 0.187484 31.0952C-0.140391 30.4922 -0.0381893 29.7675 0.493841 28.9217L7.66396 17.6206V11.9341L7.6861 10.2235H13.1204L13.1376 11.9341V17.6207ZM9.20717 18.5909L5.80859 23.5835H15.005L11.6016 18.5909L11.3166 18.149V17.6218V11.9354H9.49221V17.6218V18.149L9.20717 18.5909Z" fill="#696969"/>
<rect x="4.16406" y="4.21191" width="3.37204" height="3.37131" rx="1.68566" fill="#696969"/>
<rect x="12.5898" y="4.21191" width="3.37204" height="3.37131" rx="1.68566" fill="#696969"/>
<rect x="9.22266" width="2.52903" height="2.52848" rx="1.26424" fill="#696969"/>
<rect x="5.80078" y="10.0205" width="9.19644" height="2.08726" rx="1.04363" fill="#696969"/>
</svg>