<svg width="26" height="40" viewBox="0 0 26 40" fill="none" xmlns="http://www.w3.org/2000/svg">
<path fill-rule="evenodd" clip-rule="evenodd" d="M16.117 21.6516L24.9137 35.5345C25.5664 36.5737 25.6918 37.4636 25.2893 38.2044C24.8873 38.9455 24.0683 39.3162 22.8329 39.3162H2.68695C1.45128 39.3162 0.632235 38.9455 0.230002 38.2044C-0.17223 37.4636 -0.04685 36.5734 0.605836 35.5343L9.40203 21.6514V14.6659L9.42918 12.5645H16.0958L16.117 14.6658V21.6516ZM11.2908 22.8416L7.12149 28.9747H18.4035L14.2283 22.8416L13.8786 22.2988V21.6512V14.6656H11.6405V21.6512V22.2988L11.2908 22.8416Z" fill="#3E43E8"/>
<rect x="5.11328" y="5.17676" width="4.13677" height="4.1415" rx="2.06838" fill="#3E43E8"/>
<rect x="15.4531" y="5.17676" width="4.13677" height="4.1415" rx="2.06838" fill="#3E43E8"/>
<rect x="11.3164" width="3.10258" height="3.10613" rx="1.55129" fill="#3E43E8"/>
<rect x="7.12109" y="12.3076" width="11.2821" height="2.5641" rx="1.28205" fill="#3E43E8"/>
</svg>
