<svg width="16" height="16" viewBox="0 0 16 16" fill="none" xmlns="http://www.w3.org/2000/svg">
<path d="M13.5398 11.8054C14.7978 10.4401 14.6711 8.68675 14.6671 8.66675V3.33341C14.6671 3.1566 14.5969 2.98703 14.4718 2.86201C14.3468 2.73699 14.1772 2.66675 14.0004 2.66675H10.0004C9.2651 2.66675 8.6671 3.26475 8.6671 4.00008V8.66675C8.6671 8.84356 8.73734 9.01313 8.86236 9.13815C8.98739 9.26318 9.15696 9.33342 9.33377 9.33342H11.3858C11.3717 9.66301 11.2732 9.98346 11.0998 10.2641C10.7611 10.7981 10.1231 11.1627 9.20244 11.3467L8.6671 11.4534V13.3334H9.33377C11.1891 13.3334 12.6044 12.8194 13.5398 11.8054ZM6.20177 11.8054C7.46043 10.4401 7.3331 8.68675 7.3291 8.66675V3.33341C7.3291 3.1566 7.25886 2.98703 7.13384 2.86201C7.00882 2.73699 6.83925 2.66675 6.66244 2.66675H2.66243C1.9271 2.66675 1.3291 3.26475 1.3291 4.00008V8.66675C1.3291 8.84356 1.39934 9.01313 1.52436 9.13815C1.64939 9.26318 1.81896 9.33342 1.99577 9.33342H4.04777C4.03368 9.66301 3.93521 9.98346 3.76177 10.2641C3.4231 10.7981 2.7851 11.1627 1.86443 11.3467L1.3291 11.4534V13.3334H1.99577C3.8511 13.3334 5.26643 12.8194 6.20177 11.8054Z" fill="#909090"/>
</svg>
