<svg width="23" height="34" viewBox="0 0 23 34" fill="none" xmlns="http://www.w3.org/2000/svg">
<g id="Group">
<g id="beaker">
<path id="Shape" fill-rule="evenodd" clip-rule="evenodd" d="M14.4097 18.7221L22.0283 30.7293C22.5935 31.6281 22.7021 32.3978 22.3535 33.0385C22.0053 33.6795 21.2961 34.0001 20.2261 34.0001H2.77826C1.70808 34.0001 0.998733 33.6795 0.650371 33.0385C0.302008 32.3978 0.410596 31.6279 0.975869 30.7292L8.594 18.7219V12.6802L8.61752 10.8627H14.3913L14.4097 12.6801V18.7221ZM10.2319 19.7531L6.62092 25.0576H16.392L12.7759 19.7531L12.4731 19.2836V18.7235V12.6817H10.5347V18.7235V19.2836L10.2319 19.7531Z" fill="white"/>
</g>
<rect id="Rectangle" x="4.87695" y="4.47528" width="3.58274" height="3.58196" rx="1.79098" fill="white"/>
<rect id="Rectangle_2" x="13.8281" y="4.47528" width="3.58274" height="3.58196" rx="1.79098" fill="white"/>
<rect id="Rectangle_3" x="10.248" y="0.000305176" width="2.68705" height="2.68647" rx="1.34324" fill="white"/>
<rect id="Rectangle_4" x="6.61523" y="10.6469" width="9.77107" height="2.21768" rx="1.10884" fill="white"/>
</g>
</svg>
