<svg width="114" height="16" viewBox="0 0 114 16" fill="none" xmlns="http://www.w3.org/2000/svg">
<path d="M0.373047 1.49243H5.15088C6.17757 1.49243 7.05273 1.64705 7.77637 1.9563C8.5 2.26554 9.05355 2.72323 9.43701 3.32935C9.82666 3.92928 10.0215 4.67147 10.0215 5.55591C10.0215 6.23006 9.89779 6.82381 9.65039 7.33716C9.40299 7.8505 9.05355 8.28345 8.60205 8.63599C8.15055 8.98234 7.61247 9.25138 6.98779 9.44312L6.28271 9.78638H1.9873L1.96875 7.94019H5.18799C5.74463 7.94019 6.2085 7.84123 6.57959 7.64331C6.95068 7.44539 7.229 7.17635 7.41455 6.83618C7.60628 6.48983 7.70215 6.10018 7.70215 5.66724C7.70215 5.19718 7.60938 4.78898 7.42383 4.44263C7.24447 4.09009 6.96615 3.82104 6.58887 3.6355C6.21159 3.44377 5.73226 3.3479 5.15088 3.3479H2.70166V15.0002H0.373047V1.49243ZM8.08252 15.0002L4.90967 8.93286L7.34961 8.92358L10.5688 14.8796V15.0002H8.08252ZM16.7435 15.1858C16.0013 15.1858 15.3302 15.0652 14.7303 14.824C14.1365 14.5766 13.6294 14.2333 13.2088 13.7942C12.7944 13.3551 12.4759 12.8386 12.2532 12.2449C12.0306 11.6511 11.9192 11.011 11.9192 10.3245V9.95337C11.9192 9.16789 12.0337 8.45662 12.2625 7.81958C12.4913 7.18254 12.8099 6.63826 13.2181 6.18677C13.6263 5.72909 14.1087 5.37964 14.6653 5.13843C15.222 4.89722 15.825 4.77661 16.4744 4.77661C17.1919 4.77661 17.8196 4.89722 18.3577 5.13843C18.8958 5.37964 19.3411 5.71981 19.6937 6.15894C20.0524 6.59188 20.3183 7.10832 20.4915 7.70825C20.6709 8.30819 20.7605 8.96997 20.7605 9.6936V10.6492H13.0047V9.04419H18.5525V8.86792C18.5402 8.4659 18.4598 8.08862 18.3113 7.73608C18.1691 7.38354 17.9495 7.09904 17.6526 6.88257C17.3558 6.6661 16.9599 6.55786 16.4651 6.55786C16.094 6.55786 15.7632 6.63826 15.4725 6.79907C15.188 6.95369 14.9498 7.17944 14.7581 7.47632C14.5664 7.77319 14.4179 8.13192 14.3128 8.55249C14.2138 8.96688 14.1644 9.43384 14.1644 9.95337V10.3245C14.1644 10.7636 14.2231 11.1718 14.3406 11.5491C14.4643 11.9202 14.6437 12.2449 14.8787 12.5232C15.1137 12.8015 15.3982 13.0211 15.7322 13.1819C16.0662 13.3365 16.4466 13.4138 16.8733 13.4138C17.4114 13.4138 17.8908 13.3056 18.3113 13.0891C18.7319 12.8726 19.0968 12.5665 19.4061 12.1707L20.5843 13.3118C20.3678 13.6272 20.0864 13.9303 19.74 14.2209C19.3937 14.5055 18.97 14.7374 18.469 14.9167C17.9743 15.0961 17.3991 15.1858 16.7435 15.1858ZM28.336 12.282C28.336 12.0593 28.2804 11.8583 28.169 11.679C28.0577 11.4934 27.8443 11.3264 27.5289 11.178C27.2197 11.0295 26.762 10.8935 26.1559 10.7698C25.624 10.6523 25.1354 10.5131 24.69 10.3523C24.2509 10.1853 23.8736 9.98429 23.5582 9.74927C23.2428 9.51424 22.9985 9.23592 22.8253 8.91431C22.6521 8.59269 22.5655 8.2216 22.5655 7.80103C22.5655 7.39282 22.6552 7.00627 22.8346 6.64136C23.0139 6.27645 23.2706 5.95483 23.6046 5.67651C23.9386 5.39819 24.3437 5.17863 24.8199 5.01782C25.3023 4.85701 25.8404 4.77661 26.4342 4.77661C27.2753 4.77661 27.9959 4.91886 28.5958 5.20337C29.2019 5.48169 29.6658 5.86206 29.9874 6.34448C30.309 6.82072 30.4698 7.35881 30.4698 7.95874H28.234C28.234 7.69279 28.166 7.44539 28.0299 7.21655C27.9 6.98153 27.7021 6.79289 27.4361 6.65063C27.1702 6.5022 26.8362 6.42798 26.4342 6.42798C26.0507 6.42798 25.7322 6.48983 25.4786 6.61353C25.2312 6.73104 25.0457 6.88566 24.922 7.07739C24.8045 7.26912 24.7457 7.47941 24.7457 7.70825C24.7457 7.87524 24.7766 8.02677 24.8385 8.16284C24.9065 8.29272 25.0178 8.41333 25.1725 8.52466C25.3271 8.6298 25.5374 8.72876 25.8033 8.82153C26.0755 8.91431 26.4156 9.00399 26.8238 9.09058C27.5908 9.25138 28.2494 9.45858 28.7999 9.71216C29.3565 9.95955 29.7833 10.2812 30.0802 10.677C30.3771 11.0667 30.5255 11.5614 30.5255 12.1614C30.5255 12.6067 30.4296 13.0149 30.2379 13.386C30.0523 13.7509 29.7802 14.0694 29.4215 14.3416C29.0628 14.6075 28.6329 14.8147 28.1319 14.9631C27.6371 15.1116 27.0805 15.1858 26.462 15.1858C25.5528 15.1858 24.7828 15.025 24.152 14.7034C23.5211 14.3756 23.0418 13.9581 22.714 13.4509C22.3923 12.9376 22.2315 12.4057 22.2315 11.8552H24.3932C24.4179 12.2696 24.5323 12.6005 24.7364 12.8479C24.9467 13.0891 25.2065 13.2654 25.5157 13.3767C25.8312 13.4819 26.1559 13.5344 26.4898 13.5344C26.8919 13.5344 27.2289 13.4819 27.5011 13.3767C27.7732 13.2654 27.9804 13.1169 28.1227 12.9314C28.2649 12.7397 28.336 12.5232 28.336 12.282ZM37.1083 15.1858C36.3661 15.1858 35.6951 15.0652 35.0951 14.824C34.5014 14.5766 33.9942 14.2333 33.5736 13.7942C33.1592 13.3551 32.8407 12.8386 32.6181 12.2449C32.3954 11.6511 32.2841 11.011 32.2841 10.3245V9.95337C32.2841 9.16789 32.3985 8.45662 32.6273 7.81958C32.8562 7.18254 33.1747 6.63826 33.5829 6.18677C33.9911 5.72909 34.4735 5.37964 35.0302 5.13843C35.5868 4.89722 36.1898 4.77661 36.8393 4.77661C37.5567 4.77661 38.1845 4.89722 38.7226 5.13843C39.2606 5.37964 39.706 5.71981 40.0585 6.15894C40.4172 6.59188 40.6832 7.10832 40.8563 7.70825C41.0357 8.30819 41.1254 8.96997 41.1254 9.6936V10.6492H33.3695V9.04419H38.9174V8.86792C38.905 8.4659 38.8246 8.08862 38.6762 7.73608C38.5339 7.38354 38.3144 7.09904 38.0175 6.88257C37.7206 6.6661 37.3248 6.55786 36.83 6.55786C36.4589 6.55786 36.128 6.63826 35.8373 6.79907C35.5528 6.95369 35.3147 7.17944 35.1229 7.47632C34.9312 7.77319 34.7828 8.13192 34.6776 8.55249C34.5787 8.96688 34.5292 9.43384 34.5292 9.95337V10.3245C34.5292 10.7636 34.588 11.1718 34.7055 11.5491C34.8292 11.9202 35.0085 12.2449 35.2436 12.5232C35.4786 12.8015 35.7631 13.0211 36.0971 13.1819C36.4311 13.3365 36.8114 13.4138 37.2382 13.4138C37.7763 13.4138 38.2556 13.3056 38.6762 13.0891C39.0967 12.8726 39.4617 12.5665 39.7709 12.1707L40.9491 13.3118C40.7326 13.6272 40.4512 13.9303 40.1049 14.2209C39.7585 14.5055 39.3349 14.7374 38.8339 14.9167C38.3391 15.0961 37.7639 15.1858 37.1083 15.1858ZM48.7287 12.9871V8.19995C48.7287 7.84123 48.6638 7.53198 48.5339 7.27222C48.404 7.01245 48.2061 6.81144 47.9401 6.66919C47.6804 6.52694 47.3526 6.45581 46.9567 6.45581C46.5918 6.45581 46.2764 6.51766 46.0104 6.64136C45.7445 6.76506 45.5373 6.93205 45.3889 7.14233C45.2404 7.35262 45.1662 7.59074 45.1662 7.85669H42.9396C42.9396 7.46086 43.0355 7.07739 43.2272 6.7063C43.419 6.33521 43.6973 6.00431 44.0622 5.71362C44.4271 5.42293 44.8632 5.19409 45.3703 5.0271C45.8775 4.86011 46.4465 4.77661 47.0773 4.77661C47.8319 4.77661 48.4999 4.9034 49.0812 5.15698C49.6688 5.41056 50.1296 5.79403 50.4636 6.30737C50.8037 6.81453 50.9738 7.45158 50.9738 8.21851V12.6809C50.9738 13.1386 51.0048 13.5499 51.0666 13.9148C51.1346 14.2735 51.2305 14.5859 51.3542 14.8518V15.0002H49.0627C48.9576 14.759 48.8741 14.4529 48.8122 14.0818C48.7565 13.7045 48.7287 13.3396 48.7287 12.9871ZM49.0534 8.89575L49.072 10.2781H47.467C47.0526 10.2781 46.6877 10.3183 46.3723 10.3987C46.0568 10.4729 45.794 10.5842 45.5837 10.7327C45.3734 10.8811 45.2157 11.0605 45.1105 11.2708C45.0054 11.481 44.9528 11.7192 44.9528 11.9851C44.9528 12.2511 45.0147 12.4954 45.1384 12.718C45.2621 12.9345 45.4414 13.1046 45.6765 13.2283C45.9177 13.352 46.2084 13.4138 46.5485 13.4138C47.0062 13.4138 47.4051 13.321 47.7453 13.1355C48.0917 12.9438 48.3638 12.7118 48.5617 12.4397C48.7596 12.1614 48.8648 11.8985 48.8771 11.6511L49.6008 12.6438C49.5266 12.8974 49.3998 13.1695 49.2204 13.4602C49.041 13.7509 48.806 14.0292 48.5153 14.2952C48.2308 14.5549 47.8876 14.7683 47.4855 14.9353C47.0897 15.1023 46.632 15.1858 46.1125 15.1858C45.4569 15.1858 44.8724 15.0559 44.3591 14.7961C43.8457 14.5302 43.4437 14.1746 43.153 13.7292C42.8623 13.2778 42.717 12.7675 42.717 12.1985C42.717 11.6666 42.8159 11.1965 43.0139 10.7883C43.218 10.3739 43.5148 10.0276 43.9045 9.74927C44.3003 9.47095 44.7827 9.26066 45.3518 9.11841C45.9208 8.96997 46.5702 8.89575 47.3 8.89575H49.0534ZM55.7568 6.87329V15.0002H53.521V4.96216H55.6548L55.7568 6.87329ZM58.8276 4.89722L58.8091 6.97534C58.673 6.9506 58.5246 6.93205 58.3638 6.91968C58.2091 6.90731 58.0545 6.90112 57.8999 6.90112C57.5164 6.90112 57.1794 6.95679 56.8887 7.06812C56.598 7.17326 56.3537 7.32788 56.1558 7.53198C55.964 7.7299 55.8156 7.97111 55.7104 8.25562C55.6053 8.54012 55.5435 8.85864 55.5249 9.21118L55.0146 9.24829C55.0146 8.61743 55.0765 8.03296 55.2002 7.49487C55.3239 6.95679 55.5094 6.48364 55.7568 6.07544C56.0104 5.66724 56.3258 5.34871 56.7031 5.11987C57.0866 4.89103 57.5288 4.77661 58.0298 4.77661C58.1659 4.77661 58.3112 4.78898 58.4658 4.81372C58.6266 4.83846 58.7472 4.86629 58.8276 4.89722ZM64.3436 13.4045C64.7085 13.4045 65.0363 13.3334 65.327 13.1912C65.6238 13.0427 65.8619 12.8386 66.0413 12.5789C66.2269 12.3191 66.3289 12.0191 66.3475 11.679H68.4534C68.441 12.3284 68.2493 12.919 67.8782 13.4509C67.5071 13.9828 67.0154 14.4065 66.4031 14.7219C65.7908 15.0312 65.1136 15.1858 64.3714 15.1858C63.6045 15.1858 62.9365 15.0559 62.3675 14.7961C61.7985 14.5302 61.3253 14.1653 60.948 13.7014C60.5708 13.2375 60.2863 12.7026 60.0945 12.0964C59.909 11.4903 59.8162 10.8409 59.8162 10.1482V9.82349C59.8162 9.13078 59.909 8.48136 60.0945 7.87524C60.2863 7.26294 60.5708 6.72485 60.948 6.26099C61.3253 5.79712 61.7985 5.4353 62.3675 5.17554C62.9365 4.90959 63.6014 4.77661 64.3621 4.77661C65.1661 4.77661 65.8712 4.93742 66.4773 5.25903C67.0835 5.57446 67.5597 6.01668 67.9061 6.58569C68.2586 7.14852 68.441 7.80412 68.4534 8.55249H66.3475C66.3289 8.1814 66.2361 7.84741 66.0691 7.55054C65.9083 7.24748 65.6795 7.00627 65.3826 6.8269C65.0919 6.64754 64.7425 6.55786 64.3343 6.55786C63.8828 6.55786 63.5086 6.65063 63.2117 6.83618C62.9148 7.01554 62.6829 7.26294 62.5159 7.57837C62.3489 7.88761 62.2283 8.23706 62.1541 8.62671C62.0861 9.01017 62.0521 9.4091 62.0521 9.82349V10.1482C62.0521 10.5626 62.0861 10.9646 62.1541 11.3542C62.2221 11.7439 62.3396 12.0933 62.5066 12.4026C62.6798 12.7056 62.9148 12.95 63.2117 13.1355C63.5086 13.3149 63.8859 13.4045 64.3436 13.4045ZM72.5777 0.750244V15.0002H70.3512V0.750244H72.5777ZM72.1881 9.61011L71.4645 9.60083C71.4706 8.90812 71.5665 8.26799 71.7521 7.68042C71.9438 7.09285 72.2097 6.5826 72.5499 6.14966C72.8963 5.71053 73.3106 5.37345 73.7931 5.13843C74.2755 4.89722 74.8105 4.77661 75.398 4.77661C75.8928 4.77661 76.3382 4.84465 76.734 4.98071C77.136 5.11678 77.4824 5.33634 77.773 5.6394C78.0637 5.93628 78.2833 6.32593 78.4317 6.80835C78.5864 7.28459 78.6637 7.86597 78.6637 8.55249V15.0002H76.4186V8.53394C76.4186 8.05151 76.3474 7.66805 76.2052 7.38354C76.0691 7.09904 75.8681 6.89494 75.6021 6.77124C75.3362 6.64136 75.0115 6.57642 74.628 6.57642C74.226 6.57642 73.8704 6.65682 73.5611 6.81763C73.2581 6.97843 73.0045 7.198 72.8004 7.47632C72.5963 7.75464 72.4417 8.07625 72.3365 8.44116C72.2376 8.80607 72.1881 9.19572 72.1881 9.61011ZM90.7758 7.55054V8.52466H82.5653V7.55054H90.7758ZM82.8344 1.49243V15.0002H81.6933V1.49243H82.8344ZM91.6942 1.49243V15.0002H90.5531V1.49243H91.6942ZM101.515 12.6809V4.96216H102.628V15.0002H101.561L101.515 12.6809ZM101.719 10.8254L102.294 10.8069C102.294 11.4377 102.22 12.0191 102.071 12.551C101.923 13.0829 101.691 13.5468 101.376 13.9426C101.06 14.3385 100.652 14.6446 100.151 14.8611C99.6501 15.0776 99.0471 15.1858 98.342 15.1858C97.8534 15.1858 97.405 15.1178 96.9968 14.9817C96.5948 14.8394 96.2484 14.6168 95.9577 14.3137C95.667 14.0107 95.4413 13.6179 95.2805 13.1355C95.1258 12.6531 95.0485 12.0686 95.0485 11.3821V4.96216H96.1525V11.4006C96.1525 11.9387 96.2113 12.3871 96.3288 12.7458C96.4525 13.1046 96.6195 13.3922 96.8298 13.6086C97.0463 13.8251 97.2937 13.9797 97.572 14.0725C97.8503 14.1653 98.1503 14.2117 98.4719 14.2117C99.2883 14.2117 99.9315 14.054 100.402 13.7385C100.878 13.4231 101.215 13.0087 101.413 12.4954C101.617 11.9758 101.719 11.4192 101.719 10.8254ZM105.713 0.750244H106.827V13.052L106.752 15.0002H105.713V0.750244ZM113.812 9.88843V10.0833C113.812 10.8316 113.726 11.5181 113.553 12.1428C113.38 12.7675 113.129 13.3087 112.801 13.7664C112.473 14.2179 112.071 14.5673 111.595 14.8147C111.125 15.0621 110.584 15.1858 109.972 15.1858C109.372 15.1858 108.84 15.093 108.376 14.9075C107.912 14.7157 107.516 14.4467 107.188 14.1003C106.861 13.7478 106.598 13.3365 106.4 12.8665C106.202 12.3902 106.063 11.8676 105.982 11.2986V8.82153C106.075 8.21541 106.224 7.66496 106.428 7.17017C106.632 6.67537 106.895 6.24862 107.216 5.88989C107.544 5.53117 107.934 5.25594 108.385 5.06421C108.843 4.87248 109.366 4.77661 109.953 4.77661C110.565 4.77661 111.11 4.89722 111.586 5.13843C112.068 5.37345 112.473 5.71672 112.801 6.16821C113.129 6.61353 113.38 7.15161 113.553 7.78247C113.726 8.40715 113.812 9.10913 113.812 9.88843ZM112.69 10.0833V9.88843C112.69 9.30086 112.634 8.75659 112.523 8.25562C112.412 7.75464 112.235 7.3186 111.994 6.94751C111.759 6.57023 111.456 6.27645 111.085 6.06616C110.714 5.85588 110.269 5.75073 109.749 5.75073C109.217 5.75073 108.763 5.84041 108.385 6.01978C108.014 6.19295 107.705 6.42489 107.458 6.71558C107.216 7.00008 107.025 7.31242 106.882 7.65259C106.74 7.99276 106.635 8.32674 106.567 8.65454V11.5398C106.672 12.0037 106.854 12.4397 107.114 12.8479C107.374 13.2561 107.723 13.587 108.163 13.8406C108.602 14.088 109.137 14.2117 109.768 14.2117C110.275 14.2117 110.711 14.1065 111.076 13.8962C111.447 13.686 111.75 13.3953 111.985 13.0242C112.226 12.6531 112.402 12.217 112.514 11.7161C112.631 11.2151 112.69 10.6708 112.69 10.0833Z" fill="#F0EFF5"/>
</svg>
