<svg width="20" height="20" viewBox="0 0 20 20" fill="none" xmlns="http://www.w3.org/2000/svg">
<path fill-rule="evenodd" clip-rule="evenodd" d="M11.3421 1.77651C15.8839 2.51692 18.9653 6.79871 18.2248 11.3406C17.4842 15.8826 13.2023 18.9639 8.66048 18.2235C4.11867 17.4827 1.03728 13.2013 1.77784 8.65907C2.5184 4.11704 6.80015 1.03594 11.3421 1.77651Z" fill="rgb(193, 193, 207)"/>
<path fill-rule="evenodd" clip-rule="evenodd" d="M11.0586 10.1811L13.5851 14.1683C13.7726 14.4668 13.8086 14.7224 13.693 14.9352C13.5775 15.148 13.3423 15.2545 12.9875 15.2545H7.2014C6.84651 15.2545 6.61127 15.148 6.49575 14.9352C6.38022 14.7224 6.41623 14.4667 6.60369 14.1683L9.13003 10.181V8.17471L9.13783 7.57117H11.0525L11.0586 8.1747V10.1811ZM9.67414 10.5228L8.47668 12.2843H11.717L10.5178 10.5228L10.4174 10.3669V10.1809V8.17463H9.77457V10.1809V10.3669L9.67414 10.5228Z" fill="white"/>
<path d="M9.1077 10.5928L8.21484 12.6761L12.3815 12.9737L10.5958 10.2951V7.91418H9.40532V8.50942L9.1077 10.5928Z" fill="white"/>
<rect x="8.47266" y="7.49854" width="3.2403" height="0.736431" rx="0.368216" fill="white"/>
<rect x="8.11719" y="4.95691" width="1.18045" height="1.1818" rx="0.590225" fill="white"/>
<rect x="11.0508" y="4.95691" width="1.18045" height="1.1818" rx="0.590225" fill="white"/>
<rect x="9.73438" y="3.45203" width="0.910633" height="0.911675" rx="0.455317" fill="white"/>
</svg>
