<svg width="18" height="18" viewBox="0 0 18 18" fill="none" xmlns="http://www.w3.org/2000/svg">
<path d="M8.11601 1.02594L8.40961 1.42842L8.11601 1.02594L6.86823 1.93614C6.78239 1.99875 6.67885 2.0324 6.57261 2.03219L5.02812 2.02925C4.37618 2.02801 3.79808 2.44802 3.5978 3.06844L3.12333 4.53825C3.09069 4.63935 3.0267 4.72743 2.94063 4.78971L1.68938 5.69516C1.16122 6.07736 0.940406 6.75695 1.14305 7.3766L1.62312 8.84459C1.65614 8.94556 1.65614 9.05444 1.62312 9.15541L1.14305 10.6234C0.940407 11.243 1.16122 11.9226 1.68938 12.3048L2.94063 13.2103C3.0267 13.2726 3.09069 13.3607 3.12333 13.4618L3.5978 14.9316C3.79808 15.552 4.37618 15.972 5.02812 15.9707L6.57261 15.9678C6.67885 15.9676 6.78239 16.0012 6.86822 16.0639L8.11601 16.9741C8.64272 17.3583 9.35728 17.3583 9.88399 16.9741L11.1318 16.0639C11.2176 16.0012 11.3211 15.9676 11.4274 15.9678L12.9719 15.9707C13.6238 15.972 14.2019 15.552 14.4022 14.9316L14.8767 13.4618C14.9093 13.3607 14.9733 13.2726 15.0594 13.2103L16.3106 12.3048C16.8388 11.9226 17.0596 11.2431 16.8569 10.6234L16.3769 9.15541C16.3439 9.05444 16.3439 8.94556 16.3769 8.84459L16.857 7.3766C17.0596 6.75695 16.8388 6.07736 16.3106 5.69516L15.0594 4.78971C14.9733 4.72743 14.9093 4.63935 14.8767 4.53824L14.4022 3.06844C14.2019 2.44802 13.6238 2.02801 12.9719 2.02925L11.4274 2.03219C11.3211 2.0324 11.2176 1.99875 11.1318 1.93614L9.88399 1.02594C9.35728 0.641731 8.64272 0.64173 8.11601 1.02594Z" fill="#3971FF" stroke="white"/>
<path d="M11.666 7.33325L8.33268 10.6666L6.66602 8.99992" stroke="white" stroke-width="1.2" stroke-linecap="round" stroke-linejoin="round"/>
</svg>
